<svg xmlns="http://www.w3.org/2000/svg" xmlns:xlink="http://www.w3.org/1999/xlink" width="29" height="29" viewBox="0 0 29 29">
  <defs>
    <clipPath id="clip-path">
      <path id="path1901" d="M0-682.665H29v29H0Z" transform="translate(0 682.665)" fill="#e82e38"/>
    </clipPath>
  </defs>
  <g id="add-group" transform="translate(0 -0.002)">
    <g id="g1895" transform="translate(0 0.002)">
      <g id="g1897">
        <g id="g1899" clip-path="url(#clip-path)">
          <g id="g1905" transform="translate(4.871 7.753)">
            <path id="path1907" d="M-20.889-136a5.784,5.784,0,0,1,5.777,5.777,5.784,5.784,0,0,1-5.777,5.777,5.784,5.784,0,0,1-5.777-5.777A5.784,5.784,0,0,1-20.889-136Zm0,9.289a3.516,3.516,0,0,0,3.512-3.512,3.516,3.516,0,0,0-3.512-3.512,3.516,3.516,0,0,0-3.512,3.512A3.516,3.516,0,0,0-20.889-126.711Z" transform="translate(26.667 136)" fill="#e82e38"/>
          </g>
          <g id="g1909" transform="translate(-0.004 17.076)">
            <path id="path1911" d="M-298.826-242.1h-9.856a3.365,3.365,0,0,1-2.747-1.4,3.365,3.365,0,0,1-.489-3.043,11.028,11.028,0,0,1,10.461-7.484,10.727,10.727,0,0,1,6.167,1.935,1.133,1.133,0,0,1,.281,1.577,1.133,1.133,0,0,1-1.577.281,8.472,8.472,0,0,0-4.871-1.527,8.74,8.74,0,0,0-8.3,5.912,1.122,1.122,0,0,0,.163,1.015,1.122,1.122,0,0,0,.916.466h9.856a1.133,1.133,0,0,1,1.133,1.133A1.133,1.133,0,0,1-298.826-242.1Z" transform="translate(312.083 254.027)" fill="#e82e38"/>
          </g>
          <g id="g1913" transform="translate(16.596)">
            <path id="path1915" d="M-20.889-136a5.784,5.784,0,0,1,5.777,5.777,5.784,5.784,0,0,1-5.777,5.777,5.784,5.784,0,0,1-5.777-5.777A5.784,5.784,0,0,1-20.889-136Zm0,9.289a3.516,3.516,0,0,0,3.512-3.512,3.516,3.516,0,0,0-3.512-3.512,3.516,3.516,0,0,0-3.512,3.512A3.516,3.516,0,0,0-20.889-126.711Z" transform="translate(26.667 136)" fill="#e82e38"/>
          </g>
          <g id="g1917" transform="translate(14.196 9.323)">
            <path id="path1919" d="M-25.534-92.571a1.129,1.129,0,0,1-.778-.31,1.133,1.133,0,0,1-.045-1.6,10.693,10.693,0,0,1,7.843-3.379,10.727,10.727,0,0,1,6.167,1.935,1.133,1.133,0,0,1,.281,1.577,1.133,1.133,0,0,1-1.577.281A8.472,8.472,0,0,0-18.514-95.6a8.448,8.448,0,0,0-6.2,2.67A1.13,1.13,0,0,1-25.534-92.571Z" transform="translate(26.667 97.861)" fill="#e82e38"/>
          </g>
          <g id="g1921" transform="translate(22.487 18.238)">
            <path id="path1923" d="M-25.534-215.9a1.133,1.133,0,0,1-1.133-1.133v-8.5a1.133,1.133,0,0,1,1.133-1.133,1.133,1.133,0,0,1,1.133,1.133v8.5A1.133,1.133,0,0,1-25.534-215.9Z" transform="translate(26.667 226.666)" fill="#e82e38"/>
          </g>
          <g id="g1925" transform="translate(18.238 22.487)">
            <path id="path1927" d="M-217.037-24.4h-8.5a1.133,1.133,0,0,1-1.133-1.133,1.133,1.133,0,0,1,1.133-1.133h8.5a1.133,1.133,0,0,1,1.133,1.133A1.133,1.133,0,0,1-217.037-24.4Z" transform="translate(226.666 26.667)" fill="#e82e38"/>
          </g>
        </g>
      </g>
    </g>
  </g>
</svg>
