<svg id="board" xmlns="http://www.w3.org/2000/svg" width="24" height="24" viewBox="0 0 24 24">
  <rect id="Rectangle_169197" data-name="Rectangle 169197" width="24" height="24" fill="none"/>
  <g id="meeting" transform="translate(0 -24.703)">
    <g id="Group_161647" data-name="Group 161647" transform="translate(3.633 39.484)">
      <g id="Group_161646" data-name="Group 161646">
        <path id="Path_208900" data-name="Path 208900" d="M91.476,320.841H80.249a2.754,2.754,0,0,1,0-5.507H91.476a2.754,2.754,0,0,1,0,5.507Zm-11.228-4.8a2.05,2.05,0,1,0,0,4.1H91.476a2.05,2.05,0,1,0,0-4.1Z" transform="translate(-77.495 -315.334)" fill="#060709"/>
      </g>
    </g>
    <path id="Path_208901" data-name="Path 208901" d="M23.3,35.24v1.748H20.56a.352.352,0,0,0,0,.7h2.187v8.977a.117.117,0,0,1-.117.117H1.37a.117.117,0,0,1-.117-.117V42.454a.352.352,0,1,0-.7,0v4.214a.821.821,0,0,0,.82.82H22.63a.821.821,0,0,0,.82-.82V37.689A.586.586,0,0,0,24,37.1V35.123a.587.587,0,0,0-.586-.586h-.02l-.441-2.529a1.292,1.292,0,0,0-1.275-1.072h-.586V30.82a2.272,2.272,0,0,0,.976-1.865v-.763a2.274,2.274,0,0,0-4.548,0v.763A2.272,2.272,0,0,0,18.5,30.82v.116h-.586a1.292,1.292,0,0,0-1.275,1.072l-.441,2.529H15.6l-.441-2.529a1.292,1.292,0,0,0-1.275-1.072H13.3V30.82a2.272,2.272,0,0,0,.976-1.865v-.763a2.274,2.274,0,0,0-4.548,0v.763A2.272,2.272,0,0,0,10.7,30.82v.116h-.586a1.292,1.292,0,0,0-1.275,1.072l-.044.254a.352.352,0,1,0,.693.121l.044-.254a.59.59,0,0,1,.582-.489H10.7v.072a1.3,1.3,0,1,0,2.6,0V31.64h.586a.59.59,0,0,1,.582.489l.42,2.408H9.113l.109-.622a.352.352,0,0,0-.693-.121l-.13.743H7.807l-.441-2.529a1.292,1.292,0,0,0-1.275-1.072H5.5V30.82a2.272,2.272,0,0,0,.976-1.865v-.763a2.274,2.274,0,1,0-4.548,0v.763a2.272,2.272,0,0,0,.976,1.865v.116H2.322a1.292,1.292,0,0,0-1.275,1.072L.606,34.537H.586A.587.587,0,0,0,0,35.123V37.1a.586.586,0,0,0,.55.584v3.233a.352.352,0,1,0,.7,0V37.691H19.027a.352.352,0,0,0,0-.7H.7V35.24ZM12,26.621a1.57,1.57,0,0,1,1.286.671,3.191,3.191,0,0,1-2.841.679A1.573,1.573,0,0,1,12,26.621Zm-1.571,2.073a2.956,2.956,0,0,0,.7.081,4.433,4.433,0,0,0,2.425-.817,1.576,1.576,0,0,1,.017.233v.763a1.571,1.571,0,1,1-3.141,0v-.26ZM12,32.306a.6.6,0,0,1-.595-.595v-.562a2.266,2.266,0,0,0,1.189,0v.562A.6.6,0,0,1,12,32.306Zm7.2-1.157a2.266,2.266,0,0,0,1.189,0v.562a.595.595,0,0,1-1.189,0Zm.595-4.528a1.57,1.57,0,0,1,1.286.671,3.191,3.191,0,0,1-2.841.679A1.573,1.573,0,0,1,19.794,26.621Zm-1.571,2.073a2.956,2.956,0,0,0,.7.081,4.433,4.433,0,0,0,2.425-.817,1.576,1.576,0,0,1,.017.233v.763a1.571,1.571,0,1,1-3.141,0v-.26Zm-.9,3.435a.59.59,0,0,1,.582-.489H18.5v.072a1.3,1.3,0,0,0,2.6,0V31.64h.586a.59.59,0,0,1,.582.489l.42,2.408H16.907Zm-13.715-.98a2.266,2.266,0,0,0,1.189,0v.563a.595.595,0,0,1-1.189,0Zm.595-4.528a1.57,1.57,0,0,1,1.286.671,3.191,3.191,0,0,1-2.841.679,1.573,1.573,0,0,1,1.555-1.349ZM2.636,28.694a2.956,2.956,0,0,0,.7.081,4.433,4.433,0,0,0,2.425-.817,1.576,1.576,0,0,1,.017.233v.763a1.571,1.571,0,1,1-3.141,0Zm-.9,3.435a.59.59,0,0,1,.582-.489h.586v.072a1.3,1.3,0,0,0,2.6,0V31.64h.586a.59.59,0,0,1,.582.489l.42,2.408H1.32Z" fill="#bf2025"/>
  </g>
</svg>
