<svg xmlns="http://www.w3.org/2000/svg" width="12.626" height="13.112" viewBox="0 0 12.626 13.112">
  <g id="calendar" transform="translate(-5.988)">
    <g id="Group_1241" data-name="Group 1241" transform="translate(5.988 0)">
      <path id="Path_115758" data-name="Path 115758" d="M7.727,13.112h9.149a1.74,1.74,0,0,0,1.739-1.739V2.71A1.74,1.74,0,0,0,16.876.971h-.69V.486a.486.486,0,0,0-.971,0V.971H9.387V.486a.486.486,0,0,0-.971,0V.971h-.69A1.74,1.74,0,0,0,5.988,2.71v8.664a1.74,1.74,0,0,0,1.739,1.739ZM6.959,2.71a.769.769,0,0,1,.767-.767h.69v.486a.486.486,0,0,0,.971,0V1.943h5.828v.486a.486.486,0,0,0,.971,0V1.943h.69a.769.769,0,0,1,.767.767v8.664a.769.769,0,0,1-.767.767H7.727a.769.769,0,0,1-.767-.767Z" transform="translate(-5.988 0)" fill="#3e01a4"/>
      <circle id="Ellipse_131" data-name="Ellipse 131" cx="0.607" cy="0.607" r="0.607" transform="translate(2.914 4.371)" fill="#3e01a4"/>
      <circle id="Ellipse_132" data-name="Ellipse 132" cx="0.607" cy="0.607" r="0.607" transform="translate(5.585 4.371)" fill="#3e01a4"/>
      <circle id="Ellipse_133" data-name="Ellipse 133" cx="0.607" cy="0.607" r="0.607" transform="translate(8.256 4.371)" fill="#3e01a4"/>
      <circle id="Ellipse_134" data-name="Ellipse 134" cx="0.607" cy="0.607" r="0.607" transform="translate(2.914 6.799)" fill="#3e01a4"/>
      <circle id="Ellipse_135" data-name="Ellipse 135" cx="0.607" cy="0.607" r="0.607" transform="translate(5.585 6.799)" fill="#3e01a4"/>
      <circle id="Ellipse_136" data-name="Ellipse 136" cx="0.607" cy="0.607" r="0.607" transform="translate(8.256 6.799)" fill="#3e01a4"/>
      <circle id="Ellipse_137" data-name="Ellipse 137" cx="0.607" cy="0.607" r="0.607" transform="translate(2.914 9.227)" fill="#3e01a4"/>
      <circle id="Ellipse_138" data-name="Ellipse 138" cx="0.607" cy="0.607" r="0.607" transform="translate(5.585 9.227)" fill="#3e01a4"/>
      <circle id="Ellipse_139" data-name="Ellipse 139" cx="0.607" cy="0.607" r="0.607" transform="translate(8.256 9.227)" fill="#3e01a4"/>
    </g>
  </g>
</svg>
