<svg xmlns="http://www.w3.org/2000/svg" width="20" height="20" viewBox="0 0 20 20">
  <g id="chat-fill" transform="translate(0 0)">
    <path id="Path_115671" data-name="Path 115671" d="M135.826,129.543a.683.683,0,0,1,.475.192,3.167,3.167,0,0,0,3.124.736,6.052,6.052,0,0,1-.252-4.637,7.964,7.964,0,0,0,.075-5.74,7.362,7.362,0,0,0-3.586-3.884,8.825,8.825,0,0,1-9.834,10.363,7.494,7.494,0,0,0,6.377,3.762,7.39,7.39,0,0,0,3.328-.724A.681.681,0,0,1,135.826,129.543Z" transform="translate(-119.748 -110.611)" fill="#bf2025"/>
    <path id="Path_115672" data-name="Path 115672" d="M7.611,0A7.476,7.476,0,0,0,0,7.428,7.387,7.387,0,0,0,.588,10.35c.006.013.011.027.016.041a6.052,6.052,0,0,1-.252,4.637,3.167,3.167,0,0,0,3.124-.736.683.683,0,0,1,.769-.125,7.381,7.381,0,0,0,3.328.724,7.393,7.393,0,0,0,7.345-7.445A7.49,7.49,0,0,0,7.611,0ZM3.48,8.558A1.078,1.078,0,1,1,4.559,7.48,1.079,1.079,0,0,1,3.48,8.558Zm3.978,0A1.078,1.078,0,1,1,8.538,7.48,1.079,1.079,0,0,1,7.458,8.558Zm3.978,0a1.078,1.078,0,1,1,1.08-1.078A1.079,1.079,0,0,1,11.436,8.558Z" transform="translate(0 0)" fill="#bf2025"/>
  </g>
</svg>
