<svg xmlns="http://www.w3.org/2000/svg" width="30.37" height="26.551" viewBox="0 0 30.37 26.551">
  <g id="chat" transform="translate(0 -38.487)">
    <g id="Group_131025" data-name="Group 131025" transform="translate(0 38.487)">
      <path id="Path_187527" data-name="Path 187527" d="M129.935,49.042c0-5.82-5.646-10.555-12.586-10.555s-12.586,4.735-12.586,10.555S110.409,59.6,117.349,59.6a15.2,15.2,0,0,0,1.745-.1c2.673,1.7,4.646,2.627,5.869,2.763a1.186,1.186,0,0,0,.127.007,1.165,1.165,0,0,0,1.015-1.738,6.044,6.044,0,0,1-.682-3.385A9.914,9.914,0,0,0,129.935,49.042Zm-16,1.594a1.864,1.864,0,1,1,1.864-1.864A1.864,1.864,0,0,1,113.931,50.636Zm6.836,0a1.864,1.864,0,1,1,1.864-1.864A1.864,1.864,0,0,1,120.767,50.636Z" transform="translate(-99.564 -38.487)" fill="#f3ae33"/>
      <path id="Path_187528" data-name="Path 187528" d="M7.858,173.49a11.437,11.437,0,0,1-2.925-3.6,9.8,9.8,0,0,1,0-9.02c.056-.109.114-.217.174-.324A9.435,9.435,0,0,0,0,168.594a9.205,9.205,0,0,0,4.43,7.636,6.565,6.565,0,0,1-.7,4.232.389.389,0,0,0,.338.58l.043,0c1.409-.157,3.891-1.589,5.772-2.8a14.365,14.365,0,0,0,1.926.129,13.505,13.505,0,0,0,6.663-1.71c-.424.034-.851.052-1.277.052A14.62,14.62,0,0,1,7.858,173.49Z" transform="translate(0 -154.491)" fill="#f3ae33"/>
    </g>
  </g>
</svg>
