<svg xmlns="http://www.w3.org/2000/svg" width="31.773" height="33.139" viewBox="0 0 31.773 33.139">
  <path id="Circulars" d="M35.486,22.77a.535.535,0,0,1,.535-.535h4.132a.535.535,0,1,1,0,1.069H36.02A.535.535,0,0,1,35.486,22.77Zm.535-3.064h4.132a.535.535,0,1,0,0-1.069H36.02a.535.535,0,0,0,0,1.069Zm3.271,6.129H22.116a.535.535,0,1,0,0,1.069H39.291a.535.535,0,1,0,0-1.069Zm-3.078,7.732a.535.535,0,0,0-.535-.535H22.116a.535.535,0,0,0,0,1.069H35.678A.534.534,0,0,0,36.213,33.567Zm1.466-4.133H22.116a.535.535,0,0,0,0,1.069H37.679a.535.535,0,1,0,0-1.069ZM36.02,16.107h4.132a.535.535,0,1,0,0-1.069H36.02a.535.535,0,0,0,0,1.069ZM21.747,18.384a.534.534,0,0,1-.342-.5v-1.54a.535.535,0,0,1,.342-.5l.688-.265a5.378,5.378,0,0,1,.436-1.053l-.3-.675a.535.535,0,0,1,.111-.595l1.089-1.089a.534.534,0,0,1,.595-.111l.675.3a5.377,5.377,0,0,1,1.052-.436l.265-.688a.534.534,0,0,1,.5-.342H28.4a.535.535,0,0,1,.5.342l.265.688a5.372,5.372,0,0,1,1.053.436l.675-.3a.535.535,0,0,1,.595.111l1.089,1.089a.535.535,0,0,1,.111.595l-.3.674a5.375,5.375,0,0,1,.436,1.053l.688.265a.534.534,0,0,1,.342.5v1.539a.535.535,0,0,1-.342.5l-.689.265a5.375,5.375,0,0,1-.436,1.052l.3.675a.535.535,0,0,1-.111.595l-1.089,1.089a.535.535,0,0,1-.595.111l-.674-.3a5.381,5.381,0,0,1-1.053.436l-.265.688a.534.534,0,0,1-.5.342h-1.54a.535.535,0,0,1-.5-.342l-.265-.688a5.37,5.37,0,0,1-1.052-.436l-.675.3a.534.534,0,0,1-.595-.111L22.683,20.97a.535.535,0,0,1-.111-.595l.3-.674a5.377,5.377,0,0,1-.436-1.053Zm.727-.866.6.231a.534.534,0,0,1,.328.375,4.313,4.313,0,0,0,.525,1.265.535.535,0,0,1,.033.5l-.261.588.57.57.588-.261a.534.534,0,0,1,.5.033,4.312,4.312,0,0,0,1.265.524.534.534,0,0,1,.375.328l.231.6h.806l.231-.6a.534.534,0,0,1,.375-.328,4.311,4.311,0,0,0,1.265-.524.534.534,0,0,1,.5-.033l.588.261.57-.57-.261-.588a.535.535,0,0,1,.033-.5,4.313,4.313,0,0,0,.524-1.265.534.534,0,0,1,.328-.375l.6-.231v-.806l-.6-.231a.534.534,0,0,1-.328-.375,4.312,4.312,0,0,0-.525-1.265.535.535,0,0,1-.033-.5l.261-.588-.57-.57-.588.261a.534.534,0,0,1-.5-.033,4.312,4.312,0,0,0-1.265-.524.534.534,0,0,1-.375-.328l-.231-.6h-.806l-.231.6a.535.535,0,0,1-.375.328,4.312,4.312,0,0,0-1.265.524.535.535,0,0,1-.5.033l-.588-.261-.57.57.261.588a.535.535,0,0,1-.033.5,4.316,4.316,0,0,0-.525,1.265.534.534,0,0,1-.328.375l-.6.231Zm1.934-.4a3.219,3.219,0,1,1,3.219,3.219,3.223,3.223,0,0,1-3.219-3.219Zm1.069,0a2.15,2.15,0,1,0,2.15-2.15A2.153,2.153,0,0,0,25.477,17.115Zm24.315,6.768-2.6,4.511a.534.534,0,1,1-.926-.535l2.6-4.511a.494.494,0,0,0-.153-.657l-3.119,5.4a.532.532,0,0,1-.608.247l-.944,1.635v9.982a1.182,1.182,0,0,1-1.181,1.181H19.409a1.182,1.182,0,0,1-1.181-1.181V9.181A1.182,1.182,0,0,1,19.409,8h19.82a1.158,1.158,0,0,1,.835.346l3.63,3.63a1.158,1.158,0,0,1,.346.835v8.805l.97-1.681a.534.534,0,0,1,.73-.2l.254.147.371-.642a1.133,1.133,0,0,1,1.545-.414l.489.282a1.133,1.133,0,0,1,.414,1.545l-.371.642.777.448A1.564,1.564,0,0,1,49.792,23.883Zm-2.87-3.462.6.344.371-.642a.064.064,0,0,0-.023-.085l-.488-.282a.064.064,0,0,0-.085.023Zm-6.89-10.6v2.184h2.184Zm2.94,22-2.187,3.787a.535.535,0,0,1-.222.21l-2.08,1.05-.322.558,0,0a.534.534,0,0,1-.672.219c-1.849-.8-2.521-.366-3.232.092a2.844,2.844,0,0,1-1.6.592q-.087,0-.179-.007a4,4,0,0,1-2.135-.767c-.656-.435-1.175-.779-3.789.106a.535.535,0,1,1-.343-1.013c2.895-.979,3.749-.63,4.723.016a2.957,2.957,0,0,0,1.627.592,1.72,1.72,0,0,0,1.119-.417,3.614,3.614,0,0,1,3.792-.353l.106-.183-.129-2.289a.533.533,0,0,1,.071-.3l4.2-7.275a.534.534,0,0,1-.091-.65l1.348-2.334V13.078H39.821a.859.859,0,0,1-.858-.858V9.069H19.409a.114.114,0,0,0-.112.112V39.958a.114.114,0,0,0,.112.112H42.86a.114.114,0,0,0,.112-.112Zm-3.033,3.115,4.112-7.122L42.632,27,38.52,34.123l.084,1.493Zm7.849-12.787L45.67,20.933l-2.853,4.941L44.935,27.1Z" transform="translate(-18.228 -8)" fill="#bf2025"/>
</svg>
