<svg xmlns="http://www.w3.org/2000/svg" width="31" height="31" viewBox="0 0 31 31">
  <g id="Circulars" transform="translate(0 -0.039)">
    <path id="Path_194077" data-name="Path 194077" d="M211.039,97.194a1.586,1.586,0,0,0-2.906-.381l-.264.46a.528.528,0,0,0-.719.19l-1.342,2.288-.46-.264a.528.528,0,1,0-.528.914l.46.264-4.491,7.783-1.11,2.964-.528.988a1.585,1.585,0,0,0,.085,1.712l-1.189,1.458-.333-.835a1.057,1.057,0,0,0-1.886-.148l-.19.322-.18-2.113a1.057,1.057,0,0,0-2.055-.248l-1.3,3.9a.528.528,0,0,0,.333.666.458.458,0,0,0,.164.042.528.528,0,0,0,.5-.359l1.294-3.9.185,2.145a1.057,1.057,0,0,0,1.96.455l.2-.322.328.83a1.057,1.057,0,0,0,1.807.269l1.231-1.559a1.627,1.627,0,0,0,.417.053,1.585,1.585,0,0,0,1.379-.782l.528-.882,2.013-2.446,4.539-7.878.46.264a.53.53,0,0,1,.2.724l-2.113,3.662a.525.525,0,1,0,.893.55l2.113-3.662a1.585,1.585,0,0,0-.581-2.166l-.46-.264,1.321-2.288a.529.529,0,0,0-.19-.718l.264-.46a1.585,1.585,0,0,0,.158-1.226Zm-1.992.148a.528.528,0,0,1,.322-.248.555.555,0,0,1,.4.053.529.529,0,0,1,.248.322.555.555,0,0,1-.053.4l-.264.46-.919-.528Zm-7.2,14.752-.264-.153-.782-.455.75-2.008,1.664.962Zm-1.585,1.527a.528.528,0,0,1-.158-.692l.264-.459.919.528-.264.454a.528.528,0,0,1-.761.169Zm3.556-4.047-1.828-1.057,4.227-7.323,1.828,1.057Zm4.755-8.237-1.828-1.057,1.057-1.828,1.828,1.057Zm0,0" transform="translate(-180.098 -90.343)" fill="#bf2025"/>
    <path id="Path_194078" data-name="Path 194078" d="M71.2,356.724l-1.87,1.865-1.12-1.12a.529.529,0,1,0-.745.75l1.12,1.12a1.065,1.065,0,0,0,1.5,0l1.865-1.87a.528.528,0,0,0-.745-.745Zm0,0" transform="translate(-62.867 -333.585)" fill="#bf2025"/>
    <path id="Path_194079" data-name="Path 194079" d="M32,316.532a4.491,4.491,0,0,0,8.982,0,.528.528,0,1,0-1.057,0,3.435,3.435,0,1,1-1.374-2.747.528.528,0,0,0,.634-.845A4.491,4.491,0,0,0,32,316.532Zm0,0" transform="translate(-29.887 -292.098)" fill="#bf2025"/>
    <path id="Path_194080" data-name="Path 194080" d="M86.266,49.1a.528.528,0,0,0,0-1.057H72.528a.528.528,0,0,0-.528.528v2.113a.528.528,0,0,0,.528.528H86.266a.528.528,0,0,0,0-1.057H73.057V49.1Zm0,0" transform="translate(-67.245 -44.83)"/>
    <path id="Path_194081" data-name="Path 194081" d="M96.528,112.039a.528.528,0,0,0,0,1.057H107.1a.528.528,0,0,0,0-1.057Zm0,0" transform="translate(-89.883 -104.772)"/>
    <path id="Path_194082" data-name="Path 194082" d="M140.152,168.039H128.528a.528.528,0,0,0,0,1.057h11.624a.528.528,0,1,0,0-1.057Zm0,0" transform="translate(-119.86 -157.158)"/>
    <path id="Path_194083" data-name="Path 194083" d="M67.624,216.567a.528.528,0,0,0-.528-.528H56.528a.528.528,0,1,0,0,1.057H67.1A.528.528,0,0,0,67.624,216.567Zm0,0" transform="translate(-52.301 -202.061)"/>
    <path id="Path_194084" data-name="Path 194084" d="M252.227,216.039h-3.7a.528.528,0,0,0,0,1.057h3.7a.528.528,0,0,0,0-1.057Zm0,0" transform="translate(-232.05 -202.061)"/>
    <path id="Path_194085" data-name="Path 194085" d="M61.812,257.1a.528.528,0,1,0,0-1.057H56.528a.528.528,0,1,0,0,1.057Zm0,0" transform="translate(-52.301 -239.48)"/>
    <path id="Path_194086" data-name="Path 194086" d="M168.528,257.1h3.7a.528.528,0,0,0,0-1.057h-3.7a.528.528,0,0,0,0,1.057Zm0,0" transform="translate(-157.195 -239.48)"/>
    <path id="Path_194087" data-name="Path 194087" d="M23.085,23.806a.515.515,0,0,0-.513.517v5.167a.515.515,0,0,1-.513.517H1.539a.515.515,0,0,1-.513-.517V1.589a.515.515,0,0,1,.513-.517h20.52a.515.515,0,0,1,.513.517v9.7a.513.513,0,1,0,1.026,0v-9.7A1.545,1.545,0,0,0,22.059.039H1.539A1.545,1.545,0,0,0,0,1.589v27.9a1.544,1.544,0,0,0,1.539,1.55h20.52a1.544,1.544,0,0,0,1.539-1.55V24.322A.515.515,0,0,0,23.085,23.806Zm0,0" fill="#060709"/>
  </g>
</svg>
