<svg id="clock" xmlns="http://www.w3.org/2000/svg" width="13.129" height="13.129" viewBox="0 0 13.129 13.129">
  <g id="Group_1243" data-name="Group 1243" transform="translate(6.056 3.046)">
    <g id="Group_1242" data-name="Group 1242">
      <path id="Path_115759" data-name="Path 115759" d="M239.017,123.457l-1.831-1.373v-2.8a.508.508,0,0,0-1.017,0v3.051a.507.507,0,0,0,.2.407l2.034,1.525a.509.509,0,0,0,.61-.814Z" transform="translate(-236.169 -118.779)" fill="#fd5308"/>
    </g>
  </g>
  <g id="Group_1245" data-name="Group 1245">
    <g id="Group_1244" data-name="Group 1244">
      <path id="Path_115760" data-name="Path 115760" d="M6.564,0a6.564,6.564,0,1,0,6.564,6.564A6.572,6.572,0,0,0,6.564,0Zm0,12.112a5.547,5.547,0,1,1,5.547-5.547A5.554,5.554,0,0,1,6.564,12.112Z" fill="#fd5308"/>
    </g>
  </g>
</svg>
