<svg xmlns="http://www.w3.org/2000/svg" width="34.166" height="34.755" viewBox="0 0 34.166 34.755">
  <path id="Commmittees" d="M45.727,29.7l-.313-.291a3.684,3.684,0,0,1-.639-.666,3.686,3.686,0,0,1-.257-.886c-.028-.124-.06-.262-.1-.417a2,2,0,0,0-1.849-1.551l-.427-.022a3.686,3.686,0,0,1-.918-.1,3.685,3.685,0,0,1-.767-.514L40.12,25a2,2,0,0,0-2.413,0l-.341.257a3.686,3.686,0,0,1-.767.514,1.193,1.193,0,0,1-.268.056,14.463,14.463,0,0,0-6.407-3.336,7.618,7.618,0,1,0-6.572,0A14.525,14.525,0,0,0,12.2,35.072a.561.561,0,0,0,.557.62H32.286a2,2,0,0,0,1.056,1.048l.394.167.167.071L32.34,40.333a.69.69,0,0,0,.744.971l1.576-.275.8,1.384a.688.688,0,0,0,.6.343h.032a.688.688,0,0,0,.594-.4l1.537-3.3a2.668,2.668,0,0,1,.689-.157,2.669,2.669,0,0,1,.689.157l1.537,3.3a.688.688,0,0,0,.594.4h.032a.688.688,0,0,0,.6-.343l.8-1.384,1.576.275a.69.69,0,0,0,.744-.971l-1.562-3.355.167-.071.394-.167a2,2,0,0,0,1.207-2.09c-.019-.158-.037-.3-.052-.424a3.684,3.684,0,0,1-.062-.921,3.687,3.687,0,0,1,.373-.844c.058-.113.123-.239.194-.381a2,2,0,0,0-.419-2.377ZM31.682,32.08c.072.142.136.268.194.381a3.685,3.685,0,0,1,.373.844,3.688,3.688,0,0,1-.062.921q-.02.157-.043.345H27.9l1.414-1.563a.561.561,0,0,0,.133-.489l-.72-3.493.14.166a.56.56,0,0,0,.428.2l.053,0a.561.561,0,0,0,.436-.284l2.575-4.588a13.36,13.36,0,0,1,2.4,1.463,2,2,0,0,0-1.356,1.463c-.036.155-.068.293-.1.417a3.684,3.684,0,0,1-.257.886,3.687,3.687,0,0,1-.639.666L32.1,29.7a2,2,0,0,0-.419,2.377Zm-7.609-4.229-2.119-3.777q.589-.219,1.2-.383l2.676,2.073Zm1.991-.622.574-.681.574.681,1.08,5.238L26.638,34.3l-1.655-1.829Zm1.38-1.465,2.673-2.07q.611.164,1.2.385L29.2,27.851Zm-7.3-10.146a6.5,6.5,0,1,1,6.5,6.5h-.006A6.5,6.5,0,0,1,20.141,15.618Zm6.5,7.618h0a13.475,13.475,0,0,1,2.035.155L26.638,24.97,24.6,23.39a13.568,13.568,0,0,1,2.036-.154h0Zm-5.725,1.275,2.578,4.594a.561.561,0,0,0,.436.284l.053,0a.561.561,0,0,0,.428-.2l.14-.166-.72,3.493a.561.561,0,0,0,.133.489l1.414,1.563H13.4a13.351,13.351,0,0,1,7.515-10.06ZM36.02,41.135l-.585-1.007a.561.561,0,0,0-.581-.271l-1.147.2,1.126-2.419c.076.11.164.247.276.421l.233.359a2,2,0,0,0,1.522.906Zm6.955-1.278a.56.56,0,0,0-.581.271l-.585,1.007-.842-1.81a2,2,0,0,0,1.521-.907c.087-.133.164-.252.233-.359.112-.174.2-.311.276-.421l1.126,2.419Zm2.171-8.282c-.071.14-.134.264-.191.375a2.916,2.916,0,0,0-.426,2.416c.016.124.033.262.052.418a.875.875,0,0,1-.535.926l-.388.164a2.916,2.916,0,0,0-1.879,1.577c-.068.105-.143.222-.229.353a.875.875,0,0,1-1.005.366l-.4-.123a4.292,4.292,0,0,0-1.227-.271,4.294,4.294,0,0,0-1.227.271l-.4.123a.876.876,0,0,1-1.005-.366c-.086-.131-.161-.248-.229-.353a2.916,2.916,0,0,0-1.879-1.577l-.388-.164a.875.875,0,0,1-.535-.926c.019-.155.036-.294.052-.418a2.915,2.915,0,0,0-.426-2.416c-.057-.111-.121-.235-.191-.375a.875.875,0,0,1,.186-1.053l.308-.287A2.915,2.915,0,0,0,34.4,28.109c.028-.122.059-.258.095-.41a.875.875,0,0,1,.819-.688l.421-.022a2.916,2.916,0,0,0,2.306-.839l.336-.254a.875.875,0,0,1,1.07,0l.336.254a2.916,2.916,0,0,0,2.305.839l.421.022a.875.875,0,0,1,.819.688c.036.152.067.288.095.41a2.916,2.916,0,0,0,1.227,2.125l.308.287a.876.876,0,0,1,.186,1.054Zm-6.232-3.809a4.2,4.2,0,1,0,4.2,4.2A4.2,4.2,0,0,0,38.914,27.765Zm0,7.273a3.076,3.076,0,1,1,3.076-3.076A3.079,3.079,0,0,1,38.914,35.038Z" transform="translate(-12.199 -8)" fill="#56ca6a"/>
</svg>
