<svg xmlns="http://www.w3.org/2000/svg" width="30.041" height="30" viewBox="0 0 30.041 30">
  <g id="Committees" transform="translate(0 -1.04)">
    <g id="Group_158463" data-name="Group 158463" transform="translate(13.282 23.173)">
      <g id="Group_158462" data-name="Group 158462">
        <path id="Path_194101" data-name="Path 194101" d="M227.249,377.309a.508.508,0,0,0-.71.109l-.063.085a.508.508,0,0,0,.818.6l.064-.087A.508.508,0,0,0,227.249,377.309Z" transform="translate(-226.377 -377.21)"/>
      </g>
    </g>
    <g id="Group_158465" data-name="Group 158465" transform="translate(11.871 23.278)">
      <g id="Group_158464" data-name="Group 158464">
        <path id="Path_194102" data-name="Path 194102" d="M204.733,383.513l-1.306-2.375,1.22-1.661a.508.508,0,1,0-.819-.6l-1.412,1.922a.508.508,0,0,0-.036.545L203.843,384h0a.508.508,0,1,0,.89-.49Z" transform="translate(-202.318 -378.668)" fill="#e2d7d7"/>
      </g>
    </g>
    <g id="Group_158467" data-name="Group 158467" transform="translate(15.7 23.286)">
      <g id="Group_158466" data-name="Group 158466">
        <path id="Path_194103" data-name="Path 194103" d="M269.962,380.926l-1.406-1.915a.508.508,0,0,0-.819.6l1.214,1.653-1.3,2.359a.508.508,0,1,0,.89.49L270,381.472A.508.508,0,0,0,269.962,380.926Z" transform="translate(-267.591 -378.804)" fill="#e2d7d7"/>
      </g>
    </g>
    <g id="Group_158469" data-name="Group 158469" transform="translate(10.893 17.34)">
      <g id="Group_158468" data-name="Group 158468">
        <path id="Path_194104" data-name="Path 194104" d="M193.635,278a.508.508,0,0,0-.524.031,8.1,8.1,0,0,0-.833.655,3.581,3.581,0,0,1-2.716,1.061.5.5,0,0,0-.093-.006,5.155,5.155,0,0,1-2.545-1.289c-.158-.124-.319-.242-.481-.351a.508.508,0,0,0-.792.421v1.742a.508.508,0,0,0,.19.4.492.492,0,0,0,.044.032l3.6,2.407h0l.01.006a.508.508,0,0,0,.567,0l.005,0,.006,0,3.593-2.4c.014-.009.029-.019.042-.03a.508.508,0,0,0,.2-.4v-1.816A.508.508,0,0,0,193.635,278Zm-.744,1.994-3.112,2.079-3.112-2.079v-.462a5.555,5.555,0,0,0,2.781,1.226h.006a4.615,4.615,0,0,0,3.437-1.257v.493Z" transform="translate(-185.651 -277.939)" fill="#060709"/>
      </g>
    </g>
    <g id="Group_158471" data-name="Group 158471" transform="translate(13.345 21.582)">
      <g id="Group_158470" data-name="Group 158470">
        <path id="Path_194105" data-name="Path 194105" d="M229.623,350.535a.508.508,0,0,0-.91-.217l-1.167,1.59a.508.508,0,1,0,.819.6l1.161-1.582a.507.507,0,0,0,.1-.309A.518.518,0,0,0,229.623,350.535Z" transform="translate(-227.446 -350.11)"/>
      </g>
    </g>
    <g id="Group_158473" data-name="Group 158473" transform="translate(7.301 1.04)">
      <g id="Group_158472" data-name="Group 158472" transform="translate(0 0)">
        <path id="Path_194106" data-name="Path 194106" d="M139.892,5.572A3.26,3.26,0,0,0,138.027,3.1a1.746,1.746,0,0,0-.149-1.066,1.993,1.993,0,0,0-1.509-.982.506.506,0,0,0-.1-.009h-6.817a5.026,5.026,0,0,0-5.02,5.02V8.735a3.065,3.065,0,0,0,.669,1.914,2.472,2.472,0,0,1,.517,1.434.508.508,0,0,0,1.015-.029V8.567a2.234,2.234,0,0,1,1.724-1.741h2.205a2.48,2.48,0,0,0,.758-.118c.419-.134,1.084-.382,1.569-.566a1.472,1.472,0,0,1,1.01-.013l2.361.829a2.159,2.159,0,0,1,1.417,1.634v4.186a.508.508,0,0,0,.47.506h.038a.508.508,0,0,0,.5-.433,7.178,7.178,0,0,1,.859-2.372,2.276,2.276,0,0,0,.348-1.2V5.636A.51.51,0,0,0,139.892,5.572Zm-1.012,3.7a1.259,1.259,0,0,1-.185.652V8.557a.507.507,0,0,0,0-.055A3.166,3.166,0,0,0,136.609,6L136.6,6l-2.364-.83a2.489,2.489,0,0,0-1.707.022c-.678.258-1.2.447-1.518.548a1.466,1.466,0,0,1-.448.069h-2.246a.517.517,0,0,0-.065,0A3.233,3.233,0,0,0,125.631,8.4a.508.508,0,0,0-.012.111V9.554a2.064,2.064,0,0,1-.169-.819V6.06a4.009,4.009,0,0,1,4-4h6.766a1.085,1.085,0,0,1,.75.431.985.985,0,0,1-.022.725.508.508,0,0,0,.341.71,2.178,2.178,0,0,1,1.591,1.752v3.6Z" transform="translate(-124.434 -1.04)" fill="#060709"/>
      </g>
    </g>
    <g id="Group_158475" data-name="Group 158475" transform="translate(8.486 5.03)">
      <g id="Group_158474" data-name="Group 158474">
        <path id="Path_194107" data-name="Path 194107" d="M157.7,72.518a3.166,3.166,0,0,0-2.083-2.5l-.007,0-2.364-.83a2.491,2.491,0,0,0-1.707.022c-.678.258-1.2.447-1.518.548a1.466,1.466,0,0,1-.448.069h-2.246a.517.517,0,0,0-.065,0,3.233,3.233,0,0,0-2.622,2.584.508.508,0,0,0-.012.111V76.89s0,.008,0,.011c0,.152.111,3.734,2.586,5.372l.013.009.032.022c.141.1.283.2.421.308a6.265,6.265,0,0,0,3.152,1.506h.006a2.813,2.813,0,0,0,.3.015,4.8,4.8,0,0,0,3.2-1.333,7.081,7.081,0,0,1,.728-.572l.038-.027.038-.026c.826-.554,2.255-1.985,2.556-5.337,0-.015,0-.03,0-.045v-4.22A.537.537,0,0,0,157.7,72.518Zm-1.013,4.252c-.277,3.025-1.566,4.2-2.108,4.562l-.057.04-.028.02a8.092,8.092,0,0,0-.833.655,3.582,3.582,0,0,1-2.72,1.061.51.51,0,0,0-.089-.005,5.155,5.155,0,0,1-2.545-1.289c-.158-.124-.319-.242-.48-.35l-.012-.009-.039-.027c-2-1.322-2.128-4.415-2.132-4.544v-4.3a2.234,2.234,0,0,1,1.723-1.741h2.206a2.48,2.48,0,0,0,.758-.118c.419-.134,1.085-.382,1.569-.566a1.472,1.472,0,0,1,1.01-.013l2.361.829a2.159,2.159,0,0,1,1.417,1.634V76.77Z" transform="translate(-144.628 -69.046)" fill="#060709"/>
      </g>
    </g>
    <g id="Group_158477" data-name="Group 158477" transform="translate(13.296 21.582)">
      <g id="Group_158476" data-name="Group 158476">
        <path id="Path_194108" data-name="Path 194108" d="M228.785,350.394a.508.508,0,0,0-.864-.073l-1.217,1.657a.508.508,0,0,0,.818.6l1.217-1.651a.526.526,0,0,0,.1-.307A.509.509,0,0,0,228.785,350.394Z" transform="translate(-226.606 -350.113)"/>
      </g>
    </g>
    <g id="Group_158479" data-name="Group 158479" transform="translate(14.516 29.904)">
      <g id="Group_158478" data-name="Group 158478">
        <path id="Path_194109" data-name="Path 194109" d="M248.4,491.759a.508.508,0,0,0-.71-.024l-.116.106a.508.508,0,0,0-.1.622l0,.006a.508.508,0,0,0,.374.255.514.514,0,0,0,.07,0,.508.508,0,0,0,.359-.149l.112-.113A.508.508,0,0,0,248.4,491.759Z" transform="translate(-247.406 -491.602)"/>
      </g>
    </g>
    <g id="Group_158481" data-name="Group 158481" transform="translate(14.393 29.904)">
      <g id="Group_158480" data-name="Group 158480">
        <path id="Path_194110" data-name="Path 194110" d="M246.268,491.842l-.116-.106a.508.508,0,0,0-.7.734l.113.113a.508.508,0,0,0,.8-.115l0-.006A.508.508,0,0,0,246.268,491.842Z" transform="translate(-245.301 -491.603)"/>
      </g>
    </g>
    <g id="Group_158483" data-name="Group 158483" transform="translate(14.507 30.014)">
      <g id="Group_158482" data-name="Group 158482">
        <path id="Path_194111" data-name="Path 194111" d="M248.113,493.609h0a.508.508,0,0,0-.693,0h0a.508.508,0,0,0-.016.735l.005.005a.508.508,0,0,0,.717,0l.005-.005a.508.508,0,0,0-.017-.735Z" transform="translate(-247.252 -493.472)"/>
      </g>
    </g>
    <g id="Group_158485" data-name="Group 158485" transform="translate(14.522 21.571)">
      <g id="Group_158484" data-name="Group 158484">
        <path id="Path_194112" data-name="Path 194112" d="M248.174,350a.508.508,0,1,0,.354.484h0A.507.507,0,0,0,248.174,350Z" transform="translate(-247.512 -349.981)"/>
      </g>
    </g>
    <g id="Group_158487" data-name="Group 158487" transform="translate(14.512 21.57)">
      <g id="Group_158486" data-name="Group 158486">
        <path id="Path_194113" data-name="Path 194113" d="M248.264,350.172l0-.006a.508.508,0,0,0-.916.3v.009a.509.509,0,0,0,.509.506.514.514,0,0,0,.284-.085.508.508,0,0,0,.128-.725Z" transform="translate(-247.343 -349.961)"/>
      </g>
    </g>
    <g id="Group_158489" data-name="Group 158489" transform="translate(14.513 19.166)">
      <g id="Group_158488" data-name="Group 158488">
        <path id="Path_194114" data-name="Path 194114" d="M253.894,309.913a.508.508,0,0,0-.3-.3l-1.947-.7-.048-.015a.508.508,0,0,0-.405.07l-3.608,2.411,0,0,.283.421-.29-.417a.508.508,0,0,0-.129.724l2.642,3.6a.508.508,0,0,0,.409.207h.033a.508.508,0,0,0,.412-.262l2.925-5.319A.508.508,0,0,0,253.894,309.913Zm-3.462,4.557-1.857-2.529,2.966-1.982,1.146.411Z" transform="translate(-247.344 -308.887)" fill="#bf2025"/>
      </g>
    </g>
    <g id="Group_158491" data-name="Group 158491" transform="translate(8.945 19.167)">
      <g id="Group_158490" data-name="Group 158490">
        <path id="Path_194115" data-name="Path 194115" d="M159.037,311.728a.508.508,0,0,0-.217-.334l-3.62-2.419a.508.508,0,0,0-.393-.073.5.5,0,0,0-.061.018l-1.947.7a.508.508,0,0,0-.274.723l2.925,5.319a.508.508,0,0,0,.412.262h.033a.508.508,0,0,0,.409-.207l1.412-1.922,0,0,1.227-1.671A.508.508,0,0,0,159.037,311.728Zm-2.14,1.462,0,0-.937,1.276-2.255-4.1,1.146-.411,2.965,1.982Z" transform="translate(-152.461 -308.889)" fill="#bf2025"/>
      </g>
    </g>
    <g id="Group_158493" data-name="Group 158493" transform="translate(14.52 19.882)">
      <g id="Group_158492" data-name="Group 158492">
        <path id="Path_194116" data-name="Path 194116" d="M262.962,329.786l-.655-3.957a3.5,3.5,0,0,0-2.262-2.718l-6.339-2.293a.508.508,0,0,0-.627.7l1.323,2.654-1.3.02a.508.508,0,0,0-.442.744l.533,1.017-5.451,4.987-.016.016-.113.113a.508.508,0,0,0-.086.6l0,.007a.508.508,0,0,0,.446.264h13.153a1.856,1.856,0,0,0,1.831-2.159Zm-1.19.847a.839.839,0,0,1-.641.3H249.263l4.906-4.488a.508.508,0,0,0,.107-.61l-.331-.633,1.281-.02a.508.508,0,0,0,.447-.735l-1.117-2.24,5.145,1.861A2.486,2.486,0,0,1,261.3,326l.655,3.957h0A.839.839,0,0,1,261.772,330.633Z" transform="translate(-247.466 -320.787)" fill="#bf2025"/>
      </g>
    </g>
    <g id="Group_158495" data-name="Group 158495" transform="translate(14.512 30.019)">
      <g id="Group_158494" data-name="Group 158494">
        <path id="Path_194117" data-name="Path 194117" d="M248.2,493.692l-.006-.005a.508.508,0,0,0-.7.018l-.005.005a.508.508,0,0,0,.36.866h.011a.508.508,0,0,0,.341-.884Z" transform="translate(-247.343 -493.555)"/>
      </g>
    </g>
    <g id="Group_158497" data-name="Group 158497" transform="translate(14.505 30.01)">
      <g id="Group_158496" data-name="Group 158496">
        <path id="Path_194118" data-name="Path 194118" d="M248.071,493.543a.508.508,0,0,0-.785.133l0,.006a.508.508,0,0,0,.08.6l0,0a.508.508,0,0,0,.707.022l.005,0a.508.508,0,0,0,.112-.148A.514.514,0,0,0,248.071,493.543Z" transform="translate(-247.22 -493.413)"/>
      </g>
    </g>
    <g id="Group_158499" data-name="Group 158499" transform="translate(0 19.882)">
      <g id="Group_158498" data-name="Group 158498" transform="translate(0)">
        <path id="Path_194119" data-name="Path 194119" d="M15.378,331.077l0,0,0,0-.113-.113-.016-.016-5.451-4.987.533-1.017a.508.508,0,0,0-.442-.744l-1.3-.02,1.323-2.654a.508.508,0,0,0-.627-.7L2.942,323.11A3.5,3.5,0,0,0,.68,325.829l-.655,3.957a1.856,1.856,0,0,0,1.831,2.159H15.02a.508.508,0,0,0,.358-.868Zm-13.522-.148a.84.84,0,0,1-.829-.978l.655-3.957a2.485,2.485,0,0,1,1.6-1.929L8.432,322.2l-1.117,2.24a.508.508,0,0,0,.447.735l1.281.02-.331.633a.508.508,0,0,0,.107.61l4.906,4.488Z" transform="translate(0 -320.786)" fill="#bf2025"/>
      </g>
    </g>
    <g id="Group_158501" data-name="Group 158501" transform="translate(13.282 21.605)">
      <g id="Group_158500" data-name="Group 158500">
        <path id="Path_194120" data-name="Path 194120" d="M229.843,352.467a.508.508,0,0,0-.083-.424l-1.236-1.683a.508.508,0,0,0-.835.028l-1.213,1.646a.508.508,0,0,0-.008.592l.517.742-.55,3.47a.508.508,0,0,0,.057.324l1.179,2.144a.508.508,0,0,0,.89,0l1.188-2.16a.509.509,0,0,0,.063-.245h0a.517.517,0,0,0-.006-.08l-.548-3.454.511-.734A.514.514,0,0,0,229.843,352.467Zm-1.729,5.541-.65-1.182.555-3.5a.508.508,0,0,0-.085-.37l-.426-.611.607-.824.61.831-.421.6a.508.508,0,0,0-.085.37l.553,3.484Z" transform="translate(-226.376 -350.155)" fill="#bf2025"/>
      </g>
    </g>
  </g>
</svg>
