<svg xmlns="http://www.w3.org/2000/svg" width="30" height="30" viewBox="0 0 30 30">
  <g id="Compliance" transform="translate(-15.058 -16.969)">
    <g id="Group_158285" data-name="Group 158285" transform="translate(15.058 16.969)">
      <g id="Group_158263" data-name="Group 158263" transform="translate(1.545 0)">
        <g id="Group_158258" data-name="Group 158258" transform="translate(17.235 26.017)">
          <path id="Path_193907" data-name="Path 193907" d="M314.506,432.981a.473.473,0,1,1,0-.946,1.944,1.944,0,0,0,1.1-.336.473.473,0,1,1,.531.783A2.89,2.89,0,0,1,314.506,432.981Z" transform="translate(-314.033 -431.618)" fill="#f3ae33"/>
        </g>
        <g id="Group_158259" data-name="Group 158259" transform="translate(1.697)">
          <path id="Path_193908" data-name="Path 193908" d="M67.143,22.581a.473.473,0,0,1-.473-.473V18a1.036,1.036,0,0,1,1.035-1.035H84.551A1.036,1.036,0,0,1,85.586,18v3.447a.473.473,0,0,1-.946,0V18a.089.089,0,0,0-.089-.089H67.705a.089.089,0,0,0-.089.089v4.1A.473.473,0,0,1,67.143,22.581Z" transform="translate(-66.67 -16.969)" fill="#f3ae33"/>
        </g>
        <g id="Group_158260" data-name="Group 158260" transform="translate(1.697 18.765)">
          <path id="Path_193909" data-name="Path 193909" d="M67.143,320.089a.473.473,0,0,1-.473-.473v-3.055a.473.473,0,1,1,.946,0v3.055A.473.473,0,0,1,67.143,320.089Z" transform="translate(-66.67 -316.088)" fill="#f3ae33"/>
        </g>
        <g id="Group_158262" data-name="Group 158262" transform="translate(0 21.814)">
          <g id="Group_158261" data-name="Group 158261">
            <path id="Path_193910" data-name="Path 193910" d="M57.687,370.285H42.56a2.909,2.909,0,0,1-2.9-2.905v-2.188a.473.473,0,0,1,.473-.473H55.255a.473.473,0,0,1,.473.473v2.188a1.945,1.945,0,0,0,.575,1.384,1.965,1.965,0,0,0,1.384.575.473.473,0,0,1,0,.946ZM40.6,365.665v1.715a1.946,1.946,0,0,0,.575,1.384,1.966,1.966,0,0,0,1.384.575H55.545a2.883,2.883,0,0,1-.763-1.959v-1.715H40.6Z" transform="translate(-39.655 -364.719)" fill="#f3ae33"/>
          </g>
        </g>
      </g>
      <g id="Group_158271" data-name="Group 158271" transform="translate(15.306 3.876)">
        <g id="Group_158264" data-name="Group 158264" transform="translate(5.55 6.923)">
          <path id="Path_193911" data-name="Path 193911" d="M354.492,195.877h-2.648a.473.473,0,0,1-.473-.473v-5.876a.473.473,0,0,1,.151-.347.478.478,0,0,1,.357-.125,19.429,19.429,0,0,0,2.585.022.479.479,0,0,1,.352.128.473.473,0,0,1,.148.344V195.4A.473.473,0,0,1,354.492,195.877Zm-2.175-.946h1.7v-4.886c-.568.018-1.138.014-1.7-.014Z" transform="translate(-351.371 -189.055)" fill="#f3ae33"/>
        </g>
        <g id="Group_158265" data-name="Group 158265" transform="translate(4.387 14.781)">
          <path id="Path_193912" data-name="Path 193912" d="M337.7,323.8h-3.765a.473.473,0,0,1-.453-.336,15.334,15.334,0,0,1,0-8.658.473.473,0,0,1,.456-.347H337.7a.473.473,0,0,1,.454.34,15.133,15.133,0,0,1,0,8.661A.473.473,0,0,1,337.7,323.8Zm-3.41-.946h3.052a14.169,14.169,0,0,0,0-7.449H334.3A14.371,14.371,0,0,0,334.287,322.856Z" transform="translate(-332.854 -314.461)" fill="#f3ae33"/>
        </g>
        <g id="Group_158266" data-name="Group 158266" transform="translate(4.015 12.793)">
          <path id="Path_193913" data-name="Path 193913" d="M332.119,285.542h-3.711a1.474,1.474,0,0,1,0-2.948h3.711a1.474,1.474,0,1,1,0,2.948Zm-3.711-2a.528.528,0,0,0,0,1.056h3.711a.531.531,0,0,0,.534-.528.525.525,0,0,0-.534-.528Z" transform="translate(-326.934 -282.594)" fill="#f3ae33"/>
        </g>
        <g id="Group_158267" data-name="Group 158267" transform="translate(4.015 23.176)">
          <path id="Path_193914" data-name="Path 193914" d="M332.119,451.053h-3.711a1.474,1.474,0,0,1,0-2.948h3.711a1.474,1.474,0,1,1,0,2.948Zm-3.711-2a.528.528,0,0,0,0,1.056h3.711a.531.531,0,0,0,.534-.528.525.525,0,0,0-.534-.528Z" transform="translate(-326.934 -448.105)" fill="#f3ae33"/>
        </g>
        <g id="Group_158268" data-name="Group 158268" transform="translate(2.137 0.094)">
          <path id="Path_193915" data-name="Path 193915" d="M302.41,88.017c-.511,0-1.021-.019-1.526-.057a22.8,22.8,0,0,1-3.483-.528.473.473,0,0,1-.367-.461V81.208a.473.473,0,0,1,.366-.461,20.861,20.861,0,0,1,9.693,0,.473.473,0,0,1,.362.46v5.764a.473.473,0,0,1-.355.458,18.932,18.932,0,0,1-3.5.554C303.2,88.006,302.806,88.017,302.41,88.017Zm-4.431-1.426a21.593,21.593,0,0,0,2.973.425,19.5,19.5,0,0,0,2.588.022,17.993,17.993,0,0,0,2.968-.438V81.584a19.885,19.885,0,0,0-8.529,0v5.005Z" transform="translate(-297.033 -80.177)" fill="#f3ae33"/>
        </g>
        <g id="Group_158269" data-name="Group 158269" transform="translate(11.612)">
          <path id="Path_193916" data-name="Path 193916" d="M449.408,86.7a1.543,1.543,0,0,1-1.541-1.541V80.219a1.541,1.541,0,1,1,3.083,0v4.943A1.543,1.543,0,0,1,449.408,86.7Zm0-7.079a.6.6,0,0,0-.6.6v4.943a.6.6,0,0,0,1.191,0V80.219A.6.6,0,0,0,449.408,79.624Z" transform="translate(-447.867 -78.678)" fill="#f3ae33"/>
        </g>
        <g id="Group_158270" data-name="Group 158270">
          <path id="Path_193917" data-name="Path 193917" d="M264.559,86.7a1.543,1.543,0,0,1-1.541-1.541V80.219a1.541,1.541,0,1,1,3.083,0v4.943A1.543,1.543,0,0,1,264.559,86.7Zm0-7.079a.6.6,0,0,0-.6.6v4.943a.6.6,0,0,0,1.191,0V80.219A.6.6,0,0,0,264.559,79.624Z" transform="translate(-263.018 -78.678)" fill="#f3ae33"/>
        </g>
      </g>
      <g id="Group_158277" data-name="Group 158277" transform="translate(0 4.593)">
        <g id="Group_158272" data-name="Group 158272">
          <path id="Path_193918" data-name="Path 193918" d="M20.485,101.085a.935.935,0,0,1-.363-.076,2,2,0,0,1-.411-.259,1.225,1.225,0,0,0-.211-.141,1.181,1.181,0,0,0-.258.051,1.052,1.052,0,0,1-1.421-.591,1.186,1.186,0,0,0-.145-.216,1.359,1.359,0,0,0-.261-.051l-.07-.01a1.166,1.166,0,0,1-.7-.3,1.271,1.271,0,0,1-.307-.778,1.18,1.18,0,0,0-.052-.257,1.265,1.265,0,0,0-.211-.14,1.277,1.277,0,0,1-.606-.588,1.261,1.261,0,0,1,.015-.832,1.179,1.179,0,0,0,.05-.26,1.326,1.326,0,0,0-.14-.206,1.068,1.068,0,0,1,0-1.557,1.192,1.192,0,0,0,.141-.212,1.3,1.3,0,0,0-.052-.254,1.263,1.263,0,0,1-.013-.835,1.276,1.276,0,0,1,.607-.585,1.206,1.206,0,0,0,.216-.144,1.478,1.478,0,0,0,.047-.249,1.052,1.052,0,0,1,1.087-1.088,1.179,1.179,0,0,0,.257-.052,1.264,1.264,0,0,0,.14-.211,1.277,1.277,0,0,1,.587-.606,1.258,1.258,0,0,1,.832.015,1.159,1.159,0,0,0,.26.05,1.3,1.3,0,0,0,.206-.139,1.064,1.064,0,0,1,1.554,0,1.214,1.214,0,0,0,.209.14,1.194,1.194,0,0,0,.258-.051,1.049,1.049,0,0,1,1.417.59,1.212,1.212,0,0,0,.143.214,1.241,1.241,0,0,0,.256.052A1.052,1.052,0,0,1,24.629,92.6a1.169,1.169,0,0,0,.052.256,1.261,1.261,0,0,0,.214.142,1.047,1.047,0,0,1,.591,1.414,1.175,1.175,0,0,0-.05.262,1.217,1.217,0,0,0,.14.209,1.064,1.064,0,0,1,0,1.553,1.2,1.2,0,0,0-.14.21,1.221,1.221,0,0,0,.051.257,1.263,1.263,0,0,1,.014.834,1.279,1.279,0,0,1-.607.586,1.207,1.207,0,0,0-.216.145,1.338,1.338,0,0,0-.048.251,1.273,1.273,0,0,1-.307.779,1.172,1.172,0,0,1-.7.3l-.07.01a1.227,1.227,0,0,0-.265.054,1.383,1.383,0,0,0-.136.21,1.052,1.052,0,0,1-1.42.595,1.14,1.14,0,0,0-.262-.051,1.275,1.275,0,0,0-.209.141,2.009,2.009,0,0,1-.4.256.951.951,0,0,1-.37.079Zm-.99-1.423a.972.972,0,0,1,.19.018,1.446,1.446,0,0,1,.6.315,1.351,1.351,0,0,0,.212.143c.035-.024.115-.085.193-.143a1.446,1.446,0,0,1,.6-.316,1.517,1.517,0,0,1,.678.064,1.135,1.135,0,0,0,.253.05,1.868,1.868,0,0,1,.11-.2,1.5,1.5,0,0,1,.428-.521,1.527,1.527,0,0,1,.662-.205l.064-.009a.658.658,0,0,0,.183-.041,1.564,1.564,0,0,1,.024-.227,1.188,1.188,0,0,1,.723-1.082,1.62,1.62,0,0,0,.206-.133,1.7,1.7,0,0,0-.05-.232,1.511,1.511,0,0,1-.063-.68,1.47,1.47,0,0,1,.313-.6,1.14,1.14,0,0,0,.146-.222c-.011-.012-.092-.118-.145-.188a1.467,1.467,0,0,1-.315-.6,1.52,1.52,0,0,1,.063-.678,1.2,1.2,0,0,0,.05-.254,1.176,1.176,0,0,1-.2-.107,1.193,1.193,0,0,1-.725-1.083,1.187,1.187,0,0,0-.052-.254,1.548,1.548,0,0,1-.229-.025,1.513,1.513,0,0,1-.65-.2,1.489,1.489,0,0,1-.432-.521,1.174,1.174,0,0,0-.146-.217,1.366,1.366,0,0,1-.216.065,1.516,1.516,0,0,1-.681.064,1.452,1.452,0,0,1-.6-.313,1.169,1.169,0,0,0-.223-.147c-.011.012-.119.093-.19.147a1.452,1.452,0,0,1-.6.314A1.5,1.5,0,0,1,19,91.571a1.018,1.018,0,0,0-.253-.05,1.9,1.9,0,0,1-.112.2,1.191,1.191,0,0,1-1.083.722,1.181,1.181,0,0,0-.255.052,1.7,1.7,0,0,1-.025.231,1.182,1.182,0,0,1-.722,1.078,1.183,1.183,0,0,0-.219.148,1.753,1.753,0,0,1,.064.218,1.512,1.512,0,0,1,.063.681,1.473,1.473,0,0,1-.314.595A1.145,1.145,0,0,0,16,95.67l.147.195a1.469,1.469,0,0,1,.312.591,1.51,1.51,0,0,1-.063.682,1.185,1.185,0,0,0-.05.253,1.951,1.951,0,0,1,.2.112,1.192,1.192,0,0,1,.721,1.082,1.35,1.35,0,0,0,.049.25c0-.012.043,0,.157.018l.065.009a1.526,1.526,0,0,1,.659.2,1.5,1.5,0,0,1,.434.525,1.175,1.175,0,0,0,.145.217A1.758,1.758,0,0,1,19,99.743,1.932,1.932,0,0,1,19.5,99.662Zm5.14-2.306h0Z" transform="translate(-15.058 -90.23)" fill="#f3ae33"/>
        </g>
        <g id="Group_158275" data-name="Group 158275" transform="translate(0.358 8.619)">
          <g id="Group_158273" data-name="Group 158273" transform="translate(0 0)">
            <path id="Path_193919" data-name="Path 193919" d="M24.075,233.825a.672.672,0,0,1-.545-.274l-.689-.948-1.172.448a.683.683,0,0,1-.717-.14.634.634,0,0,1-.166-.668L22.3,227.76a.473.473,0,0,1,.516-.317l.064.009a1.526,1.526,0,0,1,.659.2,1.5,1.5,0,0,1,.434.525,1.175,1.175,0,0,0,.145.217,1.76,1.76,0,0,1,.221-.064,1.513,1.513,0,0,1,.68-.063,1.446,1.446,0,0,1,.6.315,1.351,1.351,0,0,0,.212.143.473.473,0,0,1,.258.585l-1.375,4.065a.662.662,0,0,1-.532.439A.7.7,0,0,1,24.075,233.825ZM22.939,231.6a.671.671,0,0,1,.549.282l.5.689,1.087-3.213-.027-.021a1.223,1.223,0,0,0-.211-.141,1.18,1.18,0,0,0-.258.051,1.052,1.052,0,0,1-1.421-.591c-.03-.052-.07-.121-.1-.168l-1.173,3.469.81-.309A.691.691,0,0,1,22.939,231.6Zm-.22.833,0,.005Z" transform="translate(-20.753 -227.439)" fill="#f3ae33"/>
          </g>
          <g id="Group_158274" data-name="Group 158274" transform="translate(4.777)">
            <path id="Path_193920" data-name="Path 193920" d="M98.834,233.822a.7.7,0,0,1-.113-.009.657.657,0,0,1-.526-.445l-1.373-4.057a.473.473,0,0,1,.258-.585,1.356,1.356,0,0,0,.212-.143,1.446,1.446,0,0,1,.6-.316,1.517,1.517,0,0,1,.678.064,1.135,1.135,0,0,0,.253.05,1.869,1.869,0,0,1,.11-.2,1.5,1.5,0,0,1,.428-.521,1.527,1.527,0,0,1,.662-.205l.064-.009a.472.472,0,0,1,.516.316l1.519,4.484a.632.632,0,0,1-.168.668.682.682,0,0,1-.717.139l-1.173-.448-.688.948A.671.671,0,0,1,98.834,233.822Zm.256-.759,0,.009Zm-1.254-3.707,1.086,3.21.5-.691a.688.688,0,0,1,.8-.231l.81.309-1.175-3.468c-.031.046-.071.114-.1.165a1.052,1.052,0,0,1-1.42.595,1.14,1.14,0,0,0-.262-.051,1.275,1.275,0,0,0-.209.141l-.027.021Zm3.393,3.187h0Zm.357-.377h0Z" transform="translate(-96.797 -227.435)" fill="#f3ae33"/>
          </g>
        </g>
        <g id="Group_158276" data-name="Group 158276" transform="translate(2.955 2.956)">
          <path id="Path_193921" data-name="Path 193921" d="M64.582,142.224a2.472,2.472,0,1,1,2.469-2.469A2.474,2.474,0,0,1,64.582,142.224Zm0-4a1.526,1.526,0,1,0,1.523,1.529A1.531,1.531,0,0,0,64.582,138.227Z" transform="translate(-62.107 -137.281)" fill="#f3ae33"/>
        </g>
      </g>
      <g id="Group_158278" data-name="Group 158278" transform="translate(11.583 13.853)">
        <path id="Path_193922" data-name="Path 193922" d="M208.074,238.677H202.08a.473.473,0,0,1,0-.946h5.994a.473.473,0,1,1,0,.946Z" transform="translate(-201.607 -237.731)" fill="#f3ae33"/>
      </g>
      <g id="Group_158279" data-name="Group 158279" transform="translate(11.603 11.373)">
        <path id="Path_193923" data-name="Path 193923" d="M204.044,199.162H202.08a.473.473,0,0,1,0-.946h1.964a.473.473,0,0,1,0,.946Z" transform="translate(-201.607 -198.216)" fill="#f3ae33"/>
      </g>
      <g id="Group_158280" data-name="Group 158280" transform="translate(11.603 8.894)">
        <path id="Path_193924" data-name="Path 193924" d="M204.044,159.647H202.08a.473.473,0,0,1,0-.946h1.964a.473.473,0,0,1,0,.946Z" transform="translate(-201.607 -158.701)" fill="#f3ae33"/>
      </g>
      <g id="Group_158281" data-name="Group 158281" transform="translate(11.603 6.414)">
        <path id="Path_193925" data-name="Path 193925" d="M204.044,120.132H202.08a.473.473,0,1,1,0-.946h1.964a.473.473,0,0,1,0,.946Z" transform="translate(-201.607 -119.186)" fill="#f3ae33"/>
      </g>
      <g id="Group_158282" data-name="Group 158282" transform="translate(11.603 3.939)">
        <path id="Path_193926" data-name="Path 193926" d="M204.044,80.618H202.08a.473.473,0,1,1,0-.946h1.964a.473.473,0,0,1,0,.946Z" transform="translate(-201.607 -79.672)" fill="#f3ae33"/>
      </g>
      <g id="Group_158283" data-name="Group 158283" transform="translate(11.583 16.333)">
        <path id="Path_193927" data-name="Path 193927" d="M208.074,278.191H202.08a.473.473,0,0,1,0-.946h5.994a.473.473,0,1,1,0,.946Z" transform="translate(-201.607 -277.245)" fill="#f3ae33"/>
      </g>
      <g id="Group_158284" data-name="Group 158284" transform="translate(11.583 18.812)">
        <path id="Path_193928" data-name="Path 193928" d="M208.074,317.7H202.08a.473.473,0,0,1,0-.946h5.994a.473.473,0,1,1,0,.946Z" transform="translate(-201.607 -316.756)" fill="#f3ae33"/>
      </g>
    </g>
    <g id="Group_158286" data-name="Group 158286" transform="translate(20.21 18.727)">
      <path id="Path_193929" data-name="Path 193929" d="M112.7,45.894H98.988a.473.473,0,0,1,0-.946H112.7a.473.473,0,1,1,0,.946Z" transform="translate(-98.515 -44.948)" fill="#f3ae33"/>
    </g>
  </g>
</svg>
