<svg xmlns="http://www.w3.org/2000/svg" width="25.022" height="25.016" viewBox="0 0 25.022 25.016">
  <g id="Contact_Us" data-name="Contact Us" transform="translate(-6.339 -6.063)">
    <path id="path2" d="M11.812,17.519a3.776,3.776,0,0,0-2.156.42,4.267,4.267,0,0,0-.581.347c-1.592,1.14-2.255,3.321-2.235,5.742a15.665,15.665,0,0,0,1.768,6.956,16.078,16.078,0,0,0,4.883,5.35c2.033,1.381,4.249,2.076,6.108,1.436a4.443,4.443,0,0,0,.629-.274,3.651,3.651,0,0,0,1.567-1.5,1.226,1.226,0,0,0-.244-1.548L17.936,31.2a.761.761,0,0,0-.862-.107l-1.206.614a2.383,2.383,0,0,1-3.02-1.044l-1.575-2.917a2.275,2.275,0,0,1,.821-3.027l1.2-.627a.735.735,0,0,0,.4-.759l-.708-4.749a1.2,1.2,0,0,0-1.168-1.065Z" transform="translate(0 -7.446)" fill="#fff" stroke="#060709" stroke-width="1"/>
    <path id="path4" d="M39.087,12.635h1.605c.609-.015,1.135.342,1.055.947l-.523,3.983c-.091.69.945.871,1.291,0,.21-.532,1.234-.305,1.01.526a2.4,2.4,0,0,1-1.881,1.444H41a1.724,1.724,0,0,1-1.634-1.97l.448-3.2-.969-.29a.731.731,0,0,1,.237-1.438Zm1.788-3.492a1.249,1.249,0,1,1-1.265,1.249A1.257,1.257,0,0,1,40.874,9.143Zm-.086-2.579a7.65,7.65,0,0,0-7.06,4.888,7.691,7.691,0,0,0,.222,6.357L32.791,19.5c-.4.577-.126,1.179.568,1.09l2.541-.325a7.954,7.954,0,0,0,2.136,1.274A7.668,7.668,0,0,0,48.123,17.23,7.67,7.67,0,0,0,43.815,7.141a7.935,7.935,0,0,0-3.027-.577Z" transform="translate(-17.865)" fill="none" stroke="#bf2025" stroke-width="1" fill-rule="evenodd"/>
  </g>
</svg>
