<svg id="Discussion-Forum" xmlns="http://www.w3.org/2000/svg" width="31.886" height="31.886" viewBox="0 0 31.886 31.886">
  <g id="Group_130677" data-name="Group 130677" transform="translate(7.972)">
    <path id="Path_187880" data-name="Path 187880" d="M13.972,13.286h-.025a.669.669,0,0,1-.506-.266l-1.794-2.391H7.993A2,2,0,0,1,6,8.636V1.993A2,2,0,0,1,7.993,0H19.95a2,2,0,0,1,1.993,1.993V8.636a2,2,0,0,1-1.993,1.993H16.6l-2.127,2.43A.662.662,0,0,1,13.972,13.286ZM7.993,1.329a.665.665,0,0,0-.664.664V8.636a.665.665,0,0,0,.664.664h3.986a.664.664,0,0,1,.531.266l1.5,2L15.8,9.526a.665.665,0,0,1,.5-.226H19.95a.665.665,0,0,0,.664-.664V1.993a.665.665,0,0,0-.664-.664Z" transform="translate(-6)" fill="#56ca6a"/>
  </g>
  <g id="Group_130678" data-name="Group 130678" transform="translate(24.858 1.329)">
    <path id="Path_187881" data-name="Path 187881" d="M20.424,14.286H20.4a.664.664,0,0,1-.506-.267l-1.05-1.408a.665.665,0,1,1,1.066-.795l.558.749,1.783-2.038a.667.667,0,0,1,.5-.227h1a.665.665,0,0,0,.664-.664V2.993a.665.665,0,0,0-.664-.664H21.088a.664.664,0,1,1,0-1.329h2.657a2,2,0,0,1,1.993,1.993V9.636a2,2,0,0,1-1.993,1.993h-.695l-2.127,2.43a.662.662,0,0,1-.5.227Z" transform="translate(-18.71 -1)" fill="#56ca6a"/>
  </g>
  <g id="Group_130679" data-name="Group 130679" transform="translate(0 1.329)">
    <path id="Path_187882" data-name="Path 187882" d="M5.314,14.286a.662.662,0,0,1-.5-.227l-2.127-2.43H1.993A2,2,0,0,1,0,9.636V2.993A2,2,0,0,1,1.993,1H4.65a.664.664,0,0,1,0,1.329H1.993a.665.665,0,0,0-.664.664V9.636a.665.665,0,0,0,.664.664h1a.662.662,0,0,1,.5.227l1.783,2.038.558-.749a.665.665,0,1,1,1.066.795l-1.05,1.408a.661.661,0,0,1-.5.267H5.314Z" transform="translate(0 -1)" fill="#56ca6a"/>
  </g>
  <g id="Group_130680" data-name="Group 130680" transform="translate(23.915 17.272)">
    <path id="Path_187883" data-name="Path 187883" d="M20.657,18.314a2.657,2.657,0,1,1,2.657-2.657A2.66,2.66,0,0,1,20.657,18.314Zm0-3.986a1.329,1.329,0,1,0,1.329,1.329A1.331,1.331,0,0,0,20.657,14.329Z" transform="translate(-18 -13)" fill="#56ca6a"/>
  </g>
  <g id="Group_130681" data-name="Group 130681" transform="translate(23.915 23.915)">
    <path id="Path_187884" data-name="Path 187884" d="M25.307,23.314a.665.665,0,0,1-.664-.664V21.322a2,2,0,0,0-1.993-1.993H18.664a.664.664,0,0,1,0-1.329H22.65a3.326,3.326,0,0,1,3.322,3.322V22.65A.665.665,0,0,1,25.307,23.314Z" transform="translate(-18 -18)" fill="#56ca6a"/>
  </g>
  <g id="Group_130682" data-name="Group 130682" transform="translate(2.657 17.272)">
    <path id="Path_187885" data-name="Path 187885" d="M4.657,18.314a2.657,2.657,0,1,1,2.657-2.657A2.66,2.66,0,0,1,4.657,18.314Zm0-3.986a1.329,1.329,0,1,0,1.329,1.329A1.331,1.331,0,0,0,4.657,14.329Z" transform="translate(-2 -13)" fill="#56ca6a"/>
  </g>
  <g id="Group_130683" data-name="Group 130683" transform="translate(0 23.915)">
    <path id="Path_187886" data-name="Path 187886" d="M.664,23.314A.665.665,0,0,1,0,22.65V21.322A3.326,3.326,0,0,1,3.322,18H7.307a.664.664,0,1,1,0,1.329H3.322a2,2,0,0,0-1.993,1.993V22.65A.665.665,0,0,1,.664,23.314Z" transform="translate(0 -18)" fill="#56ca6a"/>
  </g>
  <g id="Group_130684" data-name="Group 130684" transform="translate(11.957 15.279)">
    <path id="Path_187887" data-name="Path 187887" d="M12.986,19.472a3.986,3.986,0,1,1,3.986-3.986A3.991,3.991,0,0,1,12.986,19.472Zm0-6.643a2.657,2.657,0,1,0,2.657,2.657A2.66,2.66,0,0,0,12.986,12.829Z" transform="translate(-9 -11.5)" fill="#56ca6a"/>
  </g>
  <g id="Group_130685" data-name="Group 130685" transform="translate(8.636 25.243)">
    <path id="Path_187888" data-name="Path 187888" d="M20.45,25.643a.665.665,0,0,1-.664-.664V22.322a2,2,0,0,0-1.993-1.993H9.822a2,2,0,0,0-1.993,1.993v2.657a.664.664,0,1,1-1.329,0V22.322A3.326,3.326,0,0,1,9.822,19h7.972a3.326,3.326,0,0,1,3.322,3.322v2.657A.665.665,0,0,1,20.45,25.643Z" transform="translate(-6.5 -19)" fill="#56ca6a"/>
  </g>
</svg>
