<svg xmlns="http://www.w3.org/2000/svg" width="30.569" height="30" viewBox="0 0 30.569 30">
  <g id="E_-_COO" data-name="E - COO" transform="translate(0 -4.465)">
    <g id="Group_1224" data-name="Group 1224" transform="translate(0 4.465)">
      <g id="Group_1223" data-name="Group 1223">
        <path id="Path_115736" data-name="Path 115736" d="M30.059,4.465H.509A.51.51,0,0,0,0,4.974V25.354a.509.509,0,0,0,.509.509h9.2c.015.17.04.337.07.5L6.985,29.7a.51.51,0,0,0,.272.823l3.076.735,1.258,2.9a.509.509,0,0,0,.858.125l2.79-3.325h.091l2.79,3.325a.509.509,0,0,0,.858-.125l1.258-2.9,3.076-.735a.509.509,0,0,0,.272-.823l-2.794-3.33c.03-.166.055-.333.07-.5h9.2a.509.509,0,0,0,.509-.509V4.974A.509.509,0,0,0,30.059,4.465ZM12.2,33l-1.032-2.379a.51.51,0,0,0-.349-.293l-2.522-.6,1.829-2.18c.01.022.022.043.032.065.066.153.138.3.218.442.033.06.067.119.1.178q.1.175.222.342c.055.078.112.153.17.229s.139.171.212.255.16.176.245.26c.063.063.127.123.194.183s.1.1.162.153.112.081.167.124c.025.019.046.042.072.061.046.035.094.065.141.1.073.051.146.106.222.153.145.093.294.177.445.255.058.03.117.057.176.084q.2.1.41.174c.04.015.079.032.119.045a5.483,5.483,0,0,0,.589.171l.006,0Zm4.043-3.165a4.617,4.617,0,0,1-.709.093h-.007c-.08,0-.161.01-.242.01s-.162-.006-.242-.01h-.007a4.652,4.652,0,0,1-.708-.093l-.043-.009c-.091-.02-.18-.044-.269-.07-.037-.011-.075-.02-.112-.032-.064-.02-.126-.043-.189-.066s-.122-.044-.182-.069c-.037-.016-.074-.033-.111-.051-.084-.038-.167-.076-.248-.118l-.041-.022a4.613,4.613,0,0,1-.6-.384c-.106-.079-.2-.166-.3-.252a4.507,4.507,0,0,1-.326-.321c-.041-.044-.085-.086-.123-.131a4.473,4.473,0,0,1-.388-.531c-.017-.028-.032-.057-.051-.085a4.458,4.458,0,0,1-.285-.564l-.022-.051a4.581,4.581,0,0,1-.217-.687c0-.009-.007-.016-.01-.025a4.586,4.586,0,1,1,8.945.006c0,.009-.008.016-.01.025a4.6,4.6,0,0,1-.217.686c-.007.018-.015.036-.023.051a4.436,4.436,0,0,1-.284.56c-.017.029-.032.059-.051.087a4.515,4.515,0,0,1-.388.531c-.038.045-.082.086-.122.129a4.621,4.621,0,0,1-.33.325c-.1.086-.193.173-.3.252s-.2.145-.3.21l-.006,0c-.092.059-.186.113-.282.164l-.056.031c-.077.04-.153.076-.234.112-.041.018-.081.037-.122.054-.057.024-.115.045-.173.066s-.13.048-.2.068l-.106.031c-.09.025-.181.051-.273.07Zm6.032-.112-2.522.6a.51.51,0,0,0-.349.293L18.37,33l-1.83-2.18h0a5.365,5.365,0,0,0,.591-.171c.038-.013.075-.029.113-.043.142-.054.282-.113.42-.179.056-.026.112-.051.167-.079.153-.079.306-.166.452-.26.071-.045.139-.1.207-.144.051-.035.1-.067.153-.1.027-.02.051-.044.077-.065.051-.042.11-.077.162-.121s.1-.1.159-.15.133-.123.2-.186q.126-.126.244-.259c.074-.084.144-.168.213-.255s.116-.153.17-.229c.078-.111.153-.225.222-.341.036-.059.07-.119.1-.179q.119-.216.217-.441c.009-.026.022-.047.032-.07Zm7.277-4.875H20.863a5.6,5.6,0,0,0-11.158,0H1.019V5.484H29.55Z" transform="translate(0 -4.465)" fill="#f6ab2f"/>
      </g>
    </g>
    <g id="Group_1226" data-name="Group 1226" transform="translate(2.038 6.503)">
      <g id="Group_1225" data-name="Group 1225" transform="translate(0 0)">
        <path id="Path_115737" data-name="Path 115737" d="M32.509,36.465a.509.509,0,0,0-.509.509v2.038h1.019V37.484h1.528V36.465Z" transform="translate(-32 -36.465)" fill="#f6ab2f"/>
      </g>
    </g>
    <g id="Group_1228" data-name="Group 1228" transform="translate(25.983 6.503)">
      <g id="Group_1227" data-name="Group 1227">
        <path id="Path_115738" data-name="Path 115738" d="M410.038,36.465H408v1.019h1.528v1.528h1.019V36.974A.509.509,0,0,0,410.038,36.465Z" transform="translate(-408 -36.465)" fill="#f6ab2f"/>
      </g>
    </g>
    <g id="Group_1230" data-name="Group 1230" transform="translate(25.983 21.278)">
      <g id="Group_1229" data-name="Group 1229" transform="translate(0 0)">
        <path id="Path_115739" data-name="Path 115739" d="M409.528,268.465v1.528H408v1.019h2.038a.51.51,0,0,0,.509-.509v-2.038Z" transform="translate(-408 -268.465)" fill="#f6ab2f"/>
      </g>
    </g>
    <g id="Group_1232" data-name="Group 1232" transform="translate(2.038 21.278)">
      <g id="Group_1231" data-name="Group 1231" transform="translate(0 0)">
        <path id="Path_115740" data-name="Path 115740" d="M33.019,269.993v-1.528H32V270.5a.51.51,0,0,0,.509.509h2.038v-1.019Z" transform="translate(-32 -268.465)" fill="#f6ab2f"/>
      </g>
    </g>
    <g id="Group_1234" data-name="Group 1234" transform="translate(9 9.865)">
      <g id="Group_1233" data-name="Group 1233" transform="translate(0 -0.4)">
        <rect id="Rectangle_168140" data-name="Rectangle 168140" width="13" height="1" fill="#f6ab2f"/>
      </g>
    </g>
    <g id="Group_1236" data-name="Group 1236" transform="translate(6 12.865)">
      <g id="Group_1235" data-name="Group 1235" transform="translate(0 0)">
        <rect id="Rectangle_168141" data-name="Rectangle 168141" width="19" height="1" transform="translate(0 -0.4)" fill="#f6ab2f"/>
      </g>
    </g>
    <g id="Group_1238" data-name="Group 1238" transform="translate(11.718 21.787)">
      <g id="Group_1237" data-name="Group 1237" transform="translate(0 0)">
        <path id="Path_115741" data-name="Path 115741" d="M187.566,276.465a3.566,3.566,0,1,0,3.566,3.566A3.566,3.566,0,0,0,187.566,276.465Zm0,6.114a2.547,2.547,0,1,1,2.547-2.547A2.547,2.547,0,0,1,187.566,282.579Z" transform="translate(-184 -276.465)" fill="#f6ab2f"/>
      </g>
    </g>
  </g>
</svg>
