<svg xmlns="http://www.w3.org/2000/svg" width="14" height="14" viewBox="0 0 14 14">
  <g id="email" transform="translate(0 0.5)">
    <g id="Group_1120" data-name="Group 1120">
      <rect id="Rectangle_48" data-name="Rectangle 48" width="14" height="14" transform="translate(0 -0.5)" fill="none"/>
      <g id="email-2" data-name="email" transform="translate(0 1.257)">
        <path id="Path_102" data-name="Path 102" d="M8.17,175.293a2.106,2.106,0,0,1-2.34,0L.093,171.468c-.032-.021-.063-.043-.093-.066v6.267a1.288,1.288,0,0,0,1.289,1.289H12.711A1.288,1.288,0,0,0,14,177.669V171.4q-.046.034-.093.066Z" transform="translate(0 -168.472)" fill="#0247fe"/>
        <path id="Path_103" data-name="Path 103" d="M.548,66.579,6.285,70.4a1.285,1.285,0,0,0,1.43,0l5.737-3.825A1.228,1.228,0,0,0,14,65.554a1.29,1.29,0,0,0-1.288-1.288H1.288A1.29,1.29,0,0,0,0,65.555a1.228,1.228,0,0,0,.548,1.024Z" transform="translate(0 -64.266)" fill="#0247fe"/>
      </g>
    </g>
  </g>
</svg>
