<svg xmlns="http://www.w3.org/2000/svg" xmlns:xlink="http://www.w3.org/1999/xlink" width="37" height="37" viewBox="0 0 37 37">
  <defs>
    <clipPath id="clip-path">
      <path id="path3789" d="M0-682.665H37v37H0Z" transform="translate(0 682.665)" fill="#003c5e"/>
    </clipPath>
  </defs>
  <g id="Events" transform="translate(0 682.665)">
    <g id="g3785" transform="translate(0 -682.665)">
      <g id="g3787" clip-path="url(#clip-path)">
        <g id="g3793" transform="translate(24.826 11.328)">
          <path id="path3795" d="M1.1-8.916H-9.458A.542.542,0,0,1-10-9.458.542.542,0,0,1-9.458-10H1.1a.542.542,0,0,1,.542.542A.542.542,0,0,1,1.1-8.916Z" transform="translate(10 10)" fill="#003c5e"/>
        </g>
        <g id="g3797" transform="translate(0.528 11.328)">
          <path id="path3799" d="M12.478-8.916H-9.458A.542.542,0,0,1-10-9.458.542.542,0,0,1-9.458-10H12.478a.542.542,0,0,1,.542.542A.542.542,0,0,1,12.478-8.916Z" transform="translate(10 10)" fill="#003c5e"/>
        </g>
        <g id="g3801" transform="translate(0.528 19.139)">
          <path id="path3803" d="M-475.719-301.681h-24.913a2.351,2.351,0,0,1-2.349-2.349V-319a.542.542,0,0,1,.542-.542.542.542,0,0,1,.542.542v14.97a1.266,1.266,0,0,0,1.265,1.265h24.913a.542.542,0,0,1,.542.542A.542.542,0,0,1-475.719-301.681Z" transform="translate(502.98 319.542)" fill="#003c5e"/>
        </g>
        <g id="g3805" transform="translate(0.528 3.537)">
          <path id="path3807" d="M-101.262,4.324a.542.542,0,0,1-.542-.542V-7.651A2.351,2.351,0,0,1-99.455-10h3.169a.542.542,0,0,1,.542.542.542.542,0,0,1-.542.542h-3.169a1.266,1.266,0,0,0-1.265,1.265V3.782A.542.542,0,0,1-101.262,4.324Z" transform="translate(101.804 10)" fill="#003c5e"/>
        </g>
        <g id="g3809" transform="translate(8.933 3.537)">
          <path id="path3811" d="M-137.03-8.916h-7.311a.542.542,0,0,1-.542-.542A.542.542,0,0,1-144.34-10h7.311a.542.542,0,0,1,.542.542A.542.542,0,0,1-137.03-8.916Z" transform="translate(144.882 10)" fill="#003c5e"/>
        </g>
        <g id="g3813" transform="translate(16.243 0)">
          <path id="path3815" d="M-39.378-132.374a2.259,2.259,0,0,1-2.257-2.257v-3.646a2.259,2.259,0,0,1,2.257-2.257,2.259,2.259,0,0,1,2.257,2.257v3.646A2.259,2.259,0,0,1-39.378-132.374Zm0-7.075a1.174,1.174,0,0,0-1.173,1.173v3.646a1.174,1.174,0,0,0,1.173,1.173,1.174,1.174,0,0,0,1.173-1.173v-3.646A1.174,1.174,0,0,0-39.378-139.449Z" transform="translate(41.635 140.533)" fill="#003c5e"/>
        </g>
        <g id="g3817" transform="translate(5.504 0)">
          <path id="path3819" d="M-39.379-132.374a2.259,2.259,0,0,1-2.257-2.257v-3.646a2.259,2.259,0,0,1,2.257-2.257,2.259,2.259,0,0,1,2.257,2.257v3.646A2.259,2.259,0,0,1-39.379-132.374Zm0-7.075a1.174,1.174,0,0,0-1.173,1.173v3.646a1.174,1.174,0,0,0,1.173,1.173,1.174,1.174,0,0,0,1.173-1.173v-3.646A1.174,1.174,0,0,0-39.379-139.449Z" transform="translate(41.636 140.533)" fill="#003c5e"/>
        </g>
        <g id="g3821" transform="translate(26.983 0)">
          <path id="path3823" d="M-39.378-132.374a2.259,2.259,0,0,1-2.257-2.257v-3.646a2.259,2.259,0,0,1,2.257-2.257,2.259,2.259,0,0,1,2.257,2.257v3.646A2.259,2.259,0,0,1-39.378-132.374Zm0-7.075a1.174,1.174,0,0,0-1.173,1.173v3.646a1.174,1.174,0,0,0,1.173,1.173,1.174,1.174,0,0,0,1.173-1.173v-3.646A1.174,1.174,0,0,0-39.378-139.449Z" transform="translate(41.635 140.533)" fill="#003c5e"/>
        </g>
        <g id="g3825" transform="translate(25.265 15.392)">
          <path id="path3827" d="M-118.372-124.475h-5.861a.924.924,0,0,1-.923-.923v-5.861a.924.924,0,0,1,.923-.923h5.861a.924.924,0,0,1,.923.923v5.861A.924.924,0,0,1-118.372-124.475Zm-5.7-1.084h5.538V-131.1h-5.538Z" transform="translate(125.156 132.181)" fill="#003c5e"/>
        </g>
        <g id="g3829" transform="translate(14.647 25.324)">
          <path id="path3831" d="M-118.372-124.475h-5.861a.924.924,0,0,1-.923-.923v-5.861a.924.924,0,0,1,.923-.923h5.861a.924.924,0,0,1,.923.923v5.861A.924.924,0,0,1-118.372-124.475Zm-5.7-1.084h5.538V-131.1h-5.538Z" transform="translate(125.156 132.181)" fill="#003c5e"/>
        </g>
        <g id="g3833" transform="translate(4.029 25.324)">
          <path id="path3835" d="M-118.372-124.475h-5.861a.924.924,0,0,1-.923-.923v-5.861a.924.924,0,0,1,.923-.923h5.861a.924.924,0,0,1,.923.923v5.861A.924.924,0,0,1-118.372-124.475Zm-5.7-1.084h5.538V-131.1h-5.538Z" transform="translate(125.156 132.181)" fill="#003c5e"/>
        </g>
        <g id="g3837" transform="translate(25.265 25.324)">
          <path id="path3839" d="M-118.372-124.475h-5.861a.924.924,0,0,1-.923-.923v-5.861a.924.924,0,0,1,.923-.923h5.861a.924.924,0,0,1,.923.923v5.861A.924.924,0,0,1-118.372-124.475Zm-5.7-1.084h5.538V-131.1h-5.538Z" transform="translate(125.156 132.181)" fill="#003c5e"/>
        </g>
        <g id="g3841" transform="translate(14.647 15.392)">
          <path id="path3843" d="M-118.372-124.475h-5.861a.924.924,0,0,1-.923-.923v-5.861a.924.924,0,0,1,.923-.923h5.861a.924.924,0,0,1,.923.923v5.861A.924.924,0,0,1-118.372-124.475Zm-5.7-1.084h5.538V-131.1h-5.538Z" transform="translate(125.156 132.181)" fill="#003c5e"/>
        </g>
        <g id="g3845" transform="translate(4.029 15.392)">
          <path id="path3847" d="M-118.372-124.475h-5.861a.924.924,0,0,1-.923-.923v-5.861a.924.924,0,0,1,.923-.923h5.861a.924.924,0,0,1,.923.923v5.861A.924.924,0,0,1-118.372-124.475Zm-5.7-1.084h5.538V-131.1h-5.538Z" transform="translate(125.156 132.181)" fill="#003c5e"/>
        </g>
        <g id="g3849" transform="translate(6.491 16.562)">
          <path id="path3851" d="M-7.886-44.734a.54.54,0,0,1-.38-.155l-1.572-1.544a.542.542,0,0,1-.007-.766.542.542,0,0,1,.766-.007l1.187,1.166,3.28-3.3a.542.542,0,0,1,.766,0,.542.542,0,0,1,0,.766L-7.5-44.894A.54.54,0,0,1-7.886-44.734Z" transform="translate(10 49.503)" fill="#003c5e"/>
        </g>
        <g id="g3853" transform="translate(17.597 16.562)">
          <path id="path3855" d="M-7.886-44.734a.54.54,0,0,1-.38-.155l-1.572-1.544a.542.542,0,0,1-.007-.766.542.542,0,0,1,.766-.007l1.187,1.166,3.28-3.3a.542.542,0,0,1,.766,0,.542.542,0,0,1,0,.766L-7.5-44.894A.54.54,0,0,1-7.886-44.734Z" transform="translate(10 49.503)" fill="#003c5e"/>
        </g>
        <g id="g3857" transform="translate(19.673 3.537)">
          <path id="path3859" d="M-137.03-8.916h-7.311a.542.542,0,0,1-.542-.542A.542.542,0,0,1-144.34-10h7.311a.542.542,0,0,1,.542.542A.542.542,0,0,1-137.03-8.916Z" transform="translate(144.882 10)" fill="#003c5e"/>
        </g>
        <g id="g3861" transform="translate(29.609 3.537)">
          <path id="path3863" d="M-5.486-573.936H-9.458a.542.542,0,0,1-.542-.542.542.542,0,0,1,.542-.542h3.972a1.266,1.266,0,0,0,1.265-1.265V-605.05a1.266,1.266,0,0,0-1.265-1.265H-8.655a.542.542,0,0,1-.542-.542.542.542,0,0,1,.542-.542h3.169a2.351,2.351,0,0,1,2.349,2.349v28.765A2.351,2.351,0,0,1-5.486-573.936Z" transform="translate(10 607.398)" fill="#003c5e"/>
        </g>
      </g>
    </g>
  </g>
</svg>
