<svg xmlns="http://www.w3.org/2000/svg" width="30" height="30" viewBox="0 0 30 30">
  <g id="Finance" transform="translate(14171 940)">
    <rect id="Rectangle_168825" data-name="Rectangle 168825" width="30" height="30" transform="translate(-14171 -940)" fill="none"/>
    <g id="layer6" transform="translate(-14170.839 -940.27)">
      <path id="path3363" d="M14.945,10.584a1.354,1.354,0,0,0-1.28.751,1.659,1.659,0,0,0-.172.7v6.78a1.657,1.657,0,0,0,.172.7,1.363,1.363,0,0,0,1.28.751h1.944a1.344,1.344,0,0,0,1.28-.751,1.7,1.7,0,0,0,.175-.7v-6.78a1.7,1.7,0,0,0-.175-.7,1.341,1.341,0,0,0-1.28-.751Zm0,.969h1.944a.4.4,0,0,1,.415.214.78.78,0,0,1,.071.268v6.78a.771.771,0,0,1-.071.264.391.391,0,0,1-.415.218H14.945a.394.394,0,0,1-.415-.218.72.72,0,0,1-.068-.264v-6.78a.73.73,0,0,1,.068-.268C14.593,11.64,14.692,11.552,14.945,11.552Z" transform="translate(10.546 8.561)" fill="#0cb8b6"/>
      <path id="path3365" d="M12.054,11.377a.484.484,0,0,0-.322.122L8.6,14.283a1.935,1.935,0,0,0,.493,3.242,1.912,1.912,0,0,0,2.077-.347l1.247-1.1a.485.485,0,1,0-.643-.726L10.52,16.463a.95.95,0,0,1-1.04.175.933.933,0,0,1-.583-.879.968.968,0,0,1,.336-.743l3-2.67h6.359v-.969Z" transform="translate(5.927 9.219)" fill="#0cb8b6"/>
      <path id="path3367" d="M12.381,13.758l-6.995.025a2.49,2.49,0,0,0-1.412.336,1.744,1.744,0,0,0-.811,1.591A1.943,1.943,0,0,0,4.79,17.6l8.26,1.462a2.363,2.363,0,0,0,1.222-.218l6.359-2.667H22.55v-.969H20.531a.485.485,0,0,0-.186.039L13.926,17.94a1.337,1.337,0,0,1-.772.157L4.947,16.646a.952.952,0,0,1-.813-.937.79.79,0,0,1,.352-.772,1.677,1.677,0,0,1,.872-.189l7.027-.021Z" transform="translate(1.971 11.195)" fill="#0cb8b6"/>
      <path id="path3381" d="M11.1,5.291A5.812,5.812,0,1,0,16.914,11.1,5.82,5.82,0,0,0,11.1,5.291Zm0,.969A4.843,4.843,0,1,1,6.259,11.1,4.837,4.837,0,0,1,11.1,6.259Z" transform="translate(3.737 4.167)" fill="#0cb8b6"/>
      <path id="path3415" d="M4.187,10.741a1.354,1.354,0,0,0,1.28-.751,1.659,1.659,0,0,0,.172-.7V2.509a1.657,1.657,0,0,0-.172-.7,1.363,1.363,0,0,0-1.28-.751H2.243a1.344,1.344,0,0,0-1.28.751,1.7,1.7,0,0,0-.175.7V9.29a1.7,1.7,0,0,0,.175.7,1.341,1.341,0,0,0,1.28.751Zm0-.969H2.243a.4.4,0,0,1-.415-.214.78.78,0,0,1-.071-.268V2.509a.771.771,0,0,1,.071-.264.391.391,0,0,1,.415-.218H4.187a.394.394,0,0,1,.415.218.72.72,0,0,1,.068.264V9.29a.73.73,0,0,1-.068.268C4.539,9.685,4.44,9.772,4.187,9.772Z" transform="translate(0 0.654)" fill="#0cb8b6"/>
      <path id="path3417" d="M9.716,8.419a.484.484,0,0,0,.322-.122l3.131-2.784a1.935,1.935,0,0,0-.493-3.242,1.912,1.912,0,0,0-2.077.347l-1.247,1.1a.485.485,0,1,0,.643.726l1.255-1.115a.95.95,0,0,1,1.04-.175.933.933,0,0,1,.583.879.968.968,0,0,1-.336.743l-3,2.67H3.175v.969Z" transform="translate(1.981 1.525)" fill="#0cb8b6"/>
      <path id="path3419" d="M13.344,5.587l6.995-.025a2.49,2.49,0,0,0,1.412-.336,1.744,1.744,0,0,0,.811-1.591,1.943,1.943,0,0,0-1.626-1.891L12.675.283A2.363,2.363,0,0,0,11.453.5L5.094,3.167H3.175v.969H5.194A.485.485,0,0,0,5.38,4.1L11.8,1.405a1.337,1.337,0,0,1,.772-.157L20.778,2.7a.952.952,0,0,1,.813.937.79.79,0,0,1-.352.772,1.677,1.677,0,0,1-.872.189l-7.027.021Z" transform="translate(1.981 0)" fill="#0cb8b6"/>
      <path id="path3832" d="M7.639,6.626a.485.485,0,0,0,0,.971h3.882a.485.485,0,0,0,0-.971Z" transform="translate(5.284 5.275)" fill="#0cb8b6"/>
      <path id="path3836" d="M9.567,6.879V8.816a1.936,1.936,0,0,1-.189.751,1.262,1.262,0,0,1-1.262.7H7.63a.484.484,0,0,0-.311.858l2.906,2.42a.485.485,0,1,0,.622-.743l-1.992-1.66A2.143,2.143,0,0,0,10.242,10a2.875,2.875,0,0,0,.293-1.187V6.879H9.567Z" transform="translate(5.273 5.486)" fill="#0cb8b6"/>
      <path id="path3855" d="M7.627,7.673a.485.485,0,0,0,0,.969H11.5a.485.485,0,0,0,0-.969Z" transform="translate(5.275 6.144)" fill="#0cb8b6"/>
    </g>
  </g>
</svg>
