<svg xmlns="http://www.w3.org/2000/svg" width="28.811" height="29.047" viewBox="0 0 28.811 29.047">
  <g id="groupchat" transform="translate(-0.718 -0.25)">
    <circle id="Ellipse_10023" data-name="Ellipse 10023" cx="3.07" cy="3.07" r="3.07" transform="translate(12.037 14.404)" fill="#2ee8de"/>
    <circle id="Ellipse_10024" data-name="Ellipse 10024" cx="2.729" cy="2.729" r="2.729" transform="translate(21.246 16.223)" fill="#2ee8de"/>
    <circle id="Ellipse_10025" data-name="Ellipse 10025" cx="2.729" cy="2.729" r="2.729" transform="translate(3.511 16.223)" fill="#2ee8de"/>
    <path id="Path_187534" data-name="Path 187534" d="M1.776,103.86H7.859a.343.343,0,0,0,.321-.457,1.705,1.705,0,0,1-.085-.336,6.789,6.789,0,0,1-.068-.952A7.026,7.026,0,0,1,9.3,98.074a.343.343,0,0,0-.1-.485,5.555,5.555,0,0,0-8.481,4.722,5.278,5.278,0,0,0,.041.655,1.025,1.025,0,0,0,1.016.895Z" transform="translate(0 -74.563)" fill="#2ee8de"/>
    <path id="Path_187535" data-name="Path 187535" d="M89.483,97.6a.343.343,0,0,0-.1.483,7.029,7.029,0,0,1,1.262,4.028,6.762,6.762,0,0,1-.068.951,1.683,1.683,0,0,1-.085.337.344.344,0,0,0,.321.457H96.93a1.025,1.025,0,0,0,1.017-.895,5.228,5.228,0,0,0,.042-.655A5.554,5.554,0,0,0,89.482,97.6Z" transform="translate(-68.459 -74.56)" fill="#2ee8de"/>
    <path id="Path_187536" data-name="Path 187536" d="M35.86,98.587a6.107,6.107,0,0,0,.061.855,1.035,1.035,0,0,0,1.016.889H47.579a1.035,1.035,0,0,0,1.015-.889,6.117,6.117,0,0,0,.062-.855,6.4,6.4,0,1,0-12.8,0Z" transform="translate(-27.151 -71.034)" fill="#2ee8de"/>
    <path id="Path_187537" data-name="Path 187537" d="M83.026,19.947a6.928,6.928,0,0,1-4.04,5.955.343.343,0,0,0,.18.641,8.974,8.974,0,0,0,1-.109l2.992.816a1.03,1.03,0,0,0,1.205-1.405A3.971,3.971,0,0,1,84,24.59a4.53,4.53,0,0,0,1.471-3.249,4.818,4.818,0,0,0-2.36-3.961.344.344,0,0,0-.5.412,5.732,5.732,0,0,1,.423,2.156Z" transform="translate(-60.336 -13.194)" fill="#2ee8de"/>
    <path id="Path_187538" data-name="Path 187538" d="M21.772,10.825a5.066,5.066,0,0,1-.475,1.658,1.209,1.209,0,0,0,1.419,1.651l3.8-1.037a11.051,11.051,0,0,0,1.855.159c4.668,0,8.463-2.917,8.463-6.5S33.041.25,28.373.25s-8.463,2.917-8.463,6.5a5.651,5.651,0,0,0,1.862,4.072ZM32.436,5.764a1.023,1.023,0,1,1-1.023,1.023A1.023,1.023,0,0,1,32.436,5.764Zm-4.093,0A1.023,1.023,0,1,1,27.32,6.787,1.023,1.023,0,0,1,28.343,5.764Zm-4.093,0a1.023,1.023,0,1,1-1.023,1.023A1.023,1.023,0,0,1,24.251,5.764Z" transform="translate(-14.828)" fill="#2ee8de"/>
  </g>
</svg>
