<svg xmlns="http://www.w3.org/2000/svg" width="30" height="30" viewBox="0 0 30 30">
  <g id="Hall_Booking" data-name="Hall Booking" transform="translate(-2.31 -2.25)">
    <g id="Group_1240" data-name="Group 1240" transform="translate(15.316 15.502)">
      <g id="Group_1239" data-name="Group 1239">
        <path id="Path_115742" data-name="Path 115742" d="M32.743,35.272a1.991,1.991,0,1,1,1.991-1.991A1.993,1.993,0,0,1,32.743,35.272Zm0-3.279a1.287,1.287,0,1,0,1.287,1.288A1.289,1.289,0,0,0,32.743,31.993Z" transform="translate(-30.751 -31.289)" fill="#0cb8b6"/>
      </g>
    </g>
    <path id="Path_115743" data-name="Path 115743" d="M31.966,18.968a.346.346,0,0,0,.344-.344v-2.51a.346.346,0,0,0-.344-.344H24.174a.344.344,0,1,0,0,.687h7.447v1.823h-5.9l-4-2.78V10.92a4.419,4.419,0,0,0-4.075-4.4h0V5.09h3.173a.343.343,0,0,0,.344-.344V2.594a.346.346,0,0,0-.344-.344H17.31a.347.347,0,0,0-.346.345V6.519a4.419,4.419,0,0,0-4.077,4.4V15.5l-.385.27H2.654a.343.343,0,0,0-.344.344v2.51a.343.343,0,0,0,.344.344H3.682v12.6H2.654a.344.344,0,1,0,0,.687H31.966a.344.344,0,1,0,0-.687H30.933v-12.6ZM19.435,13.906V11.264h1.606v3.76Zm-3.565-2.643h2.877V13.43L17.5,12.565a.338.338,0,0,0-.39,0l-1.243.866Zm1.785-8.327h2.827V4.4H17.654Zm-.346,4.255h0a3.736,3.736,0,0,1,3.717,3.385H13.588a3.738,3.738,0,0,1,3.719-3.385Zm-3.733,4.072h1.606v2.643l-1.606,1.118ZM3,16.458H11.51L8.89,18.281H3Zm8.241,15.105V21.725h2.069v9.838Zm5.034,0V21.725h2.069v9.838Zm5.034,0V21.725h2.069v9.838Zm2.758,0V21.381a.346.346,0,0,0-.344-.344H20.962a.346.346,0,0,0-.344.344V31.563H19.031V21.381a.346.346,0,0,0-.344-.344H15.929a.346.346,0,0,0-.344.344V31.563H14V21.381a.346.346,0,0,0-.344-.344H10.9a.346.346,0,0,0-.344.344V31.563H4.37v-12.6H7.9l-.092.064,0,0-1,.692a.344.344,0,1,0,.395.563l.459-.321v10.1a.344.344,0,0,0,.688,0V19.494l8.961-6.229,8.957,6.224V31.563Zm6.181,0h-3.29V19.971l.463.321a.34.34,0,0,0,.193.06A.346.346,0,0,0,27.9,20.2a.34.34,0,0,0-.087-.476l-1-.692,0,0-.092-.064h3.529Z" fill="#0cb8b6"/>
  </g>
</svg>
