<svg xmlns="http://www.w3.org/2000/svg" width="30.477" height="30" viewBox="0 0 30.477 30">
  <g id="healthcare" transform="translate(0 -4.01)">
    <path id="Path_193947" data-name="Path 193947" d="M144.941,197.029a.446.446,0,0,0,.382-.216l.805-1.338,1.067,1.7a.446.446,0,0,0,.765-.016l1.718-3,2.308,4.206a.446.446,0,0,0,.383.232h.008a.447.447,0,0,0,.384-.218l1.438-2.414h3.467a.446.446,0,1,0,0-.893h-3.721a.446.446,0,0,0-.384.218l-1.168,1.961-2.315-4.22a.447.447,0,0,0-.387-.232h0a.446.446,0,0,0-.387.225l-1.745,3.048-1.058-1.68a.446.446,0,0,0-.378-.209h0a.446.446,0,0,0-.378.216l-1.049,1.743h-2.537a.446.446,0,0,0,0,.893Z" transform="translate(-133.27 -177.545)" fill="#769ed8"/>
    <path id="Path_193948" data-name="Path 193948" d="M388.184,55.795a.446.446,0,0,0-.446.446v1.317H386.42a.446.446,0,1,0,0,.893h1.317v1.317a.446.446,0,1,0,.893,0V58.451h1.317a.446.446,0,0,0,0-.893H388.63V56.241A.446.446,0,0,0,388.184,55.795Z" transform="translate(-362.998 -48.702)" fill="#769ed8"/>
    <path id="Path_193949" data-name="Path 193949" d="M26.761,22.389a8.494,8.494,0,0,0,1.6-8.856A5.292,5.292,0,1,0,21.88,5.168a.446.446,0,0,0,.558.7A4.35,4.35,0,0,1,25.185,4.9a4.4,4.4,0,1,1-4.372,4.9c0-.005,0-.01,0-.015a4.424,4.424,0,0,1-.027-.482,4.341,4.341,0,0,1,.46-1.959.446.446,0,1,0-.8-.4A5.226,5.226,0,0,0,19.891,9.3c0,.075,0,.15.005.224a8.442,8.442,0,0,0-3.061,1.933l-.493.485-.007-.007-.485-.478a7.919,7.919,0,0,0-5.638-2.371,5.909,5.909,0,0,0-4.288,1.9.447.447,0,1,0,.652.61A5.031,5.031,0,0,1,10.23,9.982,7.027,7.027,0,0,1,15.223,12.1l.486.479a.951.951,0,0,0,.634.346.937.937,0,0,0,.625-.339l.493-.485a7.577,7.577,0,0,1,2.552-1.66,5.292,5.292,0,0,0,7.578,3.581,7.587,7.587,0,0,1-1.481,7.758L19.7,28.335l-.53.1-.346.068a3.4,3.4,0,0,1-1.621.047l-3.819-.7a.585.585,0,0,1-.439-.718.544.544,0,0,1,.612-.448l.011,0,.549.07c.723.093,1.542.2,2.27.273a2.1,2.1,0,0,0,2.5-1.472,2.241,2.241,0,0,0-1.8-2.475.537.537,0,0,0-.055-.014l-2.459-.451a10.161,10.161,0,0,0-3.944.23c-.415.076-.887.161-1.412.247l-1.166.192-.359-.367L6.573,21.776A7.636,7.636,0,0,1,5.444,13.21.446.446,0,0,0,4.65,12.8a8.541,8.541,0,0,0,1.274,9.586l.007.007,1.048,1.073-1.951.321v-.051a.654.654,0,0,0-.678-.625H.676A.653.653,0,0,0,0,23.738v7.855a.653.653,0,0,0,.676.625H4.349a.654.654,0,0,0,.678-.625V31.54l4.015,1.092,3.706,1.007a7.17,7.17,0,0,0,2.149.371,9.251,9.251,0,0,0,2.926-.627l.3-.1,7.3-2.342a2.278,2.278,0,0,0,1.611-1.63,1.59,1.59,0,0,0-.468-1.535,2.6,2.6,0,0,0-2.675-.263l-2.651.518L26.754,22.4l.007-.007ZM.893,31.326v-7.32H4.134v7.32Zm23.251-2.953a1.946,1.946,0,0,1,1.828.066.7.7,0,0,1,.2.685,1.4,1.4,0,0,1-1.011.969l-7.3,2.342-.3.1c-1.747.564-2.624.848-4.543.251l-.015,0L5.027,30.614v-5.92l4.337-.713c.532-.088,1.008-.174,1.427-.251a9.384,9.384,0,0,1,3.623-.229l2.43.446c.948.311,1.274.96,1.176,1.434-.114.548-.718.849-1.54.766-.716-.073-1.529-.178-2.246-.27l-.546-.07a1.427,1.427,0,0,0-1.609,1.127,1.512,1.512,0,0,0-.036.439,1.481,1.481,0,0,0,1.1,1.342c.018.006.265.052.265.052l3.646.667.012,0a4.028,4.028,0,0,0,1.539.026c.121-.021.614-.121.741-.146l.8-.157s3.981-.78,4-.785Z" fill="#769ed8"/>
  </g>
</svg>
