<svg xmlns="http://www.w3.org/2000/svg" xmlns:xlink="http://www.w3.org/1999/xlink" width="34.755" height="34.755" viewBox="0 0 34.755 34.755">
  <defs>
    <clipPath id="clip-path">
      <path id="path4635" d="M0-682.665H34.755v34.755H0Z" transform="translate(0 682.665)" fill="#bf2025"/>
    </clipPath>
  </defs>
  <g id="Help-Other-Join" transform="translate(0 682.665)">
    <g id="g4631" transform="translate(0 -682.665)">
      <g id="g4633" clip-path="url(#clip-path)">
        <g id="g4639" transform="translate(11.206 30.463)">
          <path id="path4641" d="M-70.619-66.676h-2.946a.685.685,0,0,1-.685-.685.685.685,0,0,1,.685-.685h2.9V-69.6h-11.9v1.559h2.9a.685.685,0,0,1,.685.685.685.685,0,0,1-.685.685h-2.954A1.321,1.321,0,0,1-83.936-68v-1.659a1.321,1.321,0,0,1,1.32-1.32h12a1.321,1.321,0,0,1,1.32,1.32V-68A1.321,1.321,0,0,1-70.619-66.676Z" transform="translate(83.936 70.974)" fill="#bf2025"/>
        </g>
        <g id="g4643" transform="translate(9.213 19.955)">
          <path id="path4645" d="M-71.483-71.305a.685.685,0,0,1-.685-.685v-2.367a4.127,4.127,0,0,0-.824-.7,4.527,4.527,0,0,1-2.325-3.494v-2.374a2.261,2.261,0,0,1,2.259-2.259A2.262,2.262,0,0,1-70.8-80.924v1.976a.685.685,0,0,1-.685.685.685.685,0,0,1-.685-.685v-1.976a.891.891,0,0,0-.891-.889.89.89,0,0,0-.889.889v2.353c.035,1.133.916,1.784,1.769,2.413.7.517,1.363,1.006,1.381,1.785v2.382A.685.685,0,0,1-71.483-71.305Z" transform="translate(75.317 83.182)" fill="#bf2025"/>
        </g>
        <g id="g4647" transform="translate(21.816 15.526)">
          <path id="path4649" d="M-72.529-192.237a.686.686,0,0,1-.136-.014.685.685,0,0,1-.549-.671v-1.693c0-.94.283-1.6.777-1.8a.8.8,0,0,1,.89.182c.705.711.083,2.546-.351,3.577A.685.685,0,0,1-72.529-192.237Zm-1.5-10.562a.685.685,0,0,1-.685-.685v-2.8a2.262,2.262,0,0,1,2.261-2.259,2.262,2.262,0,0,1,2.261,2.259v2.263a.685.685,0,0,1-.685.685.685.685,0,0,1-.685-.685v-2.263a.891.891,0,0,0-.891-.889.891.891,0,0,0-.891.889v2.8A.685.685,0,0,1-74.03-202.8Z" transform="translate(74.714 208.543)" fill="#bf2025"/>
        </g>
        <g id="g4651" transform="translate(12.363 12.992)">
          <path id="path4653" d="M-12.766-208.078a.685.685,0,0,1-.685-.685V-217.7a2.263,2.263,0,0,1,2.261-2.261A2.263,2.263,0,0,1-8.929-217.7a.685.685,0,0,1-.685.685.685.685,0,0,1-.685-.685.892.892,0,0,0-.891-.891.892.892,0,0,0-.891.891v8.938A.685.685,0,0,1-12.766-208.078Z" transform="translate(13.451 219.961)" fill="#bf2025"/>
        </g>
        <g id="g4655" transform="translate(18.666 13.625)">
          <path id="path4657" d="M-9.616-129.088a.685.685,0,0,1-.685-.685v-4.7a.892.892,0,0,0-.891-.891.891.891,0,0,0-.889.891v4.7a.685.685,0,0,1-.685.685.685.685,0,0,1-.685-.685v-4.7a2.262,2.262,0,0,1,2.259-2.261,2.263,2.263,0,0,1,2.261,2.261v4.7A.685.685,0,0,1-9.616-129.088Z" transform="translate(13.451 136.734)" fill="#bf2025"/>
        </g>
        <g id="g4659" transform="translate(15.514 11.726)">
          <path id="path4661" d="M-9.614-164.49a.685.685,0,0,1-.685-.685v-6.6a.892.892,0,0,0-.891-.891.892.892,0,0,0-.891.891v6.6a.685.685,0,0,1-.685.685.685.685,0,0,1-.685-.685v-6.6a2.263,2.263,0,0,1,2.261-2.261,2.263,2.263,0,0,1,2.261,2.261v6.6A.685.685,0,0,1-9.614-164.49Z" transform="translate(13.451 174.036)" fill="#bf2025"/>
        </g>
        <g id="g4663" transform="translate(21.999 -0.006)">
          <path id="path4665" d="M-214.567-171.421a1.307,1.307,0,0,1-.935-.389l-8.482-8.48a1.324,1.324,0,0,1,0-1.867l1.172-1.172a1.317,1.317,0,0,1,.934-.385,1.31,1.31,0,0,1,.933.385l8.483,8.484a1.32,1.32,0,0,1,0,1.865l-1.172,1.172A1.312,1.312,0,0,1-214.567-171.421Zm-8.413-9.8,8.414,8.412,1.1-1.1-8.413-8.413Z" transform="translate(224.368 183.713)" fill="#bf2025"/>
        </g>
        <g id="g4667" transform="translate(24.967 10.363)">
          <path id="path4669" d="M-12.636-179.841q-.093,0-.186-.008a.685.685,0,0,1-.627-.738.685.685,0,0,1,.738-.627.886.886,0,0,0,.7-.256l1.664-1.664c.776-.825.612-1.909.454-2.956-.13-.861-.253-1.675.285-2.239l1.685-1.685a.685.685,0,0,1,.968,0,.685.685,0,0,1,0,.968l-1.674,1.674a4.152,4.152,0,0,0,.09,1.077,4.526,4.526,0,0,1-.825,4.115l-1.679,1.679A2.252,2.252,0,0,1-12.636-179.841Z" transform="translate(13.451 190.216)" fill="#bf2025"/>
        </g>
        <g id="g4671" transform="translate(11.477 2.617)">
          <path id="path4673" d="M-36.2-216a.687.687,0,0,1-.138-.014,2.248,2.248,0,0,1-1.144-.614,2.247,2.247,0,0,1-.661-1.6,2.242,2.242,0,0,1,.659-1.6l5.549-5.549a3.092,3.092,0,0,1,2.519-1.024,1.512,1.512,0,0,0,1.35-.512l1.2-1.2a.685.685,0,0,1,.968,0,.685.685,0,0,1,0,.968l-1.2,1.2a2.828,2.828,0,0,1-2.324.913,1.76,1.76,0,0,0-1.545.623l-5.549,5.55a.881.881,0,0,0-.258.628.886.886,0,0,0,.26.631.882.882,0,0,0,.449.24.685.685,0,0,1,.534.808A.685.685,0,0,1-36.2-216Z" transform="translate(38.144 228.311)" fill="#bf2025"/>
        </g>
        <g id="g4675" transform="translate(0.464 0.079)">
          <path id="path4677" d="M-173.9-17.08a1.31,1.31,0,0,1,.933.385l1.172,1.172a1.312,1.312,0,0,1,.387.936,1.308,1.308,0,0,1-.388.932l-8.48,8.48a1.313,1.313,0,0,1-.934.387,1.307,1.307,0,0,1-.935-.389l-1.17-1.168a1.324,1.324,0,0,1,0-1.867l8.483-8.484A1.309,1.309,0,0,1-173.9-17.08Zm1.1,2.491-1.1-1.1-8.413,8.413,1.1,1.1Z" transform="translate(183.704 17.08)" fill="#bf2025"/>
        </g>
        <g id="g4679" transform="translate(10.833 2.701)">
          <path id="path4681" d="M-141.632-57.628l-.006-.006c-.819-.77-1.9-.607-2.95-.449-.862.13-1.676.253-2.24-.287l-1.685-1.685a.685.685,0,0,1,0-.968.685.685,0,0,1,.968,0l1.674,1.674a4.107,4.107,0,0,0,1.079-.088,4.525,4.525,0,0,1,4.113.826l-.464.5Z" transform="translate(148.713 61.224)" fill="#bf2025"/>
        </g>
        <g id="g4683" transform="translate(3.087 10.448)">
          <path id="path4685" d="M-147.778-190.571a.683.683,0,0,1-.484-.2l-4.508-4.506a3.1,3.1,0,0,1-1.024-2.52,1.512,1.512,0,0,0-.512-1.35l-1.2-1.2a.685.685,0,0,1,0-.968.685.685,0,0,1,.968,0l1.2,1.2a2.827,2.827,0,0,1,.913,2.323,1.763,1.763,0,0,0,.623,1.547l4.508,4.506a.685.685,0,0,1,0,.968A.683.683,0,0,1-147.778-190.571Z" transform="translate(155.705 201.516)" fill="#bf2025"/>
        </g>
        <g id="g4687" transform="translate(17.842 33.392)">
          <path id="path4689" d="M-12.746-12.081a.686.686,0,0,1-.686-.685.684.684,0,0,1,.684-.685h0a.685.685,0,0,1,.685.685A.685.685,0,0,1-12.746-12.081Z" transform="translate(13.432 13.451)" fill="#bf2025"/>
        </g>
        <g id="g4691" transform="translate(24.968 22.41)">
          <path id="path4693" d="M-12.766-12.158a.683.683,0,0,1-.685-.683v0a.685.685,0,0,1,.685-.685.685.685,0,0,1,.685.685A.687.687,0,0,1-12.766-12.158Z" transform="translate(13.451 13.529)" fill="#bf2025"/>
        </g>
      </g>
    </g>
  </g>
</svg>
