<svg xmlns="http://www.w3.org/2000/svg" width="21.284" height="21.002" viewBox="0 0 21.284 21.002">
  <g id="Home-fill" transform="translate(12692.642 13923.636)">
    <g id="Group_309" data-name="Group 309" transform="translate(-12692 -13923.136)">
      <path id="home" d="M19.463,8.7h0L11.3.539a1.841,1.841,0,0,0-2.6,0L.543,8.694.535,8.7A1.841,1.841,0,0,0,1.76,11.839l.057,0h.325v6A2.158,2.158,0,0,0,4.3,20H7.489a.586.586,0,0,0,.586-.586V14.708a.984.984,0,0,1,.983-.983h1.883a.984.984,0,0,1,.983.983v4.708a.586.586,0,0,0,.586.586H15.7a2.158,2.158,0,0,0,2.155-2.155v-6h.3a1.842,1.842,0,0,0,1.3-3.143Zm0,0" transform="translate(0 0.001)" fill="#003c5e" stroke="#003c5e" stroke-width="1"/>
    </g>
  </g>
</svg>
