<svg id="login" xmlns="http://www.w3.org/2000/svg" xmlns:xlink="http://www.w3.org/1999/xlink" width="236.106" height="238.237" viewBox="0 0 236.106 238.237">
  <defs>
    <linearGradient id="linear-gradient" y1="0.5" x2="1" y2="0.5" gradientUnits="objectBoundingBox">
      <stop offset="0" stop-color="#060709"/>
      <stop offset="1" stop-color="#bf2025"/>
    </linearGradient>
    <linearGradient id="linear-gradient-2" y1="0.5" x2="1" y2="0.5" gradientUnits="objectBoundingBox">
      <stop offset="0" stop-color="#bf2025"/>
      <stop offset="1" stop-color="#060709"/>
    </linearGradient>
    <linearGradient id="linear-gradient-5" y1="0.5" x2="1" y2="0.5" gradientUnits="objectBoundingBox">
      <stop offset="0" stop-color="#bf2025"/>
      <stop offset="1" stop-color="#150081"/>
    </linearGradient>
    <linearGradient id="linear-gradient-7" y1="0.5" x2="1" y2="0.5" gradientUnits="objectBoundingBox">
      <stop offset="0" stop-color="#ae53fc"/>
      <stop offset="1" stop-color="#3b48ed"/>
    </linearGradient>
  </defs>
  <g id="Group_158346" data-name="Group 158346" transform="translate(79.115 190.301)">
    <path id="Path_193989" data-name="Path 193989" d="M7.292,6.459l-5.329-.9L0,9.838l5.328.9a4.372,4.372,0,0,0,.132.74,4.8,4.8,0,0,0,.263.732,5.467,5.467,0,0,0,.393.718,6.471,6.471,0,0,0,.522.7l-3.9,2.239,5.37,3.222,3.909-2.239q.579.18,1.18.322t1.219.247q.617.1,1.247.171t1.264.094l1.435,3.155,7.378-1.054L24.3,16.627q.264-.1.521-.2t.507-.221q.25-.115.491-.239t.473-.256q.232-.133.449-.271t.419-.282q.2-.143.389-.291t.36-.3l5.378.911,1.986-4.3-5.384-.908a4.39,4.39,0,0,0-.133-.744,4.81,4.81,0,0,0-.265-.735,5.493,5.493,0,0,0-.4-.72,6.449,6.449,0,0,0-.527-.7l3.937-2.255L27.089,1.892l-3.93,2.255q-.581-.179-1.184-.32t-1.222-.244q-.619-.1-1.249-.168t-1.265-.092L16.8.173,9.449,1.251,10.88,4.4q-.263.1-.519.2t-.5.221q-.248.115-.488.239T8.9,5.316q-.231.133-.446.271t-.416.281q-.2.143-.387.291T7.292,6.459ZM13.215,7.9a7.38,7.38,0,0,1,2.042-.771,10.343,10.343,0,0,1,4.651.054A7.576,7.576,0,0,1,21.955,8a4.29,4.29,0,0,1,1.36,1.214,2.4,2.4,0,0,1,.454,1.368,2.353,2.353,0,0,1-.454,1.357,4.138,4.138,0,0,1-1.36,1.181,7.392,7.392,0,0,1-2.047.769,10.1,10.1,0,0,1-2.327.235,10.172,10.172,0,0,1-2.325-.295,7.558,7.558,0,0,1-2.042-.82,4.279,4.279,0,0,1-1.355-1.213,2.4,2.4,0,0,1-.452-1.365,2.353,2.353,0,0,1,.452-1.354A4.131,4.131,0,0,1,13.215,7.9Z" transform="translate(0 0)" opacity="0.44" fill="url(#linear-gradient)"/>
    <g id="Group_158345" data-name="Group 158345" transform="translate(0 1.28)">
      <path id="Path_193990" data-name="Path 193990" d="M1.115,5.7A3.334,3.334,0,0,1,.208,4.548,2.217,2.217,0,0,1,.021,3.316,2.5,2.5,0,0,1,.553,2.121,4.279,4.279,0,0,1,1.806,1.08,7.379,7.379,0,0,1,3.848.309,10.339,10.339,0,0,1,8.5.362a7.578,7.578,0,0,1,2.047.819,4.592,4.592,0,0,1,1.157.95A2.754,2.754,0,0,1,12.284,3.2a2.155,2.155,0,0,1,0,1.1,2.659,2.659,0,0,1-.572,1.057q-.109-.13-.237-.257t-.274-.248q-.146-.122-.311-.237t-.349-.226A7.578,7.578,0,0,0,8.5,3.574a10.342,10.342,0,0,0-4.651-.056,7.374,7.374,0,0,0-2.042.769q-.183.1-.348.217t-.31.23Q1,4.852.876,4.975t-.236.25q.051.061.107.122t.115.12q.06.059.123.118T1.115,5.7Z" transform="translate(11.409 5.536)" fill="#073669"/>
      <path id="Path_193991" data-name="Path 193991" d="M1.992,4.637q.232-.133.449-.271t.419-.282q.2-.143.389-.291t.36-.3L8.988,4.4,10.96.134l.014,0-.014.03.014,0L10.96.2l.014,0-.014.03.014,0-.014.03.014,0-.014.03.014,0-.014.03.014,0-.014.03.014,0-.014.03.014,0L10.96.42l.014,0-.014.03.014,0L10.96.484l.014,0L10.96.516l.014,0-.014.03.014,0L10.96.58l.014,0-.014.03.014,0-.014.03.014,0-.014.03.014,0-.014.03.014,0-.014.03.014,0-.014.03.014,0L10.96.8l.014,0-.014.03.014,0-.014.03.014,0L10.96.9l.014,0-.014.03.014,0-.014.03.014,0-.014.03.014,0-.014.03.014,0-.014.03.014,0-.014.029.014,0-.014.03.014,0-.014.03.014,0-.014.03.014,0-.014.03.014,0-.014.03.014,0-.014.03.014,0-.014.03.014,0-.014.03.014,0-.014.029.014,0-.014.03.014,0-.014.03.014,0-.014.03.014,0-.014.03.014,0-.014.03.014,0-.014.03.014,0-.014.03.014,0-.014.03.014,0-.014.03.014,0-.014.03.014,0-.014.03.014,0-.014.03.014,0-.014.029.014,0-.014.03.014,0-.014.03.014,0-.014.03.014,0-.014.03.014,0-.014.03.014,0-.014.03.014,0-.014.03.014,0-.014.03.014,0-.014.03.014,0-.014.03.014,0-.014.03.014,0-.014.03.014,0-.014.03.014,0-.014.03.014,0-.014.03.014,0-.014.03.014,0-.014.03.014,0-.014.029.014,0-.014.03.014,0-.014.03.014,0-.014.029.014,0-.014.03.014,0-.014.03.014,0-.014.03.014,0-.014.03.014,0-.014.03.014,0-.014.03.014,0-.014.029.014,0-.014.03.014,0-.014.03.014,0-.014.03.014,0-.014.03.014,0-.014.03.014,0-.014.029.014,0-.014.03.014,0-.014.03.014,0-.014.03.014,0L10.96,3l.014,0-.014.03.014,0-.014.03.014,0-.014.03.014,0-.014.03.014,0-.014.03.014,0-.014.03.014,0-.014.03.014,0-.014.03.014,0-.014.03.014,0-.014.03.014,0-1.985,4.3L3.61,6.709q-.173.152-.36.3T2.86,7.3q-.2.143-.419.281t-.449.271l-.187.1-.19.1-.193.1-.2.1.211.463L0,5.556q.264-.1.521-.2t.507-.221q.249-.115.491-.239T1.992,4.637Z" transform="translate(24.299 9.791)" fill="#073669"/>
      <path id="Path_193992" data-name="Path 193992" d="M5.37,3.221,9.279.983q.579.18,1.18.322t1.219.247q.617.1,1.247.171t1.264.095l1.435,3.155L23,3.918l-.014,0L23,3.95l-.014,0,.014.03-.014,0,.014.03-.014,0,.014.03-.014,0,.014.03h-.014l.014.03-.014,0,.014.03-.014,0,.014.03-.014,0L23,4.2l-.014,0,.014.03-.014,0,.014.03-.014,0L23,4.3l-.014,0,.014.03-.014,0,.014.03-.014,0L23,4.4l-.014,0,.014.03-.014,0,.014.03-.014,0,.014.03-.014,0,.014.03h-.014l.014.03-.014,0,.014.03-.014,0,.014.03-.014,0L23,4.65l-.014,0,.014.03-.014,0,.014.03-.014,0,.014.03-.014,0,.014.03-.014,0,.014.03-.014,0,.014.03-.014,0,.014.03-.014,0L23,4.9l-.014,0,.014.03-.014,0,.014.03-.014,0L23,5l-.014,0,.014.03-.014,0,.014.03-.014,0L23,5.1l-.014,0,.014.03-.014,0L23,5.16l-.014,0,.014.03-.014,0,.014.03-.014,0,.014.03-.014,0,.014.03-.014,0,.014.03-.014,0,.014.03-.014,0,.014.03-.014,0,.014.03-.014,0,.014.03-.014,0,.014.03-.014,0L23,5.51l-.014,0,.014.03-.014,0,.014.03-.014,0,.014.03-.014,0,.014.03-.014,0,.014.03-.014,0L23,5.7l-.014,0,.014.03-.014,0,.014.03-.014,0L23,5.8l-.014,0,.014.03-.014,0L23,5.86l-.014,0,.014.03-.014,0,.014.03-.014,0,.014.03-.014,0,.014.03-.014,0,.014.03-.014,0,.014.03-.014,0,.014.03-.014,0,.014.03-.014,0,.014.03-.014,0,.014.03-.014,0L23,6.21l-.014,0,.014.03-.014,0,.014.03-.014,0,.014.03-.014,0,.014.03-.014,0,.014.03-.014,0L23,6.4l-.014,0,.014.03-.014,0,.014.03-.014,0L23,6.5l-.014,0,.014.03-.014,0L23,6.56l-.014,0,.014.03-.014,0,.014.03-.014,0,.014.03-.014,0,.014.03-.014,0,.014.03-.014,0,.014.03-.014,0,.014.03-.014,0,.014.03-.014,0,.014.03-.014,0,.014.03-.014,0L23,6.91l-.014,0,.014.03-.014,0,.014.03-.014,0,.014.03-.014,0,.014.03-.014,0,.014.03-.014,0L23,7.1l-.014,0,.014.03-7.378,1.05L14.188,5.028q-.635-.029-1.264-.1t-1.247-.172q-.617-.105-1.219-.248T9.279,4.19L5.37,6.427,0,3.2l.027-.015L0,3.17l.027-.016L0,3.138l.027-.015L0,3.107l.027-.016L0,3.075.027,3.06,0,3.044l.027-.016L0,3.012.027,3,0,2.98l.027-.015L0,2.948l.027-.015L0,2.917.027,2.9,0,2.885l.027-.015L0,2.853l.027-.015L0,2.821l.027-.015L0,2.79l.027-.015L0,2.758l.027-.016L0,2.726l.027-.016L0,2.695l.027-.015L0,2.663l.027-.015L0,2.631l.027-.016L0,2.6l.027-.015L0,2.568l.027-.015L0,2.536l.027-.015L0,2.5l.027-.015L0,2.473l.027-.015L0,2.441l.027-.015L0,2.409l.027-.015L0,2.377l.027-.015L0,2.346.027,2.33,0,2.314.027,2.3,0,2.282l.027-.016L0,2.251l.027-.016L0,2.219.027,2.2,0,2.188l.027-.015L0,2.156.027,2.14,0,2.124l.027-.015L0,2.092l.027-.016L0,2.061l.027-.016L0,2.029l.027-.016L0,2l.027-.015L0,1.965.027,1.95,0,1.934l.027-.016L0,1.9l.027-.016L0,1.87l.027-.016L0,1.839l.027-.015L0,1.807l.027-.015L0,1.775.027,1.76,0,1.744l.027-.016L0,1.712.027,1.7,0,1.68l.027-.016L0,1.649l.027-.016L0,1.617.027,1.6,0,1.585l.027-.016L0,1.554l.027-.016L0,1.522l.027-.016L0,1.49l.027-.016L0,1.458l.027-.016L0,1.427l.027-.016L0,1.395l.027-.016L0,1.363l.027-.016L0,1.331l.027-.015L0,1.3l.027-.015L0,1.268l.027-.016L0,1.236l.027-.015L0,1.2l.027-.016L0,1.173l.027-.015L0,1.141l.027-.016L0,1.109l.027-.015L0,1.078l.027-.016L0,1.046.027,1.03,0,1.014.027,1,0,.983.027.967,0,.951.027.935,0,.919.027.9,0,.888.027.872,0,.856.027.84,0,.824.027.809,0,.793.027.777,0,.761.027.745,0,.729.027.714,0,.7.027.682,0,.666.027.65,0,.634.027.619,0,.6.027.587,0,.571.027.555,0,.539.027.523,0,.507.027.492,0,.475.027.46,0,.444.027.428,0,.412.027.4,0,.381.027.365,0,.349.027.333,0,.317.027.3,0,.285.027.27,0,.253.027.238,0,.222.027.206,0,.19.027.174,0,.158.027.143,0,.127.027.111,0,.095.027.079,0,.063.027.048,0,.032.027.016,0,0Z" transform="translate(2.736 14.586)" fill="#073669"/>
      <path id="Path_193993" data-name="Path 193993" d="M.014,0,0,0,5.328.9a4.377,4.377,0,0,0,.132.74,4.8,4.8,0,0,0,.263.732,5.469,5.469,0,0,0,.393.718,6.453,6.453,0,0,0,.522.7l-1.253.719c-.006-.034-.012-.067-.018-.1s-.011-.067-.016-.1-.009-.067-.013-.1-.008-.067-.011-.1L0,3.2l.014-.029L0,3.169.014,3.14,0,3.137l.014-.029L0,3.105l.014-.029L0,3.074l.014-.029L0,3.042l.014-.029L0,3.01l.014-.03L0,2.979l.014-.029L0,2.947l.014-.029L0,2.915l.014-.029L0,2.884l.014-.029L0,2.852l.014-.029L0,2.82l.014-.029L0,2.789l.014-.029L0,2.757l.014-.029L0,2.725.014,2.7,0,2.694l.014-.029L0,2.662l.014-.029L0,2.63.014,2.6,0,2.6l.014-.029L0,2.567l.014-.029L0,2.535l.014-.029L0,2.5l.014-.029L0,2.472l.014-.03L0,2.44l.014-.029L0,2.408l.014-.029L0,2.377l.014-.029L0,2.345l.014-.029L0,2.313l.014-.029L0,2.282l.014-.03L0,2.25.014,2.22,0,2.218l.014-.029L0,2.186l.014-.029L0,2.155l.014-.029L0,2.123l.014-.029L0,2.091l.014-.029L0,2.06.014,2.03,0,2.028.014,2,0,2l.014-.029L0,1.965l.014-.029L0,1.933.014,1.9,0,1.9l.014-.029L0,1.87.014,1.84,0,1.838l.014-.029L0,1.806l.014-.029L0,1.775l.014-.029L0,1.743l.014-.029L0,1.711l.014-.03L0,1.679.014,1.65,0,1.648l.014-.029L0,1.616l.014-.029L0,1.584l.014-.029L0,1.553l.014-.029L0,1.521l.014-.029L0,1.489.014,1.46,0,1.458l.014-.029L0,1.426.014,1.4,0,1.394l.014-.029L0,1.362l.014-.029L0,1.331.014,1.3,0,1.3.014,1.27,0,1.267l.014-.029L0,1.236l.014-.029L0,1.2l.014-.029L0,1.172l.014-.029L0,1.141l.014-.029L0,1.109.014,1.08,0,1.077l.014-.029L0,1.046l.014-.029L0,1.014.014.985,0,.982.014.953,0,.951.014.921,0,.919.014.89,0,.887.014.858,0,.856.014.826,0,.824.014.795,0,.792.014.763,0,.761.014.731,0,.729.014.7,0,.7.014.668,0,.666.014.636,0,.634.014.6,0,.6.014.573,0,.57.014.541,0,.539.014.509,0,.507.014.478,0,.475.014.446,0,.444.014.414,0,.412.014.383,0,.38.014.351,0,.349.014.319,0,.317.014.288,0,.285.014.256,0,.254.014.224,0,.222.014.193,0,.19.014.161,0,.158.014.129,0,.127.014.1,0,.1.014.066,0,.063.014.034,0,.032Z" transform="translate(0 8.557)" fill="#073669"/>
      <path id="Path_193994" data-name="Path 193994" d="M.21,3.638,0,3.176l.014,0L0,3.145l.014,0L0,3.113l.014,0L0,3.081l.014,0L0,3.049l.014,0L0,3.018l.014,0L0,2.986l.014,0L0,2.954l.014,0L0,2.922l.014,0L0,2.891l.014,0L0,2.859l.014,0L0,2.827l.014,0L0,2.8l.014,0L0,2.764l.014,0L0,2.732l.014,0L0,2.7l.014,0L0,2.669l.014,0L0,2.637l.014,0L0,2.605l.014,0L0,2.573l.014,0L0,2.542l.014,0L0,2.51l.014,0L0,2.478l.014,0L0,2.446l.014,0L0,2.415l.014,0L0,2.383l.014,0L0,2.351l.014,0L0,2.319l.014,0L0,2.287l.014,0L0,2.256l.014,0L0,2.224l.014,0L0,2.192l.014,0L0,2.161l.014,0L0,2.129l.014,0L0,2.1l.014,0L0,2.065l.014,0L0,2.034l.014,0L0,2,.014,2,0,1.97l.014,0L0,1.938l.014,0L0,1.907l.014,0L0,1.875l.014,0L0,1.843l.014,0L0,1.812l.014,0L0,1.78l.014,0L0,1.748l.014,0L0,1.716l.014,0L0,1.684l.014,0L0,1.653l.014,0L0,1.621l.014,0L0,1.589l.014,0L0,1.557l.014,0L0,1.526l.014,0L0,1.494l.014,0L0,1.462l.014,0L0,1.431l.014,0L0,1.4l.014,0L0,1.367l.014,0L0,1.335l.014,0L0,1.3l.014,0L0,1.272l.014,0L0,1.24l.014,0L0,1.208l.014,0L0,1.177l.014,0L0,1.145l.014,0L0,1.113l.014,0L0,1.081l.014,0L0,1.05l.014,0L0,1.018l.014,0L0,.986l.014,0L0,.954l.014,0L0,.923l.014,0L0,.891l.014,0L0,.859l.014,0L0,.827l.014,0L0,.8l.014,0L0,.764l.014,0L0,.732l.014,0L0,.7.014.7,0,.669l.014,0L0,.637l.014,0L0,.605.014.6,0,.574l.014,0L0,.542l.014,0L0,.51l.014,0L0,.478l.014,0L0,.447l.014,0L0,.415l.014,0L0,.383l.014,0L0,.351l.014,0L0,.319l.014,0L0,.288l.014,0L0,.256l.014,0L0,.224l.014,0L0,.193l.014,0L0,.161l.014,0L0,.129l.014,0L0,.1.014.1,0,.066l.014,0L0,.034l.014,0L0,0,.014,0,1.431,3.115q-.158.059-.314.121t-.308.128q-.153.065-.3.134t-.3.14Z" transform="translate(9.449 0)" fill="#073669"/>
      <path id="Path_193995" data-name="Path 193995" d="M1.263,4.793a4.572,4.572,0,0,0-.169-.64,5.011,5.011,0,0,0-.267-.632A5.628,5.628,0,0,0,.462,2.9,6.5,6.5,0,0,0,0,2.3L3.937.044,3.91.059l.027.016L3.91.091l.027.016L3.91.123l.027.016L3.91.155l.027.016L3.91.187,3.937.2,3.91.219l.027.016L3.91.251l.027.016L3.91.283,3.937.3,3.91.314,3.937.33,3.91.346l.027.016L3.91.378l.027.016L3.91.41l.027.016L3.91.442l.027.016L3.91.474,3.937.49,3.91.506l.027.016L3.91.538l.027.016L3.91.569l.027.016L3.91.6l.027.016L3.91.633l.027.016L3.91.665l.027.016L3.91.7l.027.016L3.91.729l.027.016L3.91.761l.027.016L3.91.792l.027.016L3.91.824l.027.016L3.91.856l.027.016L3.91.888,3.937.9,3.91.92l.027.016L3.91.952l.027.016L3.91.984,3.937,1l-.027.016.027.016-.027.016.027.016-.027.016.027.016-.027.016.027.016-.027.016.027.016-.027.016.027.016-.027.015.027.016-.027.016.027.016-.027.016.027.016L3.91,1.3l.027.016-.027.016.027.016-.027.016.027.016L3.91,1.4l.027.016L3.91,1.43l.027.016-.027.016.027.016-.027.016.027.016-.027.016.027.016-.027.016.027.016-.027.015.027.016-.027.016.027.016-.027.016.027.016-.027.015.027.016-.027.016.027.016-.027.016.027.016L3.91,1.78l.027.016-.027.016.027.016-.027.016.027.016-.027.016.027.016-.027.016.027.016L3.91,1.94l.027.016-.027.016.027.016L3.91,2l.027.016-.027.016.027.016-.027.015.027.016L3.91,2.1l.027.016-.027.016.027.016-.027.016.027.016-.027.016.027.016-.027.016.027.016-.027.016.027.016L3.91,2.29l.027.016-.027.016.027.016-.027.016.027.016-.027.015.027.016-.027.016.027.016L3.91,2.45l.027.016-.027.016.027.016-.027.016.027.016-.027.016.027.016-.027.016.027.016-.027.016.027.016-.027.016.027.016-.027.016.027.016L3.91,2.7l.027.016-.027.016.027.016-.027.015.027.016L3.91,2.8l.027.016-.027.016.027.016-.027.016.027.016L3.91,2.9l.027.016-.027.016.027.016L3.91,2.96l.027.016-.027.016.027.016-.027.016.027.016-.027.015.027.016-.027.016.027.016-.027.016.027.016-.027.016.027.016-.027.016.027.016-.027.016.027.016-.027.016.027.016Z" transform="translate(28.568 3.79)" fill="#073669"/>
    </g>
  </g>
  <g id="Group_158348" data-name="Group 158348" transform="translate(108.932 176.169)">
    <path id="Path_193996" data-name="Path 193996" d="M5.089,4.472,1.37,3.859,0,6.833l3.719.615a3.026,3.026,0,0,0,.092.514,3.3,3.3,0,0,0,.183.508,3.79,3.79,0,0,0,.274.5,4.475,4.475,0,0,0,.364.483L1.91,11.014l3.747,2.224,2.727-1.564q.4.124.823.221t.85.168q.43.071.869.116t.881.063l1,2.186,5.139-.75-1-2.186q.184-.068.363-.142t.353-.154q.174-.08.342-.166t.33-.179q.162-.093.313-.189t.292-.2q.141-.1.271-.2t.25-.209l3.743.619,1.381-2.986-3.746-.618a3.033,3.033,0,0,0-.093-.515,3.305,3.305,0,0,0-.184-.509,3.78,3.78,0,0,0-.275-.5,4.439,4.439,0,0,0-.366-.484l2.74-1.571L18.887,1.265,16.15,2.837q-.4-.123-.825-.22t-.851-.167q-.431-.071-.87-.115t-.882-.061l-1-2.184L6.594.852l1,2.181q-.183.068-.362.142t-.352.155q-.173.08-.34.167t-.328.179q-.161.093-.311.189t-.29.2q-.14.1-.27.2T5.089,4.472Zm4.131.985a5.17,5.17,0,0,1,1.424-.539,7.246,7.246,0,0,1,3.242.028,5.275,5.275,0,0,1,1.426.564,2.968,2.968,0,0,1,.947.839,1.659,1.659,0,0,1,.316.948,1.633,1.633,0,0,1-.316.942,2.892,2.892,0,0,1-.947.822,5.185,5.185,0,0,1-1.426.538,7.073,7.073,0,0,1-1.621.169,7.112,7.112,0,0,1-1.62-.2A5.275,5.275,0,0,1,9.22,9.005a2.965,2.965,0,0,1-.945-.839,1.659,1.659,0,0,1-.315-.947,1.633,1.633,0,0,1,.315-.941A2.887,2.887,0,0,1,9.22,5.457Z" transform="translate(0 0)" opacity="0.44" fill="url(#linear-gradient-2)"/>
    <g id="Group_158347" data-name="Group 158347" transform="translate(0 0.873)">
      <path id="Path_193997" data-name="Path 193997" d="M.778,3.954a2.306,2.306,0,0,1-.633-.8A1.53,1.53,0,0,1,.014,2.3a1.735,1.735,0,0,1,.371-.831A2.989,2.989,0,0,1,1.259.746,5.173,5.173,0,0,1,2.683.207,7.237,7.237,0,0,1,5.924.235,5.276,5.276,0,0,1,7.35.8a3.177,3.177,0,0,1,.806.657,1.9,1.9,0,0,1,.4.74,1.489,1.489,0,0,1,0,.767,1.849,1.849,0,0,1-.4.734Q8.089,3.607,8,3.519T7.81,3.348q-.1-.084-.217-.164T7.35,3.028a5.274,5.274,0,0,0-1.426-.565,7.235,7.235,0,0,0-3.242-.029,5.167,5.167,0,0,0-1.424.539q-.128.073-.242.151T.8,3.284q-.1.082-.19.168t-.165.174q.036.042.074.084t.08.083l.086.081Q.731,3.915.778,3.954Z" transform="translate(7.961 3.839)" fill="#073669"/>
      <path id="Path_193998" data-name="Path 193998" d="M1.387,3.212q.162-.093.313-.189t.292-.2q.141-.1.271-.2t.25-.209l3.743.619L7.628.069h.009L7.628.091l.009,0-.009.02.009,0L7.628.135l.009,0L7.628.157l.009,0-.009.02.009,0L7.628.2l.009,0-.009.02.009,0-.009.02.009,0L7.628.268h.009L7.628.29l.009,0L7.628.312l.009,0L7.628.334h.009L7.628.356l.009,0L7.628.378l.009,0L7.628.4l.009,0-.009.02.009,0-.009.02.009,0L7.628.467l.009,0L7.628.489l.009,0-.009.02.009,0L7.628.533l.009,0L7.628.555h.009L7.628.577l.009,0L7.628.6l.009,0L7.628.622h.009L7.628.644l.009,0-.009.02.009,0L7.628.688l.009,0L7.628.71l.009,0L7.628.732h.009L7.628.754l.009,0L7.628.776l.009,0L7.628.8l.009,0L7.628.82l.009,0L7.628.843l.009,0-.009.02.009,0L7.628.887l.009,0-.009.02.009,0L7.628.931l.009,0L7.628.953l.009,0-.009.02.009,0L7.628,1l.009,0-.009.021h.009l-.009.021.009,0-.009.021.009,0-.009.02.009,0-.009.02.009,0-.009.02.009,0-.009.021.009,0-.009.021.009,0L7.628,1.2l.009,0-.009.021.009,0-.009.021.009,0-.009.02h.009l-.009.021.009,0-.009.021h.009l-.009.021.009,0-.009.02.009,0-.009.02.009,0L7.628,1.4l.009,0-.009.021h.009l-.009.021.009,0-.009.021.009,0-.009.021.009,0-.009.021.009,0-.009.021h.009l-.009.021.009,0-.009.021h.009l-.009.021h.009l-.009.021.009,0-.009.021.009,0-.009.02.009,0-.009.021.009,0L7.628,1.7h.009l-.009.021h.009l-.009.021.009,0-.009.02.009,0-.009.021.009,0-.009.02.009,0-.009.02.009,0-.009.021.009,0-.009.021h.009L7.628,1.9l.009,0-.009.021.009,0-.009.02.009,0-.009.021.009,0-.009.02.009,0-.009.02.009,0-.009.02.009,0-.009.021h.009l-.009.021.009,0L7.628,2.1h.009l-.009.021.009,0-.009.021.009,0-.009.021h.009l-.009.021.009,0-.009.021.009,0-.009.02.009,0-.009.02.009,0-.009.02.009,0L6.256,5.266,2.513,4.645q-.12.106-.25.209t-.271.2q-.141.1-.292.2t-.313.189l-.13.073-.132.07-.134.068-.136.067L1,6.04,0,3.854q.184-.068.363-.142t.353-.154q.174-.08.342-.166T1.387,3.212Z" transform="translate(16.944 6.765)" fill="#073669"/>
      <path id="Path_193999" data-name="Path 193999" d="M3.747,2.224,6.473.661q.4.123.823.221t.85.168q.43.071.869.116t.881.063l1,2.186,5.139-.75h-.009l.009.021-.009,0,.009.021h-.009l.009.021h-.009l.009.021h-.009l.009.021h-.009l.009.021h-.009l.009.021h-.009l.009.021h-.009l.009.021h-.009l.009.021h-.009l.009.021h-.009l.009.021h-.009l.009.02-.009,0,.009.021h-.009L16.036,3h-.009l.009.021h-.009l.009.021h-.009l.009.021h-.009l.009.021h-.009l.009.021h-.009l.009.021h-.009l.009.021h-.009l.009.021h-.009l.009.021h-.009l.009.021h-.009l.009.021h-.009l.009.021h-.009l.009.021h-.009l.009.021h-.009l.009.021h-.009l.009.021h-.009l.009.021h-.009l.009.021-.009,0,.009.021h-.009l.009.021h-.009l.009.021h-.009l.009.021h-.009l.009.021h-.009l.009.021h-.009l.009.021h-.009l.009.021h-.009l.009.021h-.009l.009.021h-.009l.009.021h-.009l.009.021h-.009l.009.021h-.009l.009.021h-.009l.009.021h-.009l.009.021h-.009l.009.021h-.009l.009.021h-.009l.009.021h-.009l.009.021-.009,0,.009.021-.009,0,.009.021h-.009l.009.021h-.009l.009.021h-.009l.009.021h-.009l.009.021h-.009l.009.021h-.009l.009.021h-.009l.009.021h-.009l.009.021h-.009l.009.021h-.009l.009.021h-.009l.009.021h-.009l.009.021h-.009l.009.021h-.009l.009.021h-.009l.009.021h-.009l.009.021h-.009l.009.021h-.009l.009.021-.009,0,.009.02-.009,0,.009.021h-.009l.009.021h-.009l.009.021h-.009l.009.021h-.009l.009.021h-.009l.009.021h-.009l.009.021h-.009l.009.021h-.009l.009.021h-.009l.009.021h-.009l.009.021h-.009l.009.021h-.009l.009.021h-.009l.009.021h-.009l.009.021h-.009l.009.021h-.009l.009.021h-.009l.009.021h-.009l.009.021-.009,0,.009.021-.009,0,.009.021h-.009l.009.021-.009,0,.009.021h-.009l.009.021h-.009l.009.021h-.009l.009.021h-.009l.009.021L10.9,5.642l-1-2.186q-.442-.018-.881-.063t-.869-.116q-.43-.071-.85-.169t-.823-.221L3.747,4.449,0,2.224l.019-.011L0,2.2l.019-.011L0,2.18l.019-.011L0,2.158l.019-.011L0,2.136l.019-.011L0,2.114.019,2.1,0,2.092l.019-.011L0,2.07l.019-.011L0,2.048l.019-.011L0,2.026l.019-.011L0,2l.019-.011L0,1.982l.019-.011L0,1.96l.019-.011L0,1.938l.019-.011L0,1.916.019,1.9,0,1.893l.019-.011L0,1.872l.019-.011L0,1.849l.019-.011L0,1.827l.019-.011L0,1.806l.019-.011L0,1.784l.019-.011L0,1.761l.019-.011L0,1.739l.019-.011L0,1.717l.019-.011L0,1.7l.019-.011L0,1.673l.019-.011L0,1.651.019,1.64,0,1.629l.019-.011L0,1.607.019,1.6,0,1.585l.019-.011L0,1.563l.019-.011L0,1.541.019,1.53,0,1.519l.019-.011L0,1.5l.019-.011L0,1.475l.019-.011L0,1.453l.019-.011L0,1.431.019,1.42,0,1.409.019,1.4,0,1.387l.019-.011L0,1.365l.019-.011L0,1.343l.019-.011L0,1.321.019,1.31,0,1.3l.019-.011L0,1.277l.019-.011L0,1.255l.019-.011L0,1.233l.019-.011L0,1.211.019,1.2,0,1.189l.019-.011L0,1.167l.019-.011L0,1.145l.019-.011L0,1.123l.019-.011L0,1.1.019,1.09,0,1.079l.019-.011L0,1.057l.019-.011L0,1.035l.019-.011L0,1.013.019,1,0,.991.019.98,0,.969.019.958,0,.947.019.936,0,.925.019.914,0,.9.019.892,0,.881.019.87,0,.859.019.848,0,.837.019.826,0,.815.019.8,0,.793.019.782,0,.771.019.76,0,.749.019.738,0,.727.019.716,0,.7.019.694,0,.683.019.672,0,.661.019.65,0,.639.019.628,0,.617.019.606,0,.594.019.584,0,.573.019.562,0,.55.019.54,0,.528.019.517,0,.507.019.5,0,.484.019.473,0,.462.019.452,0,.44.019.429,0,.418.019.407,0,.4.019.385,0,.374.019.363,0,.352.019.341,0,.33.019.319,0,.308.019.3,0,.286.019.275,0,.264.019.253,0,.242.019.231,0,.22.019.209,0,.2.019.187,0,.176.019.165,0,.154.019.143,0,.132.019.121,0,.11.019.1,0,.088.019.077,0,.066.019.055,0,.044.019.033,0,.022.019.011,0,0Z" transform="translate(1.91 10.141)" fill="#073669"/>
      <path id="Path_194000" data-name="Path 194000" d="M.009,0,0,0,3.719.615a3.024,3.024,0,0,0,.092.514,3.3,3.3,0,0,0,.183.508,3.8,3.8,0,0,0,.274.5,4.447,4.447,0,0,0,.364.483l-.874.5q-.006-.035-.012-.07t-.011-.07q-.005-.035-.009-.07c0-.023-.005-.047-.007-.07L0,2.223.009,2.2H0L.009,2.18H0l.009-.021H0l.009-.021H0l.009-.021H0l.009-.021H0L.009,2.07H0l.009-.021L0,2.047l.009-.02L0,2.025.009,2,0,2l.009-.02H0L.009,1.96H0l.009-.021H0l.009-.021H0l.009-.021H0l.009-.02H0L.009,1.85H0l.009-.021H0l.009-.021L0,1.8l.009-.02L0,1.783l.009-.02H0L.009,1.74H0l.009-.021H0L.009,1.7H0l.009-.021H0l.009-.021H0L.009,1.63H0l.009-.021H0l.009-.02L0,1.585l.009-.02L0,1.563l.009-.021H0L.009,1.52H0L.009,1.5H0l.009-.02H0l.009-.021H0l.009-.021H0l.009-.02H0l.009-.021L0,1.387l.009-.021H0l.009-.02L0,1.343l.009-.021H0L.009,1.3,0,1.3l.009-.021H0l.009-.021H0l.009-.021H0l.009-.021H0l.009-.02H0l.009-.021L0,1.166l.009-.02H0l.009-.02L0,1.122.009,1.1,0,1.1.009,1.08H0l.009-.021H0l.009-.021H0l.009-.02H0L.009.992H0L.009.97H0L.009.948H0L.009.926,0,.924.009.9H0L.009.882,0,.88.009.86H0L.009.838H0L.009.816H0L.009.794H0L.009.772H0L.009.75H0L.009.728H0L.009.706,0,.7.009.684H0L.009.662,0,.66.009.64,0,.638.009.618H0L.009.6H0L.009.574H0L.009.552H0L.009.53H0L.009.508H0L.009.486,0,.484.009.464,0,.462.009.442,0,.44.009.42,0,.418.009.4H0L.009.376H0L.009.354H0L.009.332H0L.009.31H0L.009.288H0L.009.266,0,.264.009.244H0L.009.222H0L.009.2,0,.2.009.177H0L.009.156H0L.009.133H0L.009.111H0L.009.089H0L.009.068H0L.009.046H0L.009.024H0Z" transform="translate(0 5.96)" fill="#073669"/>
      <path id="Path_194001" data-name="Path 194001" d="M.146,2.525,0,2.2H.01L0,2.183H.01L0,2.161H.01L0,2.139H.01L0,2.117H.01L0,2.095H.01L0,2.073H.01L0,2.051H.01L0,2.029H.01L0,2.007H.01L0,1.985H.01L0,1.963H.01L0,1.941H.01L0,1.919H.01L0,1.9H.01L0,1.875H.01L0,1.852H.01L0,1.83H.01L0,1.808H.01L0,1.786H.01L0,1.764H.01L0,1.742H.01L0,1.72H.01L0,1.7H.01L0,1.676H.01L0,1.654H.01L0,1.632H.01L0,1.61H.01L0,1.588H.01L0,1.566H.01L0,1.544H.01L0,1.522H.01L0,1.5H.01L0,1.478H.01L0,1.456l.01,0L0,1.434l.01,0L0,1.412H.01L0,1.39H.01L0,1.368H.01L0,1.346H.01L0,1.323H.01L0,1.3H.01L0,1.279H.01L0,1.257H.01L0,1.236H.01L0,1.213H.01L0,1.191H.01L0,1.169H.01L0,1.147H.01L0,1.125H.01L0,1.1H.01L0,1.081H.01L0,1.059H.01L0,1.037H.01L0,1.015l.01,0L0,.993l.01,0L0,.971l.01,0L0,.949l.01,0L0,.927H.01L0,.9H.01L0,.883H.01L0,.861H.01L0,.839H.01L0,.817H.01L0,.795H.01L0,.773H.01L0,.751H.01L0,.729H.01L0,.706H.01L0,.684H.01L0,.663H.01L0,.64H.01L0,.618H.01L0,.6H.01L0,.574l.01,0L0,.552l.01,0L0,.53H.01L0,.508H.01L0,.486H.01L0,.464H.01L0,.442H.01L0,.42H.01L0,.4H.01L0,.376H.01L0,.354H.01L0,.332H.01L0,.31H.01L0,.288H.01L0,.266H.01L0,.244H.01L0,.222H.01L0,.2H.01L0,.178H.01L0,.156H.01L0,.134H.01L0,.112l.01,0L0,.09H.01L0,.068l.01,0L0,.045H.01L0,.023H.01L0,0H.01L1,2.16q-.11.041-.219.084t-.215.089l-.211.093-.207.1Z" transform="translate(6.594)" fill="#073669"/>
      <path id="Path_194002" data-name="Path 194002" d="M.879,3.321a3.15,3.15,0,0,0-.118-.443A3.468,3.468,0,0,0,.576,2.44a3.882,3.882,0,0,0-.254-.429A4.477,4.477,0,0,0,0,1.594L2.74.023,2.721.034,2.74.045,2.721.056,2.74.067,2.721.078,2.74.089,2.721.1,2.74.111,2.721.122,2.74.133,2.721.144,2.74.155,2.721.166,2.74.177,2.721.188,2.74.2,2.721.211,2.74.222,2.721.233,2.74.244,2.721.255,2.74.266,2.721.277,2.74.288,2.721.3,2.74.31,2.721.321,2.74.332,2.721.343,2.74.354,2.721.365,2.74.376,2.721.387,2.74.4,2.721.409,2.74.421,2.721.432,2.74.443,2.721.454,2.74.465,2.721.476,2.74.487,2.721.5,2.74.509,2.721.52,2.74.531,2.721.542,2.74.553,2.721.564,2.74.575,2.721.586,2.74.6,2.721.608,2.74.619,2.721.63,2.74.642,2.721.653,2.74.664,2.721.675,2.74.686,2.721.7,2.74.708,2.721.719,2.74.73,2.721.741,2.74.752,2.721.763,2.74.774,2.721.785,2.74.8,2.721.807,2.74.818,2.721.829,2.74.84,2.721.851,2.74.862,2.721.874,2.74.885,2.721.9,2.74.907,2.721.918,2.74.929,2.721.94,2.74.951,2.721.962,2.74.973,2.721.984,2.74,1l-.019.011.019.011-.019.011.019.011-.019.011.019.011-.019.011.019.011-.019.011.019.011-.019.011.019.011-.019.011.019.011-.019.011.019.011-.019.011.019.011L2.721,1.2l.019.011-.019.011.019.011-.019.011.019.011-.019.011.019.011-.019.011L2.74,1.3l-.019.011.019.011-.019.011.019.011-.019.011.019.011-.019.011.019.011L2.721,1.4l.019.011-.019.011.019.011-.019.011.019.011-.019.011.019.011-.019.011L2.74,1.5l-.019.011.019.011-.019.011.019.011-.019.011.019.011-.019.011.019.011L2.721,1.6l.019.011-.019.011.019.011-.019.011.019.011-.019.011.019.011-.019.011L2.74,1.7l-.019.011.019.011-.019.011.019.011-.019.011.019.011-.019.011.019.011L2.721,1.8l.019.011-.019.011.019.011-.019.011.019.011-.019.011.019.011-.019.011L2.74,1.9l-.019.011.019.011-.019.011.019.011-.019.011.019.011-.019.011.019.011L2.721,2l.019.011-.019.011.019.011-.019.011.019.011-.019.011.019.011-.019.011L2.74,2.1l-.019.011.019.011-.019.011.019.011-.019.011.019.011-.019.011.019.011L2.721,2.2l.019.011-.019.011.019.011-.019.011.019.011Z" transform="translate(19.916 2.594)" fill="#073669"/>
    </g>
  </g>
  <g id="Group_158350" data-name="Group 158350" transform="translate(137.998 31.269)">
    <path id="Path_194003" data-name="Path 194003" d="M4.6,82.367a22.522,22.522,0,0,1-3.49-6.884,25.418,25.418,0,0,1,.146-15.334,22.836,22.836,0,0,1,3.621-6.857A34,34,0,0,1,8.5,49.4c1.3-1.221,2.662-2.388,4-3.573s2.654-2.387,3.857-3.678a23.508,23.508,0,0,0,3.191-4.211,23.276,23.276,0,0,0,2.108-4.988,52.868,52.868,0,0,0,1.252-5.323c.347-1.8.66-3.624,1.046-5.422a37.234,37.234,0,0,1,1.492-5.285,24.788,24.788,0,0,1,4.036-6.952,27.608,27.608,0,0,1,13.29-8.877A24.606,24.606,0,0,1,50.751.034a13.589,13.589,0,0,0-3.914,4.134,18.706,18.706,0,0,0-2.222,5.414,25.03,25.03,0,0,0-.7,6,26.5,26.5,0,0,0,.667,5.88c.431,1.863.975,3.71,1.544,5.551s1.163,3.679,1.694,5.524A51.23,51.23,0,0,1,49.143,38.1a27.715,27.715,0,0,1,.416,5.679,24.2,24.2,0,0,1-.846,5.465,28.761,28.761,0,0,1-1.982,5.185,34.7,34.7,0,0,1-2.892,4.8,40.234,40.234,0,0,1-3.578,4.32,52.741,52.741,0,0,1-4.049,3.814c-1.41,1.2-2.875,2.338-4.375,3.431s-3.032,2.142-4.581,3.167-3.11,2.026-4.667,3.023c-.719.46-1.441.922-2.172,1.369s-1.47.879-2.222,1.281-1.517.772-2.3,1.095a18.273,18.273,0,0,1-2.405.811,21.4,21.4,0,0,0-2.49.868c-.828.329-1.645.66-2.423.879a5.028,5.028,0,0,1-2.189.211A2.758,2.758,0,0,1,4.6,82.367Z" transform="translate(0)" fill="#c7dafb" opacity="0.47"/>
    <path id="Path_194004" data-name="Path 194004" d="M1.214,64.35q1.669-2.271,3.233-4.611T7.47,55q1.459-2.4,2.81-4.867t2.594-4.982c.012-.017.024-.034.034-.051s.021-.035.029-.054.017-.037.025-.056.014-.038.019-.057q.394-.8.778-1.611t.756-1.622q.372-.813.733-1.632t.71-1.642q1.788-.834,3.506-1.844T22.8,34.4q1.619-1.168,3.124-2.482t2.866-2.756a.668.668,0,0,0,.142-.23.688.688,0,0,0,.041-.258.7.7,0,0,0-.057-.254.681.681,0,0,0-.15-.218.669.669,0,0,0-.228-.142.678.678,0,0,0-.257-.041.684.684,0,0,0-.476.215q-1.187,1.258-2.489,2.416t-2.7,2.2q-1.394,1.045-2.87,1.969t-3.013,1.713q.655-1.617,1.267-3.252T19.184,30q.567-1.651,1.089-3.318t1-3.348l.022-.015.021-.015.021-.016.02-.018q1.306-1.218,2.564-2.5t2.461-2.61q1.2-1.332,2.349-2.714t2.229-2.809a.689.689,0,0,0,.119-.244.671.671,0,0,0-.245-.707.671.671,0,0,0-.243-.115.688.688,0,0,0-.711.253q-.905,1.193-1.856,2.354t-1.942,2.287q-.992,1.126-2.024,2.215t-2.1,2.138q.643-2.452,1.191-4.931t1-4.981q.45-2.5.8-5.024t.6-5.062a.668.668,0,0,0-.609-.734.681.681,0,0,0-.268.031A.691.691,0,0,0,24.2.708q-.154,1.564-.348,3.121T23.43,6.937q-.231,1.55-.5,3.093t-.575,3.076l-4.1-10.251a.663.663,0,0,0-.361-.367.672.672,0,0,0-.254-.052.689.689,0,0,0-.49.2.692.692,0,0,0-.2.471.676.676,0,0,0,.048.264l4.776,11.94c.006.014.012.028.019.042s.014.027.022.039l.024.037.026.036q-.366,1.67-.778,3.328t-.867,3.3q-.455,1.645-.954,3.276t-1.04,3.248q-1.139-1.46-2.22-2.968T13.9,22.6q-1.018-1.55-1.973-3.138t-1.838-3.21a.664.664,0,0,0-.4-.321.673.673,0,0,0-.258-.022.685.685,0,0,0-.462.257.688.688,0,0,0-.119.232.681.681,0,0,0-.025.259.671.671,0,0,0,.079.256q.95,1.743,1.979,3.448t2.13,3.366q1.1,1.661,2.274,3.273t2.41,3.169q-.325.932-.665,1.859t-.693,1.848q-.354.921-.722,1.837t-.75,1.825a.682.682,0,0,0-.047.071.706.706,0,0,0-.038.076.72.72,0,0,0-.028.08.688.688,0,0,0-.018.083q-.3.71-.609,1.417T13.5,40.669q-.318.7-.644,1.4t-.66,1.393q-1.008-1.318-1.946-2.688t-1.8-2.787Q7.589,36.573,6.8,35.112T5.312,32.151a.67.67,0,0,0-.9-.317A.68.68,0,0,0,4.2,32a.684.684,0,0,0-.172.48.673.673,0,0,0,.063.26q.756,1.608,1.6,3.171t1.778,3.077Q8.4,40.5,9.419,41.959t2.111,2.862q-1.218,2.455-2.541,4.857T6.241,54.425q-1.426,2.343-2.953,4.626T.132,63.55a.679.679,0,0,0-.072.681.666.666,0,0,0,.135.2l.018.018.019.017.02.016.021.016a.671.671,0,0,0,.743.036A.676.676,0,0,0,1.214,64.35Z" transform="translate(12.99 20.537)" opacity="0.1"/>
    <path id="Path_194005" data-name="Path 194005" d="M41.467,2.907q.013-.366.015-.731t-.007-.728q-.009-.363-.028-.725T41.4,0A45.358,45.358,0,0,0,15.46,11.2a52.45,52.45,0,0,0-6.4,6.719,44.006,44.006,0,0,0-4.806,7.488A39.529,39.529,0,0,0,0,42.539a11.221,11.221,0,0,0,1.3-.382c.443-.156.895-.334,1.351-.515s.916-.365,1.376-.533.919-.32,1.374-.438A18.255,18.255,0,0,0,7.8,39.86c.783-.323,1.548-.693,2.3-1.095s1.491-.834,2.222-1.281,1.453-.909,2.172-1.369c1.557-1,3.119-2,4.666-3.023s3.082-2.075,4.581-3.167,2.965-2.23,4.375-3.431a52.785,52.785,0,0,0,4.05-3.813,40.246,40.246,0,0,0,3.578-4.32,34.7,34.7,0,0,0,2.892-4.8A28.763,28.763,0,0,0,40.62,8.372,24.2,24.2,0,0,0,41.467,2.907Z" transform="translate(8.093 40.871)" opacity="0.1"/>
    <g id="Group_158349" data-name="Group 158349" transform="translate(2.788 45.868)">
      <path id="Path_194006" data-name="Path 194006" d="M0,41.307A56.536,56.536,0,0,0,9.268,41a58.4,58.4,0,0,0,9.133-1.8,58.732,58.732,0,0,0,8.765-3.233,57.55,57.55,0,0,0,8.16-4.609,57.807,57.807,0,0,0,7.319-5.9,59.459,59.459,0,0,0,6.3-7,59.512,59.512,0,0,0,5.121-7.918,57.9,57.9,0,0,0,3.789-8.636A45.316,45.316,0,0,0,18.924,8.559a52,52,0,0,0-7.6,6.574A43.213,43.213,0,0,0,5.51,22.8a39.387,39.387,0,0,0-3.839,8.733A40.968,40.968,0,0,0,0,41.307Z" transform="translate(5.924 0)" fill="#c7daf2"/>
      <path id="Path_194007" data-name="Path 194007" d="M.148,44.724q1.792-2.3,3.681-4.524T7.7,35.849q1.983-2.132,4.057-4.174t4.235-3.993c.013-.017.027-.033.041-.049s.029-.03.045-.045.032-.028.048-.04.034-.024.052-.035q.69-.62,1.387-1.231t1.4-1.212q.706-.6,1.421-1.193T21.832,22.7c.216-1.348.5-2.691.846-4.021s.756-2.648,1.227-3.944,1-2.57,1.59-3.815S26.729,8.465,27.43,7.29a.694.694,0,0,1,.189-.207.716.716,0,0,1,.246-.114.727.727,0,0,1,.27-.016.706.706,0,0,1,.261.087.694.694,0,0,1,.321.431.7.7,0,0,1-.079.534q-.918,1.539-1.7,3.164T25.5,14.479q-.647,1.685-1.15,3.42t-.854,3.493q1.43-1.112,2.89-2.185T29.334,17.1q1.491-1.034,3.011-2.029t3.068-1.95l.009-.026.009-.026.011-.026.012-.025q.846-1.651,1.765-3.269t1.908-3.2q.989-1.579,2.045-3.116T43.347.413a.713.713,0,0,1,.467-.278.706.706,0,0,1,.525.132.7.7,0,0,1,.274.464.708.708,0,0,1-.137.525Q43.54,2.5,42.649,3.778T40.914,6.368q-.844,1.31-1.639,2.65t-1.539,2.7q2.275-1.341,4.607-2.594t4.718-2.419q2.387-1.165,4.826-2.239t4.929-2.053a.71.71,0,0,1,.544.008.7.7,0,0,1,.423.666.712.712,0,0,1-.061.265.717.717,0,0,1-.394.377q-1.534.6-3.048,1.242T51.27,6.29q-1.494.675-2.969,1.385T45.372,9.128L56.905,10.3a.7.7,0,0,1,.543,1.045.716.716,0,0,1-.7.364L43.321,10.34l-.047-.007-.046-.01-.044-.013-.044-.016q-1.572.842-3.119,1.726t-3.066,1.806q-1.519.923-3.012,1.884T30.987,17.67q1.79.724,3.613,1.378t3.675,1.235q1.852.581,3.727,1.087t3.768.934a.706.706,0,0,1,.215,1.287.709.709,0,0,1-.535.091q-2.033-.46-4.048-1.009t-4-1.181q-1.986-.633-3.94-1.349t-3.866-1.512q-.84.589-1.671,1.191t-1.652,1.216q-.821.614-1.631,1.24t-1.611,1.265a.733.733,0,0,1-.058.067.71.71,0,0,1-.137.109.657.657,0,0,1-.078.041q-.624.5-1.242,1.009t-1.229,1.023q-.611.515-1.217,1.038t-1.2,1.053q1.6.638,3.237,1.191t3.3,1.019q1.664.466,3.353.843t3.4.663a.7.7,0,0,1,.576.812.706.706,0,0,1-.814.579q-1.831-.307-3.641-.716t-3.59-.918q-1.78-.509-3.529-1.116T16.7,28.932q-2.1,1.908-4.127,3.906T8.617,36.919Q6.683,39,4.839,41.17T1.246,45.587a.7.7,0,0,1-.658.261.685.685,0,0,1-.233-.081l-.023-.013L.311,45.74l-.022-.015-.021-.016a.7.7,0,0,1-.18-.211.7.7,0,0,1,.061-.773Z" transform="translate(0 1.749)" opacity="0.1"/>
    </g>
  </g>
  <g id="Group_158381" data-name="Group 158381" transform="translate(0 0)">
    <g id="Group_158380" data-name="Group 158380" transform="translate(110.824 0)">
      <path id="Path_194070" data-name="Path 194070" d="M10.632,12.447a5.469,5.469,0,0,0-.747.541,5.743,5.743,0,0,0-.609.611,6.582,6.582,0,0,0-.491.651c-.146.221-.277.443-.394.662s-.232.435-.337.642-.2.409-.3.6-.2.379-.3.556a5.7,5.7,0,0,1-.322.5c-.075.1-.154.205-.239.3a3.911,3.911,0,0,1-.275.29,3.85,3.85,0,0,1-.324.275,4.281,4.281,0,0,1-.385.26,3.59,3.59,0,0,1-.571.279,2.011,2.011,0,0,1-.475.118,1.664,1.664,0,0,1-.416-.005,2.511,2.511,0,0,1-.393-.09,4.2,4.2,0,0,1-.393-.155c-.134-.059-.271-.122-.417-.182a3.824,3.824,0,0,0-.464-.159,2.737,2.737,0,0,0-.534-.089,2.165,2.165,0,0,0-.394.012,2.734,2.734,0,0,0-.436.089,3.59,3.59,0,0,0-.476.176,4.778,4.778,0,0,0-.515.271.744.744,0,0,0-.187.167,1.052,1.052,0,0,0-.142.231,1.117,1.117,0,0,0-.082.263.869.869,0,0,0-.008.264.59.59,0,0,0,.073.223.366.366,0,0,0,.136.136.32.32,0,0,0,.178.039.45.45,0,0,0,.2-.068,3.575,3.575,0,0,1,.574-.281,1.976,1.976,0,0,1,.474-.117,1.643,1.643,0,0,1,.414.007,2.6,2.6,0,0,1,.392.091,4.129,4.129,0,0,1,.392.154c.134.058.272.122.417.181a3.914,3.914,0,0,0,.464.16,2.767,2.767,0,0,0,.533.091,2.433,2.433,0,0,0,.388-.012,2.751,2.751,0,0,0,.423-.082,3.368,3.368,0,0,0,.46-.164,4.362,4.362,0,0,0,.5-.259,5.747,5.747,0,0,0,.772-.556,5.837,5.837,0,0,0,.623-.619,6.61,6.61,0,0,0,.5-.656c.148-.222.28-.445.4-.665s.228-.432.332-.64.2-.409.3-.6.2-.379.3-.556a5.783,5.783,0,0,1,.319-.5c.077-.105.157-.208.243-.307a3.986,3.986,0,0,1,.276-.291,3.868,3.868,0,0,1,.324-.276A4.392,4.392,0,0,1,10.8,13.7a3.553,3.553,0,0,1,.571-.279,1.971,1.971,0,0,1,.473-.116,1.653,1.653,0,0,1,.414.008,2.624,2.624,0,0,1,.393.091,4.05,4.05,0,0,1,.394.153c.134.059.272.122.417.182a4,4,0,0,0,.463.162,2.783,2.783,0,0,0,.531.093,2.507,2.507,0,0,0,.389-.014,2.8,2.8,0,0,0,.425-.082,3.382,3.382,0,0,0,.462-.164,4.331,4.331,0,0,0,.5-.26,5.874,5.874,0,0,0,.776-.56,5.939,5.939,0,0,0,.627-.622,6.561,6.561,0,0,0,.5-.657c.148-.222.279-.444.4-.663s.233-.436.339-.644.205-.41.3-.6.2-.38.3-.556a5.79,5.79,0,0,1,.318-.5c.078-.1.159-.207.245-.307s.178-.2.278-.292a3.9,3.9,0,0,1,.326-.277,4.362,4.362,0,0,1,.39-.264,3.574,3.574,0,0,1,.569-.276,2.006,2.006,0,0,1,.475-.116,1.649,1.649,0,0,1,.415.007,2.418,2.418,0,0,1,.391.093,3.828,3.828,0,0,1,.4.15c.136.058.275.121.421.181a4.049,4.049,0,0,0,.466.161,2.767,2.767,0,0,0,.533.092,2.476,2.476,0,0,0,.39-.013,2.773,2.773,0,0,0,.426-.082,3.353,3.353,0,0,0,.463-.166,4.3,4.3,0,0,0,.5-.262,5.86,5.86,0,0,0,.779-.56,5.917,5.917,0,0,0,.629-.624,6.53,6.53,0,0,0,.5-.659c.149-.223.28-.446.4-.666s.233-.437.339-.645.206-.41.3-.6.2-.38.3-.557a5.872,5.872,0,0,1,.319-.5c.078-.105.159-.208.245-.308s.178-.2.277-.292A3.883,3.883,0,0,1,30.9,1.6a4.248,4.248,0,0,1,.387-.262.768.768,0,0,0,.194-.171,1.052,1.052,0,0,0,.145-.235,1.11,1.11,0,0,0,.083-.27.908.908,0,0,0,.007-.273.548.548,0,0,0-.073-.216A.358.358,0,0,0,31.5.046.333.333,0,0,0,31.319.01a.479.479,0,0,0-.208.071,5.44,5.44,0,0,0-.748.542,5.762,5.762,0,0,0-.611.614,6.606,6.606,0,0,0-.493.655c-.147.222-.278.446-.4.666s-.233.437-.339.646-.206.411-.306.605-.2.381-.3.558a5.708,5.708,0,0,1-.325.5c-.075.1-.154.2-.239.3a3.882,3.882,0,0,1-.6.567,4.479,4.479,0,0,1-.391.266,3.608,3.608,0,0,1-.574.279,2,2,0,0,1-.476.117A1.672,1.672,0,0,1,24.9,6.4a2.609,2.609,0,0,1-.395-.09,4.087,4.087,0,0,1-.395-.154c-.135-.059-.273-.122-.42-.181a3.882,3.882,0,0,0-.468-.16,2.753,2.753,0,0,0-.538-.088,2.25,2.25,0,0,0-.4.014,2.8,2.8,0,0,0-.438.09A3.591,3.591,0,0,0,21.37,6a4.691,4.691,0,0,0-.513.271,5.506,5.506,0,0,0-.75.543,5.757,5.757,0,0,0-.611.613A6.568,6.568,0,0,0,19,8.083c-.147.221-.277.444-.394.664s-.233.436-.338.644-.206.41-.3.6-.2.38-.3.557a5.676,5.676,0,0,1-.324.5c-.075.1-.154.2-.238.3a3.914,3.914,0,0,1-.274.289,3.81,3.81,0,0,1-.324.276,4.355,4.355,0,0,1-.39.263,3.58,3.58,0,0,1-.572.279,1.978,1.978,0,0,1-.474.116,1.644,1.644,0,0,1-.415-.007,2.561,2.561,0,0,1-.393-.092,4.132,4.132,0,0,1-.393-.153c-.134-.058-.272-.121-.419-.181a3.919,3.919,0,0,0-.466-.16,2.785,2.785,0,0,0-.536-.09,2.222,2.222,0,0,0-.4.014,2.792,2.792,0,0,0-.436.09,3.606,3.606,0,0,0-.475.175A4.732,4.732,0,0,0,10.632,12.447Z" transform="translate(0 0)" fill="#073669"/>
    </g>
    <g id="Group_158383" data-name="Group 158383" transform="translate(203.343 100.505)">
      <path id="Path_194070-2" data-name="Path 194070" d="M10.982,12.273a5.513,5.513,0,0,0-.772.537,5.736,5.736,0,0,0-.629.61,6.545,6.545,0,0,0-.507.653c-.151.222-.286.445-.407.666s-.239.438-.348.647-.211.412-.313.607-.2.382-.308.56a5.666,5.666,0,0,1-.332.5c-.078.1-.159.206-.247.305a3.847,3.847,0,0,1-.619.563,4.315,4.315,0,0,1-.4.257,3.657,3.657,0,0,1-.59.274,2.08,2.08,0,0,1-.491.111,1.749,1.749,0,0,1-.43-.013,2.662,2.662,0,0,1-.406-.1c-.134-.045-.267-.1-.405-.165s-.28-.129-.431-.192a4.064,4.064,0,0,0-.479-.17,2.893,2.893,0,0,0-.551-.1,2.273,2.273,0,0,0-.407,0,2.838,2.838,0,0,0-.45.083,3.684,3.684,0,0,0-.491.17,4.861,4.861,0,0,0-.532.266.747.747,0,0,0-.193.167,1.043,1.043,0,0,0-.146.232,1.108,1.108,0,0,0-.085.266.87.87,0,0,0-.008.268.6.6,0,0,0,.076.228.384.384,0,0,0,.14.14.338.338,0,0,0,.184.043.463.463,0,0,0,.208-.065,3.643,3.643,0,0,1,.593-.275,2.042,2.042,0,0,1,.49-.11,1.725,1.725,0,0,1,.427.015,2.758,2.758,0,0,1,.4.1c.133.044.267.1.4.163s.28.128.431.192a4.153,4.153,0,0,0,.48.171,2.927,2.927,0,0,0,.551.1,2.548,2.548,0,0,0,.4-.006,2.856,2.856,0,0,0,.437-.076,3.459,3.459,0,0,0,.475-.159,4.448,4.448,0,0,0,.514-.255,5.776,5.776,0,0,0,1.441-1.169,6.569,6.569,0,0,0,.515-.657c.153-.223.289-.447.412-.668s.235-.435.343-.644.211-.412.313-.607.2-.382.308-.559a5.727,5.727,0,0,1,.33-.5c.08-.106.163-.208.251-.308a3.969,3.969,0,0,1,.285-.29,3.879,3.879,0,0,1,.335-.274,4.436,4.436,0,0,1,.4-.26,3.626,3.626,0,0,1,.59-.273,2.043,2.043,0,0,1,.489-.109,1.738,1.738,0,0,1,.428.015,2.781,2.781,0,0,1,.406.1,4.3,4.3,0,0,1,.406.163c.138.062.281.129.431.192a4.235,4.235,0,0,0,.479.173,2.942,2.942,0,0,0,.548.1,2.629,2.629,0,0,0,.4-.007,2.912,2.912,0,0,0,.439-.076,3.477,3.477,0,0,0,.477-.159,4.414,4.414,0,0,0,.516-.255,5.883,5.883,0,0,0,1.449-1.176,6.5,6.5,0,0,0,.517-.659,7.808,7.808,0,0,0,.409-.667c.126-.222.241-.439.35-.648s.212-.413.314-.608.2-.382.307-.56a5.735,5.735,0,0,1,.328-.5c.081-.105.164-.208.253-.308s.184-.2.287-.291a3.92,3.92,0,0,1,.336-.276,4.406,4.406,0,0,1,.4-.261,3.641,3.641,0,0,1,.588-.27,2.076,2.076,0,0,1,.49-.109,1.731,1.731,0,0,1,.429.014,2.56,2.56,0,0,1,.4.1,4.057,4.057,0,0,1,.413.16c.14.061.284.128.435.191a4.284,4.284,0,0,0,.481.172,2.923,2.923,0,0,0,.55.1,2.6,2.6,0,0,0,.4-.006,2.88,2.88,0,0,0,.44-.076,3.449,3.449,0,0,0,.479-.16,4.383,4.383,0,0,0,.517-.258,5.872,5.872,0,0,0,1.455-1.178,6.492,6.492,0,0,0,.519-.661,7.758,7.758,0,0,0,.411-.67c.126-.223.241-.439.35-.65s.213-.413.315-.609.2-.382.308-.561a5.816,5.816,0,0,1,.33-.505c.081-.106.164-.208.254-.308s.184-.2.286-.291a3.889,3.889,0,0,1,.335-.275,4.3,4.3,0,0,1,.4-.259.77.77,0,0,0,.2-.17,1.041,1.041,0,0,0,.15-.237,1.1,1.1,0,0,0,.086-.272A.906.906,0,0,0,32.755.4.558.558,0,0,0,32.68.179a.377.377,0,0,0-.142-.136A.352.352,0,0,0,32.349,0a.493.493,0,0,0-.215.069,5.489,5.489,0,0,0-.772.537,5.761,5.761,0,0,0-.631.613,6.557,6.557,0,0,0-.51.657c-.152.223-.287.448-.408.67s-.241.44-.351.65-.213.414-.316.61-.2.384-.311.562a5.666,5.666,0,0,1-.336.507c-.078.1-.159.206-.247.3a3.882,3.882,0,0,1-.62.565,4.508,4.508,0,0,1-.4.263,3.678,3.678,0,0,1-.593.273,2.074,2.074,0,0,1-.492.11,1.757,1.757,0,0,1-.43-.014,2.769,2.769,0,0,1-.408-.1,4.341,4.341,0,0,1-.408-.163c-.139-.062-.282-.129-.434-.192a4.111,4.111,0,0,0-.483-.171,2.911,2.911,0,0,0-.555-.1,2.36,2.36,0,0,0-.41.007,2.908,2.908,0,0,0-.452.084,3.692,3.692,0,0,0-.492.17,4.773,4.773,0,0,0-.53.266,5.548,5.548,0,0,0-.775.538,5.747,5.747,0,0,0-.631.612,6.516,6.516,0,0,0-.509.655c-.151.222-.286.446-.407.668s-.24.439-.349.649-.212.413-.315.608-.2.383-.31.561a5.63,5.63,0,0,1-.334.506c-.078.1-.159.205-.246.3a3.909,3.909,0,0,1-.283.289,3.827,3.827,0,0,1-.335.275,4.38,4.38,0,0,1-.4.261,3.648,3.648,0,0,1-.591.274,2.047,2.047,0,0,1-.49.11,1.728,1.728,0,0,1-.428-.015,2.714,2.714,0,0,1-.406-.1c-.134-.044-.268-.1-.406-.163s-.281-.128-.432-.191a4.15,4.15,0,0,0-.481-.171,2.943,2.943,0,0,0-.553-.1,2.329,2.329,0,0,0-.408.007,2.9,2.9,0,0,0-.45.084,3.7,3.7,0,0,0-.49.169A4.814,4.814,0,0,0,10.982,12.273Z" transform="translate(0)" fill="#073669"/>
    </g>
    <g id="Group_158384" data-name="Group 158384" transform="translate(0 123.068)">
      <path id="Path_194070-3" data-name="Path 194070" d="M10.221,11.759a5.1,5.1,0,0,0-.718.515,5.4,5.4,0,0,0-.585.586,6.251,6.251,0,0,0-.472.628c-.141.213-.266.429-.379.641s-.223.421-.324.623-.2.4-.292.584-.189.368-.287.539a5.449,5.449,0,0,1-.309.486c-.072.1-.148.2-.23.294a3.676,3.676,0,0,1-.265.278,3.609,3.609,0,0,1-.311.263,4,4,0,0,1-.37.247,3.339,3.339,0,0,1-.549.262,1.875,1.875,0,0,1-.457.106,1.572,1.572,0,0,1-.4-.014,2.415,2.415,0,0,1-.378-.1,4.08,4.08,0,0,1-.377-.16c-.129-.06-.261-.125-.4-.187a3.7,3.7,0,0,0-.446-.166,2.615,2.615,0,0,0-.513-.1,2.036,2.036,0,0,0-.379,0,2.552,2.552,0,0,0-.419.078,3.34,3.34,0,0,0-.457.162,4.436,4.436,0,0,0-.495.255.7.7,0,0,0-.18.16,1,1,0,0,0-.136.224,1.092,1.092,0,0,0-.079.256.869.869,0,0,0-.008.258.6.6,0,0,0,.07.221.367.367,0,0,0,.13.136.306.306,0,0,0,.172.042.419.419,0,0,0,.193-.062,3.321,3.321,0,0,1,.552-.263,1.837,1.837,0,0,1,.456-.1,1.551,1.551,0,0,1,.4.016,2.494,2.494,0,0,1,.377.1,4.014,4.014,0,0,1,.377.159c.128.06.261.125.4.186a3.793,3.793,0,0,0,.447.167,2.64,2.64,0,0,0,.513.1,2.286,2.286,0,0,0,.373,0,2.569,2.569,0,0,0,.407-.071,3.125,3.125,0,0,0,.442-.151,4.054,4.054,0,0,0,.478-.244,5.359,5.359,0,0,0,.742-.529,5.489,5.489,0,0,0,.6-.594,6.268,6.268,0,0,0,.479-.632c.142-.214.269-.43.384-.643s.219-.419.32-.62.2-.4.291-.584.189-.368.287-.538a5.507,5.507,0,0,1,.307-.483c.074-.1.151-.2.234-.3a3.739,3.739,0,0,1,.265-.279,3.626,3.626,0,0,1,.312-.264A4.109,4.109,0,0,1,10.384,13a3.3,3.3,0,0,1,.549-.261,1.838,1.838,0,0,1,.455-.1,1.562,1.562,0,0,1,.4.016,2.524,2.524,0,0,1,.378.1,3.948,3.948,0,0,1,.378.159c.129.06.261.125.4.187a3.876,3.876,0,0,0,.445.168,2.66,2.66,0,0,0,.51.1,2.361,2.361,0,0,0,.374-.006,2.615,2.615,0,0,0,.409-.072,3.145,3.145,0,0,0,.444-.151,4.03,4.03,0,0,0,.48-.244,5.477,5.477,0,0,0,.746-.532,5.575,5.575,0,0,0,.6-.6,6.207,6.207,0,0,0,.481-.634c.142-.214.268-.43.381-.642s.224-.422.325-.624.2-.4.292-.586.188-.368.285-.539a5.545,5.545,0,0,1,.306-.486c.075-.1.153-.2.236-.3a3.86,3.86,0,0,1,.267-.28,3.66,3.66,0,0,1,.313-.265,4.067,4.067,0,0,1,.375-.251,3.319,3.319,0,0,1,.547-.259,1.87,1.87,0,0,1,.456-.1,1.557,1.557,0,0,1,.4.015,2.32,2.32,0,0,1,.376.1,3.709,3.709,0,0,1,.384.156c.13.06.264.124.405.186a3.907,3.907,0,0,0,.448.168,2.642,2.642,0,0,0,.512.1,2.328,2.328,0,0,0,.375,0,2.591,2.591,0,0,0,.41-.072,3.115,3.115,0,0,0,.445-.153,3.992,3.992,0,0,0,.481-.247,5.466,5.466,0,0,0,.749-.532,5.565,5.565,0,0,0,.605-.6,6.2,6.2,0,0,0,.483-.636c.143-.215.269-.432.382-.645S27.9,4.21,28,4.008s.2-.4.293-.586.189-.368.287-.54a5.61,5.61,0,0,1,.307-.486c.075-.1.153-.2.236-.3s.171-.189.267-.28a3.624,3.624,0,0,1,.312-.264,3.958,3.958,0,0,1,.372-.248.72.72,0,0,0,.186-.163A1,1,0,0,0,30.4.916a1.084,1.084,0,0,0,.08-.263.9.9,0,0,0,.006-.268.554.554,0,0,0-.07-.213A.359.359,0,0,0,30.281.04.319.319,0,0,0,30.106,0a.446.446,0,0,0-.2.065,5.076,5.076,0,0,0-.719.515,5.421,5.421,0,0,0-.587.589,6.277,6.277,0,0,0-.474.632c-.141.214-.267.431-.38.645s-.224.423-.326.626-.2.4-.294.587-.191.369-.289.541a5.433,5.433,0,0,1-.312.488c-.072.1-.148.2-.23.293a3.693,3.693,0,0,1-.264.278,3.649,3.649,0,0,1-.313.265,4.159,4.159,0,0,1-.376.252,3.35,3.35,0,0,1-.552.261,1.867,1.867,0,0,1-.457.1,1.579,1.579,0,0,1-.4-.015,2.507,2.507,0,0,1-.379-.1,3.972,3.972,0,0,1-.379-.159c-.129-.06-.263-.125-.4-.187a3.762,3.762,0,0,0-.45-.166,2.627,2.627,0,0,0-.517-.1,2.115,2.115,0,0,0-.381,0A2.615,2.615,0,0,0,21,5.5a3.34,3.34,0,0,0-.458.162,4.362,4.362,0,0,0-.493.255,5.133,5.133,0,0,0-.721.517,5.416,5.416,0,0,0-.587.588,6.228,6.228,0,0,0-.473.63c-.141.214-.266.43-.379.643s-.224.422-.325.624-.2.4-.293.586-.19.368-.288.54a5.42,5.42,0,0,1-.311.487c-.072.1-.148.2-.229.292a3.674,3.674,0,0,1-.263.278,3.564,3.564,0,0,1-.312.264,4.033,4.033,0,0,1-.375.25,3.324,3.324,0,0,1-.55.262,1.844,1.844,0,0,1-.456.1,1.553,1.553,0,0,1-.4-.016,2.458,2.458,0,0,1-.378-.1,4.008,4.008,0,0,1-.378-.159c-.129-.06-.262-.125-.4-.186a3.79,3.79,0,0,0-.448-.166,2.661,2.661,0,0,0-.515-.1,2.089,2.089,0,0,0-.38,0,2.6,2.6,0,0,0-.419.079,3.352,3.352,0,0,0-.456.162A4.395,4.395,0,0,0,10.221,11.759Z" fill="#073669"/>
    </g>
  </g>
  <g id="Group_158352" data-name="Group 158352" transform="translate(14.01 82.561)">
    <path id="Path_194008" data-name="Path 194008" d="M45.732,83.164a23.024,23.024,0,0,0,3.519-7.015A26.188,26.188,0,0,0,49.1,60.5a23.191,23.191,0,0,0-3.651-6.968A34.068,34.068,0,0,0,41.81,49.6c-1.3-1.231-2.671-2.4-4.012-3.594s-2.655-2.4-3.858-3.693a23.389,23.389,0,0,1-3.184-4.232,23.455,23.455,0,0,1-2.1-5.025,53.735,53.735,0,0,1-1.246-5.372c-.345-1.821-.656-3.658-1.04-5.471a37.634,37.634,0,0,0-1.482-5.319,24.484,24.484,0,0,0-4-6.94,26.344,26.344,0,0,0-5.913-5.327A25.839,25.839,0,0,0,7.8,1.327,23.248,23.248,0,0,0,0,.476,12.979,12.979,0,0,1,3.822,4.525,18.6,18.6,0,0,1,6,9.911a25.585,25.585,0,0,1,.681,6.011,27.471,27.471,0,0,1-.653,5.923c-.422,1.88-.955,3.745-1.511,5.6s-1.137,3.714-1.656,5.574a53.078,53.078,0,0,0-1.287,5.606,28.641,28.641,0,0,0-.406,5.7,24.8,24.8,0,0,0,.826,5.475A29.13,29.13,0,0,0,3.925,55,34.779,34.779,0,0,0,6.756,59.8a40.005,40.005,0,0,0,3.51,4.328,52.2,52.2,0,0,0,3.983,3.828c1.39,1.207,2.835,2.351,4.316,3.452s3,2.16,4.533,3.2,3.086,2.049,4.633,3.06c.715.467,1.434.935,2.161,1.389s1.464.894,2.214,1.3,1.514.786,2.3,1.115a18.1,18.1,0,0,0,2.405.829,21.3,21.3,0,0,1,2.494.889,25.73,25.73,0,0,0,2.432.9,5,5,0,0,0,2.2.222A2.762,2.762,0,0,0,45.732,83.164Z" transform="translate(15.336)" fill="#c7dafb" opacity="0.47"/>
    <path id="Path_194009" data-name="Path 194009" d="M29.585,64.945q-1.669-2.312-3.23-4.689t-3.014-4.813q-1.452-2.435-2.8-4.928T17.97,45.478c-.012-.017-.024-.034-.034-.052s-.02-.036-.029-.054-.017-.037-.024-.056-.014-.038-.019-.058q-.391-.811-.772-1.627t-.749-1.637q-.369-.821-.727-1.646t-.7-1.656q-1.77-.832-3.467-1.841T8.154,34.676Q6.56,33.511,5.08,32.2T2.265,29.449a.666.666,0,0,1-.14-.23.7.7,0,0,1-.04-.259.722.722,0,0,1,.055-.256.691.691,0,0,1,.147-.221.666.666,0,0,1,.224-.145.655.655,0,0,1,.5.013.665.665,0,0,1,.217.156Q4.4,29.762,5.677,30.918t2.653,2.2Q9.7,34.16,11.162,35.082t2.979,1.71q-.648-1.629-1.253-3.275t-1.164-3.308q-.56-1.662-1.076-3.338T9.661,23.5l-.021-.015-.021-.015L9.6,23.457l-.02-.018q-1.288-1.213-2.527-2.486t-2.421-2.6q-1.182-1.325-2.307-2.7T.137,12.86a.686.686,0,0,1-.116-.243.7.7,0,0,1,.066-.51A.683.683,0,0,1,.262,11.9a.661.661,0,0,1,.238-.12.653.653,0,0,1,.5.067.67.67,0,0,1,.2.178q.887,1.186,1.82,2.341t1.908,2.276q.975,1.121,1.991,2.2t2.068,2.129Q8.35,18.513,7.81,16.022t-.983-5Q6.384,8.5,6.038,5.968T5.445.881a.7.7,0,0,1,.148-.5.678.678,0,0,1,.2-.168A.656.656,0,0,1,6.044.13a.648.648,0,0,1,.264.026.662.662,0,0,1,.225.123A.676.676,0,0,1,6.7.48.689.689,0,0,1,6.774.74q.152,1.572.342,3.138T7.535,7q.228,1.559.493,3.109T8.595,13.2l4.049-10.41a.69.69,0,0,1,.145-.228A.674.674,0,0,1,13,2.416a.659.659,0,0,1,.735.138.682.682,0,0,1,.145.216.7.7,0,0,1,.007.524L9.17,15.422c-.006.015-.012.029-.019.042s-.014.027-.021.04l-.024.038-.026.036q.361,1.679.767,3.346t.856,3.322q.45,1.655.942,3.3t1.028,3.269q1.126-1.485,2.2-3.02t2.08-3.113q1.01-1.579,1.957-3.2t1.826-3.273A.681.681,0,0,1,20.9,16a.668.668,0,0,1,.228-.122.657.657,0,0,1,.511.054.669.669,0,0,1,.2.174.691.691,0,0,1,.119.233.7.7,0,0,1-.054.522q-.945,1.778-1.967,3.516t-2.115,3.431Q16.739,25.5,15.578,27.14t-2.385,3.223q.322.939.658,1.872t.686,1.862q.35.928.714,1.851t.743,1.84a.76.76,0,0,1,.046.072.7.7,0,0,1,.037.076.68.68,0,0,1,.028.08.67.67,0,0,1,.017.083q.3.716.6,1.429t.621,1.422q.315.709.638,1.414t.655,1.407q1-1.338,1.933-2.729t1.79-2.832q.859-1.441,1.642-2.927t1.487-3.013a.683.683,0,0,1,.159-.218.673.673,0,0,1,.221-.135.657.657,0,0,1,.514.024.674.674,0,0,1,.215.163.7.7,0,0,1,.108.751q-.754,1.637-1.6,3.228T23.34,39.215q-.928,1.539-1.939,3.023t-2.1,2.906q1.21,2.481,2.526,4.912t2.737,4.807q1.421,2.377,2.947,4.7t3.156,4.577a.7.7,0,0,1,.072.693.677.677,0,0,1-.136.2l-.018.018-.019.017-.02.017-.021.016a.66.66,0,0,1-.5.124.669.669,0,0,1-.243-.09A.681.681,0,0,1,29.585,64.945Z" transform="translate(21.844 20.753)" opacity="0.1"/>
    <path id="Path_194010" data-name="Path 194010" d="M.015,2.976Q0,2.609,0,2.243t.007-.73Q.016,1.149.034.785T.08.06a43.067,43.067,0,0,1,6.9,1.133,43.447,43.447,0,0,1,6.646,2.238,43.9,43.9,0,0,1,6.261,3.31,44.476,44.476,0,0,1,5.741,4.348A52.247,52.247,0,0,1,32,17.854,44.5,44.5,0,0,1,36.8,25.437a40.682,40.682,0,0,1,3.079,8.353,41.166,41.166,0,0,1,1.191,9.072,11.226,11.226,0,0,1-1.3-.393c-.444-.16-.9-.342-1.355-.528s-.919-.374-1.38-.546-.921-.328-1.376-.448a18.134,18.134,0,0,1-2.405-.829c-.782-.329-1.546-.707-2.3-1.115s-1.487-.848-2.214-1.3-1.447-.923-2.161-1.389c-1.548-1.01-3.1-2.024-4.633-3.06s-3.051-2.094-4.533-3.2S14.492,27.811,13.1,26.6a52.168,52.168,0,0,1-3.983-3.828,40.026,40.026,0,0,1-3.51-4.328A34.776,34.776,0,0,1,2.778,13.64,29.126,29.126,0,0,1,.841,8.451,24.8,24.8,0,0,1,.015,2.976Z" transform="translate(16.483 41.355)" opacity="0.1"/>
    <g id="Group_158351" data-name="Group 158351" transform="translate(0 46.568)">
      <path id="Path_194011" data-name="Path 194011" d="M56.934,41.477a55.778,55.778,0,0,1-9.276-.346,57.266,57.266,0,0,1-9.083-1.855,57.44,57.44,0,0,1-8.663-3.29A56.317,56.317,0,0,1,21.9,31.332a56.784,56.784,0,0,1-7.152-5.917,58.793,58.793,0,0,1-6.124-7,59.321,59.321,0,0,1-4.96-7.889A58.284,58.284,0,0,1,0,1.938,42.706,42.706,0,0,1,19.674.605a43.359,43.359,0,0,1,9.545,2.742,44.045,44.045,0,0,1,8.837,4.941A51.482,51.482,0,0,1,45.607,14.9a43.558,43.558,0,0,1,5.8,7.761,40.3,40.3,0,0,1,3.846,8.874A42.249,42.249,0,0,1,56.934,41.477Z" transform="translate(0 0)" fill="#c7daf2"/>
      <path id="Path_194012" data-name="Path 194012" d="M56.953,45.066q-1.806-2.36-3.707-4.63t-3.889-4.443q-1.988-2.174-4.063-4.252t-4.229-4.056q-.02-.026-.041-.05c-.014-.016-.029-.031-.045-.045s-.032-.028-.048-.041-.034-.025-.052-.036q-.687-.629-1.383-1.248t-1.4-1.227q-.7-.608-1.414-1.207t-1.429-1.185c-.215-1.363-.5-2.722-.84-4.067s-.75-2.676-1.217-3.985S32.206,12,31.623,10.746,30.4,8.269,29.707,7.087a.687.687,0,0,0-.43-.321.707.707,0,0,0-.267-.014.673.673,0,0,0-.462.28.72.72,0,0,0-.113.247.728.728,0,0,0-.014.272.718.718,0,0,0,.092.266Q29.421,9.365,30.2,11t1.419,3.337q.641,1.7,1.14,3.452t.847,3.53q-1.417-1.121-2.863-2.2T27.825,17q-1.472-1.038-2.971-2.035t-3.021-1.95l-.009-.026-.009-.026-.01-.026-.012-.025q-.832-1.658-1.735-3.282t-1.873-3.2q-.97-1.581-2-3.117T14.05.292A.7.7,0,0,0,13.844.1a.678.678,0,0,0-.515-.073.69.69,0,0,0-.248.122A.7.7,0,0,0,12.9.366a.724.724,0,0,0,.048.783q.915,1.24,1.787,2.517t1.7,2.589q.827,1.311,1.607,2.654t1.511,2.712q-2.233-1.336-4.517-2.582t-4.611-2.4Q8.095,5.49,5.722,4.434T.937,2.42a.669.669,0,0,0-.527.013.689.689,0,0,0-.217.155.707.707,0,0,0-.147.237.724.724,0,0,0,.013.542.708.708,0,0,0,.151.223.686.686,0,0,0,.231.151q1.486.59,2.956,1.218T6.321,6.252q1.454.665,2.892,1.367t2.858,1.439L.85,10.3a.676.676,0,0,0-.261.085.692.692,0,0,0-.2.175.714.714,0,0,0-.123.24.726.726,0,0,0-.024.28.719.719,0,0,0,.083.268.707.707,0,0,0,.171.207.688.688,0,0,0,.234.127A.672.672,0,0,0,1,11.712l13.076-1.45.046-.007.045-.011.044-.014.043-.016q1.539.837,3.055,1.716t3.009,1.8q1.493.922,2.962,1.885t2.914,1.966q-1.765.736-3.56,1.4t-3.612,1.253q-1.817.589-3.654,1.1t-3.684.945a.678.678,0,0,0-.25.116.7.7,0,0,0-.181.2.719.719,0,0,0-.095.254.727.727,0,0,0,.008.282.718.718,0,0,0,.114.257.7.7,0,0,0,.194.186.684.684,0,0,0,.248.1A.675.675,0,0,0,12,23.667q1.986-.465,3.959-1.019t3.924-1.2q1.952-.641,3.876-1.368t3.813-1.536q.83.592,1.651,1.2t1.634,1.224q.813.619,1.616,1.25t1.6,1.277a.746.746,0,0,0,.057.067.717.717,0,0,0,.064.059.7.7,0,0,0,.071.051.659.659,0,0,0,.077.041q.619.506,1.233,1.019t1.222,1.035q.608.522,1.21,1.051t1.2,1.066q-1.594.646-3.219,1.2t-3.275,1.029q-1.649.469-3.32.848t-3.356.665a.681.681,0,0,0-.257.1.7.7,0,0,0-.193.187.716.716,0,0,0-.11.248.728.728,0,0,0,.091.546.711.711,0,0,0,.184.2.692.692,0,0,0,.243.113.679.679,0,0,0,.276.01q1.807-.306,3.6-.716t3.556-.922q1.766-.512,3.5-1.125t3.44-1.323q2.1,1.937,4.119,3.968t3.959,4.157q1.939,2.125,3.791,4.341t3.616,4.521a.713.713,0,0,0,.19.173.7.7,0,0,0,.473.1.682.682,0,0,0,.235-.081l.023-.013.022-.015.022-.016.022-.016a.7.7,0,0,0,.181-.214.721.721,0,0,0,.083-.26.726.726,0,0,0-.144-.528Z" transform="translate(5.793 1.705)" opacity="0.1"/>
    </g>
  </g>
  <g id="Group_158354" data-name="Group 158354" transform="translate(45.504 9.135)">
    <path id="Path_194013" data-name="Path 194013" d="M112.6,1.108,6.673,64.7A11.738,11.738,0,0,0,4.08,66.876a16.7,16.7,0,0,0-3.554,6.3A11.88,11.88,0,0,0,0,76.532L.5,192.3a6.569,6.569,0,0,0,.526,2.734A3.65,3.65,0,0,0,2.458,196.7a3.537,3.537,0,0,0,2.122.457,6.234,6.234,0,0,0,2.593-.878l105.943-61.122a11.935,11.935,0,0,0,2.694-2.184,16.731,16.731,0,0,0,3.7-6.393,11.853,11.853,0,0,0,.548-3.42L119.539,4.93a6.465,6.465,0,0,0-.548-2.774A3.569,3.569,0,0,0,117.5.511,3.67,3.67,0,0,0,115.29.121,6.765,6.765,0,0,0,112.6,1.108Z" transform="translate(0 0)" fill="#c7daf2"/>
    <path id="Path_194014" data-name="Path 194014" d="M109.9,1.073,6.515,63.136a11.463,11.463,0,0,0-2.532,2.123,16.305,16.305,0,0,0-3.47,6.152A11.6,11.6,0,0,0,0,74.685L.169,189.249a6.411,6.411,0,0,0,.513,2.669,3.561,3.561,0,0,0,1.4,1.621,3.452,3.452,0,0,0,2.072.446,6.088,6.088,0,0,0,2.532-.858L110.072,133.45a11.649,11.649,0,0,0,2.629-2.132,16.326,16.326,0,0,0,3.61-6.238,11.568,11.568,0,0,0,.535-3.337L116.669,4.8a6.308,6.308,0,0,0-.535-2.707A3.483,3.483,0,0,0,114.679.491,3.58,3.58,0,0,0,112.525.11,6.6,6.6,0,0,0,109.9,1.073Z" transform="translate(1.418 1.053)" fill="#fff"/>
    <path id="Path_194015" data-name="Path 194015" d="M109.9,1.069,6.515,63.132a11.465,11.465,0,0,0-2.532,2.123,16.306,16.306,0,0,0-3.47,6.152A11.6,11.6,0,0,0,0,74.681V93.874L116.669,24.391V4.8a6.308,6.308,0,0,0-.535-2.707A3.483,3.483,0,0,0,114.679.488a3.58,3.58,0,0,0-2.154-.382A6.6,6.6,0,0,0,109.9,1.069Z" transform="translate(1.418 1.056)" fill="#073669"/>
    <g id="Group_158353" data-name="Group 158353" transform="translate(9.017 64)">
      <path id="Path_194016" data-name="Path 194016" d="M2,4.978a3.523,3.523,0,0,0,.779-.649,4.871,4.871,0,0,0,.637-.883,4.879,4.879,0,0,0,.43-1,3.545,3.545,0,0,0,.158-1A1.937,1.937,0,0,0,3.848.626,1.055,1.055,0,0,0,3.417.14,1.05,1.05,0,0,0,2.78.018,1.92,1.92,0,0,0,2,.3a3.526,3.526,0,0,0-.778.65A4.982,4.982,0,0,0,.158,2.833a3.543,3.543,0,0,0-.158,1,1.935,1.935,0,0,0,.158.814,1.056,1.056,0,0,0,.43.487,1.049,1.049,0,0,0,.636.122A1.917,1.917,0,0,0,2,4.978Z" transform="translate(15.963)" fill="#f0f4ff"/>
      <path id="Path_194017" data-name="Path 194017" d="M2,4.969a3.509,3.509,0,0,0,.776-.648,4.859,4.859,0,0,0,.635-.881,4.871,4.871,0,0,0,.429-1,3.539,3.539,0,0,0,.157-1A1.936,1.936,0,0,0,3.836.626,1.055,1.055,0,0,0,3.407.139,1.046,1.046,0,0,0,2.772.017,1.909,1.909,0,0,0,2,.3,3.508,3.508,0,0,0,1.22.946,4.972,4.972,0,0,0,.157,2.826a3.542,3.542,0,0,0-.157,1,1.937,1.937,0,0,0,.157.814,1.055,1.055,0,0,0,.428.486,1.045,1.045,0,0,0,.635.122A1.909,1.909,0,0,0,2,4.969Z" transform="translate(7.97 4.787)" fill="#f0f4ff"/>
      <path id="Path_194018" data-name="Path 194018" d="M1.991,4.961a3.493,3.493,0,0,0,.774-.646A4.845,4.845,0,0,0,3.4,3.435a4.863,4.863,0,0,0,.428-1,3.537,3.537,0,0,0,.157-1A1.936,1.936,0,0,0,3.826.624,1.054,1.054,0,0,0,3.4.138,1.042,1.042,0,0,0,2.764.016,1.9,1.9,0,0,0,1.991.3a3.5,3.5,0,0,0-.774.647A4.961,4.961,0,0,0,.157,2.818a3.541,3.541,0,0,0-.157,1,1.936,1.936,0,0,0,.157.812,1.054,1.054,0,0,0,.427.486,1.042,1.042,0,0,0,.633.122A1.9,1.9,0,0,0,1.991,4.961Z" transform="translate(0 9.561)" fill="#f0f4ff"/>
    </g>
  </g>
  <g id="Group_158358" data-name="Group 158358" transform="translate(67.415 100.455)">
    <g id="Group_158355" data-name="Group 158355" transform="translate(0 12.523)">
      <path id="Path_194019" data-name="Path 194019" d="M0,44.749,7.218,49.3,24.162,30.915,30.948,5.949a2.532,2.532,0,0,0-.083-1.584,2.5,2.5,0,0,0-.4-.682,2.467,2.467,0,0,0-.607-.53L25.392.386A2.418,2.418,0,0,0,22.906.35L2.038,12.414a4.019,4.019,0,0,0-.85.657,4.1,4.1,0,0,0-.642.846A4.152,4.152,0,0,0,0,15.979Z" transform="translate(0 0)" fill="#d2e6f9"/>
    </g>
    <g id="Group_158356" data-name="Group 158356" transform="translate(7.218 17.523)">
      <path id="Path_194020" data-name="Path 194020" d="M0,44.3,24.224,30.464V1.215A1.2,1.2,0,0,0,23.63.168,1.187,1.187,0,0,0,23.053,0a1.175,1.175,0,0,0-.615.16L2.043,11.922a4.039,4.039,0,0,0-.852.657,4.093,4.093,0,0,0-.643.846A4.152,4.152,0,0,0,0,15.49Z" fill="url(#linear-gradient-2)"/>
      <path id="Path_194021" data-name="Path 194021" d="M0,6.044A6.309,6.309,0,0,1,.239,4.38,7.91,7.91,0,0,1,.89,2.759a7.251,7.251,0,0,1,.966-1.4A4.876,4.876,0,0,1,3.039.373,2.55,2.55,0,0,1,4.223,0a1.554,1.554,0,0,1,.967.285,1.942,1.942,0,0,1,.652.873,3.723,3.723,0,0,1,.239,1.391,5.927,5.927,0,0,1-.123,1.173A7.377,7.377,0,0,1,5.613,4.9a8,8,0,0,1-.532,1.117,7.43,7.43,0,0,1-.682.994l.976,4.979L.706,14.666l.975-6.094A1.56,1.56,0,0,1,1,8.36a1.691,1.691,0,0,1-.531-.506,2.491,2.491,0,0,1-.345-.779A4.047,4.047,0,0,1,0,6.044Z" transform="translate(9.174 14.642)" fill="#fff"/>
    </g>
    <g id="Group_158357" data-name="Group 158357" transform="translate(7.636 0)">
      <path id="Path_194022" data-name="Path 194022" d="M1.552,25.959a1.527,1.527,0,0,0,.6-.125A1.555,1.555,0,0,0,2.65,25.5a1.591,1.591,0,0,0,.455-1.118V13.7a10.766,10.766,0,0,1,.437-2.925A14.012,14.012,0,0,1,4.727,7.907,12.865,12.865,0,0,1,6.468,5.441,8.318,8.318,0,0,1,8.574,3.729a4.978,4.978,0,0,1,.783-.35,3.312,3.312,0,0,1,.725-.165,2.22,2.22,0,0,1,.65.023,1.693,1.693,0,0,1,.559.212,1.97,1.97,0,0,1,.549.505,3.05,3.05,0,0,1,.406.752,4.879,4.879,0,0,1,.252.969,7.32,7.32,0,0,1,.087,1.156V17.525a1.587,1.587,0,0,0,.456,1.118,1.557,1.557,0,0,0,.5.338,1.544,1.544,0,0,0,1.214,0,1.568,1.568,0,0,0,.5-.34,1.595,1.595,0,0,0,.457-1.121V6.817a10.072,10.072,0,0,0-.188-1.979,7.692,7.692,0,0,0-.547-1.71,5.922,5.922,0,0,0-.882-1.389A4.934,4.934,0,0,0,12.894.726,4.773,4.773,0,0,0,11.585.178,5.023,5.023,0,0,0,10.16.034a6.1,6.1,0,0,0-1.5.256A7.949,7.949,0,0,0,7.108.946,11.387,11.387,0,0,0,4.313,3.165a15.866,15.866,0,0,0-2.256,3.12A17.03,17.03,0,0,0,.549,9.927,14.045,14.045,0,0,0,0,13.711V24.381A1.587,1.587,0,0,0,.454,25.5a1.551,1.551,0,0,0,.493.338A1.525,1.525,0,0,0,1.552,25.959Z" transform="translate(0 0)" fill="url(#linear-gradient-2)"/>
    </g>
  </g>
  <path id="Path_194023" data-name="Path 194023" d="M11.955,9.4a15,15,0,0,0,1.025-1.57A13.464,13.464,0,0,0,13.768,6.2a10.483,10.483,0,0,0,.506-1.622,7.17,7.17,0,0,0,.179-1.533,3.7,3.7,0,0,0-.439-1.887A2.148,2.148,0,0,0,12.82.18,3.178,3.178,0,0,0,11.05.171,6.925,6.925,0,0,0,8.886,1.19a12.1,12.1,0,0,0-2.162,1.9A14.936,14.936,0,0,0,4.957,5.485,13.094,13.094,0,0,0,3.766,8.07a8.068,8.068,0,0,0-.437,2.473,4.327,4.327,0,0,0,.178,1.29,2.617,2.617,0,0,0,.5.938,2.111,2.111,0,0,0,.786.572,2.593,2.593,0,0,0,1.022.192,23.52,23.52,0,0,0-2.341,2.88,23.271,23.271,0,0,0-1.841,3.164A18.514,18.514,0,0,0,.432,22.8,12.006,12.006,0,0,0,0,25.851l1.479-.993a10.743,10.743,0,0,1,.582-3.3,17.418,17.418,0,0,1,1.588-3.442A19.859,19.859,0,0,1,6,14.934a16.093,16.093,0,0,1,2.883-2.528,9.213,9.213,0,0,1,2.885-1.353,4.24,4.24,0,0,1,2.361.017,2.873,2.873,0,0,1,1.594,1.308,4.944,4.944,0,0,1,.585,2.518l1.488-1a6.479,6.479,0,0,0-.435-2.477,3.721,3.721,0,0,0-1.212-1.6A3.674,3.674,0,0,0,14.3,9.13,6.082,6.082,0,0,0,11.955,9.4ZM8.886,10.91a5.064,5.064,0,0,1-1.586.744A2.325,2.325,0,0,1,6,11.645a1.575,1.575,0,0,1-.874-.718A2.718,2.718,0,0,1,4.81,9.545,5.917,5.917,0,0,1,5.13,7.731,9.6,9.6,0,0,1,6,5.835,10.967,10.967,0,0,1,7.3,4.079,8.874,8.874,0,0,1,8.886,2.685a5.075,5.075,0,0,1,1.587-.747,2.33,2.33,0,0,1,1.3.007,1.575,1.575,0,0,1,.876.717,2.717,2.717,0,0,1,.322,1.384,5.921,5.921,0,0,1-.322,1.817,9.607,9.607,0,0,1-.876,1.9,10.956,10.956,0,0,1-1.3,1.757A8.862,8.862,0,0,1,8.886,10.91Z" transform="translate(119.715 82.87)" fill="#11345e"/>
  <g id="Group_158359" data-name="Group 158359" transform="translate(105.675 89.688)">
    <path id="Path_194024" data-name="Path 194024" d="M51.8,7.368,0,37.689v-7.3L51.8,0Z" fill="#d2e6f9"/>
  </g>
  <g id="Group_158362" data-name="Group 158362" transform="translate(105.675 101.659)">
    <path id="Path_194025" data-name="Path 194025" d="M51.8,7.369,0,37.581v-7.3L51.8,0Z" fill="#d2e6f9"/>
    <g id="Group_158361" data-name="Group 158361" transform="translate(16.272 8.098)">
      <g id="Group_158360" data-name="Group 158360">
        <path id="Ellipse_12289" data-name="Ellipse 12289" d="M1.551,0a1.533,1.533,0,0,1,.6.122,1.55,1.55,0,0,1,.493.335,1.574,1.574,0,0,1,0,2.214,1.555,1.555,0,0,1-.493.336,1.539,1.539,0,0,1-1.7-.334,1.574,1.574,0,0,1,0-2.213A1.555,1.555,0,0,1,.947.126,1.535,1.535,0,0,1,1.551,0Z" transform="translate(0 13.875)" fill="#11345e"/>
        <path id="Ellipse_12290" data-name="Ellipse 12290" d="M1.554,0a1.54,1.54,0,0,1,1.1.457,1.573,1.573,0,0,1-.494,2.553,1.543,1.543,0,0,1-1.7-.333A1.573,1.573,0,0,1,.949.128,1.54,1.54,0,0,1,1.554,0Z" transform="translate(5.815 10.417)" fill="#11345e"/>
        <path id="Path_194026" data-name="Path 194026" d="M1.536,1.626a1.7,1.7,0,0,0,.1.606c.063.185.14.349.191.486s.077.245.036.318-.149.109-.364.1a1.541,1.541,0,0,1-.6-.144,1.565,1.565,0,0,1-.8-.862A1.575,1.575,0,0,1,1,.105,1.546,1.546,0,0,1,1.613,0c.215.007.32.058.355.144A.507.507,0,0,1,1.908.5c-.062.147-.151.32-.227.511A1.853,1.853,0,0,0,1.536,1.626Z" transform="translate(13.221 6.951)" fill="#11345e"/>
        <path id="Ellipse_12291" data-name="Ellipse 12291" d="M1.56.005a1.546,1.546,0,0,1,1.1.456,1.577,1.577,0,0,1-.5,2.559A1.55,1.55,0,0,1,.457,2.688,1.577,1.577,0,0,1,.953.131,1.55,1.55,0,0,1,1.56.005Z" transform="translate(17.482 3.479)" fill="#11345e"/>
        <path id="Ellipse_12292" data-name="Ellipse 12292" d="M1.563.006A1.549,1.549,0,0,1,2.669.462a1.578,1.578,0,0,1-.5,2.562A1.561,1.561,0,0,1,0,1.583,1.58,1.58,0,0,1,.955.132,1.555,1.555,0,0,1,1.563.006Z" transform="translate(23.333)" fill="#11345e"/>
      </g>
    </g>
  </g>
  <g id="Group_158364" data-name="Group 158364" transform="translate(114.313 122.396)">
    <path id="Path_194027" data-name="Path 194027" d="M37.36,9.139,1.64,29.851A1.074,1.074,0,0,1,1.076,30a1.1,1.1,0,0,1-.53-.152A1.1,1.1,0,0,1,0,28.888V21.873a1.113,1.113,0,0,1,.147-.552,1.095,1.095,0,0,1,.4-.4L36.252.153A1.1,1.1,0,0,1,36.823,0a1.107,1.107,0,0,1,1.09,1.112V8.176a1.112,1.112,0,0,1-.554.963Z" transform="translate(0 0)" fill="url(#linear-gradient-5)"/>
    <g id="Group_158363" data-name="Group 158363" transform="translate(11.201 8.049)">
      <path id="Path_194028" data-name="Path 194028" d="M0,4.84V.579L.994,0V3.333l1.418-.823v.93Z" transform="translate(0 8.875)" fill="#fff"/>
      <path id="Path_194029" data-name="Path 194029" d="M3.586,1.482A4.659,4.659,0,0,1,3.557,2a4.05,4.05,0,0,1-.086.491,3.685,3.685,0,0,1-.143.46,3.455,3.455,0,0,1-.2.428,3.343,3.343,0,0,1-.255.393,3.377,3.377,0,0,1-.308.354,3.549,3.549,0,0,1-.361.314,3.964,3.964,0,0,1-.414.275,3.119,3.119,0,0,1-.408.2,1.693,1.693,0,0,1-.358.1.952.952,0,0,1-.307,0,.682.682,0,0,1-.257-.1.725.725,0,0,1-.2-.2,1.123,1.123,0,0,1-.145-.294,2.076,2.076,0,0,1-.087-.391A3.771,3.771,0,0,1,0,3.558a4.548,4.548,0,0,1,.029-.517,4,4,0,0,1,.086-.488,3.655,3.655,0,0,1,.144-.458,3.474,3.474,0,0,1,.2-.429A3.371,3.371,0,0,1,1.024.917,3.566,3.566,0,0,1,1.385.6,3.965,3.965,0,0,1,1.8.327,3.2,3.2,0,0,1,2.211.122a1.717,1.717,0,0,1,.36-.1.947.947,0,0,1,.307,0,.662.662,0,0,1,.254.1.716.716,0,0,1,.2.2A1.144,1.144,0,0,1,3.472.6a2.109,2.109,0,0,1,.085.392A3.862,3.862,0,0,1,3.586,1.482ZM1.048,2.955a2.374,2.374,0,0,0,.046.514.662.662,0,0,0,.14.305.292.292,0,0,0,.232.1.709.709,0,0,0,.325-.112,1.4,1.4,0,0,0,.177-.122,1.328,1.328,0,0,0,.153-.145,1.343,1.343,0,0,0,.128-.168,1.436,1.436,0,0,0,.1-.192,1.722,1.722,0,0,0,.08-.218A2.237,2.237,0,0,0,2.49,2.67q.023-.13.034-.275t.011-.3q0-.16-.012-.292a1.867,1.867,0,0,0-.035-.237.932.932,0,0,0-.058-.181.456.456,0,0,0-.081-.126.294.294,0,0,0-.1-.073.3.3,0,0,0-.127-.022.506.506,0,0,0-.15.03.99.99,0,0,0-.173.081,1.312,1.312,0,0,0-.328.268,1.447,1.447,0,0,0-.234.37,2.039,2.039,0,0,0-.14.472A3.266,3.266,0,0,0,1.048,2.955Z" transform="translate(2.866 6.351)" fill="#fff"/>
      <path id="Path_194030" data-name="Path 194030" d="M1.618,2.444l1.594-.926v2.3q-.162.159-.333.306t-.349.283q-.178.136-.365.26T1.785,4.9a2.945,2.945,0,0,1-.4.2,1.632,1.632,0,0,1-.354.1.946.946,0,0,1-.306,0,.7.7,0,0,1-.257-.1.753.753,0,0,1-.2-.2,1.139,1.139,0,0,1-.146-.293,2.028,2.028,0,0,1-.087-.388A3.648,3.648,0,0,1,0,3.737a3.942,3.942,0,0,1,.032-.506,3.717,3.717,0,0,1,.1-.486,3.614,3.614,0,0,1,.159-.466A3.747,3.747,0,0,1,.51,1.833a3.807,3.807,0,0,1,.28-.414,3.752,3.752,0,0,1,.332-.372A3.92,3.92,0,0,1,1.5.716,4.3,4.3,0,0,1,1.939.428q.087-.05.172-.095T2.278.25Q2.36.212,2.44.18C2.493.158,2.545.139,2.6.121s.1-.033.15-.046.095-.026.14-.036.088-.018.13-.025S3.1,0,3.136,0L2.82,1.089a1.308,1.308,0,0,0-.2.019,1.59,1.59,0,0,0-.214.053,2.053,2.053,0,0,0-.224.087q-.114.052-.234.122a1.73,1.73,0,0,0-.206.14,1.687,1.687,0,0,0-.181.167,1.737,1.737,0,0,0-.156.194,1.9,1.9,0,0,0-.132.22,2.035,2.035,0,0,0-.1.242,2.2,2.2,0,0,0-.075.26,2.438,2.438,0,0,0-.045.278,2.842,2.842,0,0,0-.015.3,2.528,2.528,0,0,0,.013.273,1.434,1.434,0,0,0,.04.222.777.777,0,0,0,.067.171.446.446,0,0,0,.094.12.329.329,0,0,0,.12.068.38.38,0,0,0,.144.015A.636.636,0,0,0,1.677,4a1.2,1.2,0,0,0,.191-.092l.109-.066q.053-.034.1-.07t.1-.074q.049-.038.1-.077V2.952l-.659.383Z" transform="translate(6.982 3.782)" fill="#fff"/>
      <path id="Path_194031" data-name="Path 194031" d="M0,4.852V.583L1,0V4.269Z" transform="translate(10.947 2.511)" fill="#fff"/>
      <path id="Path_194032" data-name="Path 194032" d="M3.522,4.273l-1.311.761L.86,2.809l-.023.013q.012.17.021.322t.015.283q.006.132.009.245t0,.206V5.8L0,6.316V2.047l1.3-.758L2.651,3.475l.015-.009q-.009-.156-.016-.3T2.64,2.9q0-.127-.007-.239t0-.21V.518L3.522,0Z" transform="translate(12.749 0)" fill="#fff"/>
    </g>
  </g>
  <g id="Group_158370" data-name="Group 158370" transform="translate(154.148 15.211)">
    <g id="Group_158365" data-name="Group 158365">
      <path id="Path_194033" data-name="Path 194033" d="M48.616.461,2.912,27.646a5.141,5.141,0,0,0-1.131.937A7.173,7.173,0,0,0,.23,31.292,5.011,5.011,0,0,0,0,32.73V70.263A2.734,2.734,0,0,0,.23,71.43a1.526,1.526,0,0,0,.625.7,1.549,1.549,0,0,0,.926.177,2.8,2.8,0,0,0,1.131-.4l45.7-26.831a5.2,5.2,0,0,0,1.15-.942,7.1,7.1,0,0,0,.942-1.28,7.01,7.01,0,0,0,.636-1.449,5.016,5.016,0,0,0,.234-1.451V2.082A2.72,2.72,0,0,0,51.344.908a1.518,1.518,0,0,0-.636-.7,1.577,1.577,0,0,0-.942-.167A2.9,2.9,0,0,0,48.616.461Z" transform="translate(0 0)" fill="#d1d4eb"/>
      <path id="Path_194034" data-name="Path 194034" d="M46.463.44,2.784,26.413a4.917,4.917,0,0,0-1.081.9,6.749,6.749,0,0,0-.885,1.215,6.676,6.676,0,0,0-.6,1.374A4.793,4.793,0,0,0,0,31.272V67.149a2.613,2.613,0,0,0,.22,1.115,1.458,1.458,0,0,0,.6.668A1.481,1.481,0,0,0,1.7,69.1a2.679,2.679,0,0,0,1.081-.382l43.679-25.65a4.963,4.963,0,0,0,1.1-.9,6.78,6.78,0,0,0,.9-1.223,6.7,6.7,0,0,0,.608-1.385,4.792,4.792,0,0,0,.223-1.386V1.989A2.6,2.6,0,0,0,49.069.867,1.45,1.45,0,0,0,48.461.2a1.506,1.506,0,0,0-.9-.159A2.767,2.767,0,0,0,46.463.44Z" transform="translate(1.327 1.472)" fill="url(#linear-gradient-5)"/>
    </g>
    <path id="Path_194035" data-name="Path 194035" d="M7.108,5.567a8.95,8.95,0,0,0,.609-.93,7.968,7.968,0,0,0,.468-.966,6.161,6.161,0,0,0,.3-.958,4.2,4.2,0,0,0,.106-.9A2.155,2.155,0,0,0,8.331.7a1.26,1.26,0,0,0-.71-.57,1.9,1.9,0,0,0-1.052,0A4.169,4.169,0,0,0,5.284.743,7.264,7.264,0,0,0,4,1.873a8.918,8.918,0,0,0-1.05,1.419A7.755,7.755,0,0,0,2.24,4.822a4.734,4.734,0,0,0-.26,1.46,2.518,2.518,0,0,0,.106.759,1.523,1.523,0,0,0,.3.551,1.238,1.238,0,0,0,.467.333,1.545,1.545,0,0,0,.608.107,14.078,14.078,0,0,0-1.392,1.71,13.854,13.854,0,0,0-1.1,1.875,10.961,10.961,0,0,0-.717,1.906A7.043,7.043,0,0,0,0,15.323l.88-.594a6.311,6.311,0,0,1,.346-1.946,10.321,10.321,0,0,1,.944-2.037,11.868,11.868,0,0,1,1.4-1.891A9.668,9.668,0,0,1,5.284,7.35,5.55,5.55,0,0,1,7,6.538a2.539,2.539,0,0,1,1.4,0,1.681,1.681,0,0,1,.947.762A2.874,2.874,0,0,1,9.7,8.777l.883-.6a3.771,3.771,0,0,0-.258-1.456A2.082,2.082,0,0,0,8.5,5.393,3.655,3.655,0,0,0,7.108,5.567Zm-1.824.9a3.053,3.053,0,0,1-.943.447,1.394,1.394,0,0,1-.77,0A.924.924,0,0,1,3.052,6.5a1.579,1.579,0,0,1-.191-.813,3.471,3.471,0,0,1,.191-1.071,5.689,5.689,0,0,1,.519-1.122,6.541,6.541,0,0,1,.77-1.041,5.324,5.324,0,0,1,.943-.829,3.056,3.056,0,0,1,.943-.448,1.4,1.4,0,0,1,.771,0,.924.924,0,0,1,.52.418,1.579,1.579,0,0,1,.191.813,3.472,3.472,0,0,1-.191,1.072A5.69,5.69,0,0,1,7,4.6a6.527,6.527,0,0,1-.771,1.041A5.32,5.32,0,0,1,5.284,6.469Z" transform="translate(19.447 21.855)" fill="#fff"/>
    <g id="Group_158366" data-name="Group 158366" transform="translate(6.219 23.962)">
      <path id="Path_194036" data-name="Path 194036" d="M39.685,5.591,0,29.006V23.454L39.685,0Z" transform="translate(0 0)" fill="#fff"/>
    </g>
    <g id="Group_158369" data-name="Group 158369" transform="translate(6.219 32.724)">
      <path id="Path_194037" data-name="Path 194037" d="M39.685,5.591,0,28.946V23.393L39.685,0Z" transform="translate(0 0)" fill="#fff"/>
      <g id="Group_158368" data-name="Group 158368" transform="translate(12.484 6.211)">
        <g id="Group_158367" data-name="Group 158367">
          <path id="Ellipse_12293" data-name="Ellipse 12293" d="M1.189.014A1.173,1.173,0,0,1,2.378,1.19a1.194,1.194,0,0,1-.093.464,1.213,1.213,0,0,1-.633.64,1.193,1.193,0,0,1-.463.1A1.173,1.173,0,0,1,0,1.217,1.194,1.194,0,0,1,.093.753,1.213,1.213,0,0,1,.726.113,1.193,1.193,0,0,1,1.189.014Z" transform="translate(0 10.714)" fill="#11345e"/>
          <path id="Ellipse_12294" data-name="Ellipse 12294" d="M1.191.014A1.173,1.173,0,0,1,2.382,1.19a1.194,1.194,0,0,1-.094.464,1.215,1.215,0,0,1-.634.641,1.2,1.2,0,0,1-.464.1A1.173,1.173,0,0,1,0,1.219,1.194,1.194,0,0,1,.094.755,1.215,1.215,0,0,1,.727.114,1.2,1.2,0,0,1,1.191.014Z" transform="translate(4.457 8.042)" fill="#11345e"/>
          <path id="Ellipse_12295" data-name="Ellipse 12295" d="M1.192.015A1.174,1.174,0,0,1,2.385,1.191a1.2,1.2,0,0,1-.094.465,1.217,1.217,0,0,1-.635.642,1.2,1.2,0,0,1-.464.1A1.174,1.174,0,0,1,0,1.221,1.2,1.2,0,0,1,.094.756,1.217,1.217,0,0,1,.728.115,1.2,1.2,0,0,1,1.192.015Z" transform="translate(8.922 5.366)" fill="#11345e"/>
          <path id="Ellipse_12296" data-name="Ellipse 12296" d="M1.194.016A1.174,1.174,0,0,1,2.389,1.192a1.2,1.2,0,0,1-.094.465,1.22,1.22,0,0,1-.636.643,1.2,1.2,0,0,1-.465.1A1.174,1.174,0,0,1,0,1.223,1.2,1.2,0,0,1,.094.758,1.22,1.22,0,0,1,.729.115,1.2,1.2,0,0,1,1.194.016Z" transform="translate(13.393 2.685)" fill="#11345e"/>
          <path id="Ellipse_12297" data-name="Ellipse 12297" d="M1.2.016a1.179,1.179,0,0,1,.846.338,1.172,1.172,0,0,1,.351.839,1.2,1.2,0,0,1-.094.466,1.222,1.222,0,0,1-.637.643,1.205,1.205,0,0,1-.466.1A1.179,1.179,0,0,1,.35,2.064,1.172,1.172,0,0,1,0,1.225,1.2,1.2,0,0,1,.094.76,1.215,1.215,0,0,1,1.2.016Z" transform="translate(17.871)" fill="#11345e"/>
        </g>
      </g>
    </g>
  </g>
  <path id="Ellipse_12298" data-name="Ellipse 12298" d="M12.322,3.732a23.389,23.389,0,0,1,4.965-.943,16.75,16.75,0,0,1,4.356.2,8.788,8.788,0,0,1,3.282,1.257,4.181,4.181,0,0,1,1.741,2.227,4.156,4.156,0,0,1-.209,2.814,8.709,8.709,0,0,1-2.033,2.855,16.655,16.655,0,0,1-3.518,2.566,23.347,23.347,0,0,1-4.663,1.949,23.345,23.345,0,0,1-4.963.93,16.664,16.664,0,0,1-4.34-.211,8.736,8.736,0,0,1-3.261-1.261A4.172,4.172,0,0,1,1.951,13.9a4.154,4.154,0,0,1,.207-2.8A8.677,8.677,0,0,1,4.175,8.25a16.586,16.586,0,0,1,3.5-2.563A23.306,23.306,0,0,1,12.322,3.732Z" transform="translate(47.328 217.889)" fill="#c8e6eb"/>
  <path id="Ellipse_12299" data-name="Ellipse 12299" d="M16.128,4.842a31.259,31.259,0,0,1,6.5-1.23,22.4,22.4,0,0,1,5.709.239,11.632,11.632,0,0,1,4.3,1.6,5.365,5.365,0,0,1,2.284,2.853,5.237,5.237,0,0,1-.274,3.614,11.231,11.231,0,0,1-2.666,3.674A21.9,21.9,0,0,1,27.375,18.9a31.032,31.032,0,0,1-6.111,2.518,31.185,31.185,0,0,1-6.5,1.21,22.249,22.249,0,0,1-5.682-.257,11.543,11.543,0,0,1-4.268-1.607,5.349,5.349,0,0,1-2.26-2.843,5.234,5.234,0,0,1,.271-3.594,11.177,11.177,0,0,1,2.639-3.656,21.781,21.781,0,0,1,4.578-3.3A30.958,30.958,0,0,1,16.128,4.842Z" transform="translate(159.383 198.967)" fill="#c8e6eb"/>
  <g id="Group_158373" data-name="Group 158373" transform="translate(49.247 138.697)">
    <path id="Path_194038" data-name="Path 194038" d="M0,0A4.881,4.881,0,0,1,2.284,2.44,17.618,17.618,0,0,1,3.589,6.306c.318,1.359.541,2.7.739,3.786a7.5,7.5,0,0,0,.586,2.2c.339.474.937,1.281,1.654,2.243s1.553,2.078,2.367,3.172,1.608,2.165,2.24,3.036,1.1,1.54,1.269,1.831a.985.985,0,0,1-.023.947,2.629,2.629,0,0,1-.764.887,2.733,2.733,0,0,1-1.039.512.88.88,0,0,1-.851-.176c-.16-.166-.619-.64-1.253-1.293l-2.3-2.366L3.632,18.421,1.508,16.235a3.389,3.389,0,0,1-.394-.488,3.439,3.439,0,0,1-.57-1.767Z" transform="translate(18.328 11.558)" fill="#9ebbdb"/>
    <g id="Group_158371" data-name="Group 158371">
      <path id="Path_194039" data-name="Path 194039" d="M.519,45.44S.551,44.181.6,42.259.714,37.75.779,35.1s.13-5.373.179-7.564.081-3.853.081-4.39S.9,21.3.726,19.547.338,15.582.188,13.235-.048,8.4.029,6.095A24.449,24.449,0,0,1,.853.007L16.251,1.6s.019.417.047,1.051.066,1.484.1,2.35.076,1.748.1,2.444.047,1.208.047,1.333c0,.2-.146,1.641-.36,3.858s-.5,5.2-.771,8.481-.538,6.847-.715,10.228-.267,6.575-.193,9.1l-6.035.487s-.007-.837,0-2.173.031-3.172.09-5.17.155-4.159.31-6.145a38.761,38.761,0,0,1,.66-5.1c.015-.785.011-1.816,0-2.921s-.038-2.283-.064-3.363S9.417,14,9.4,13.289s-.036-1.154-.036-1.154-.127.59-.321,1.51-.455,2.169-.722,3.487-.542,2.7-.763,3.9-.388,2.2-.442,2.747-.178,2.21-.335,4.389-.344,4.878-.526,7.509-.356,5.191-.485,7.095-.213,3.149-.213,3.149-.187-.028-.5-.07-.749-.1-1.251-.157-1.066-.116-1.634-.163S1.031,45.449.519,45.44Z" transform="translate(3.433 41.053)" fill="#073669"/>
      <path id="Path_194040" data-name="Path 194040" d="M.128,15.111a3.552,3.552,0,0,1-.081-.467,7.824,7.824,0,0,1-.034-1.334,11.3,11.3,0,0,1,.323-2.1,15.233,15.233,0,0,1,.991-2.772A6.635,6.635,0,0,1,2.5,6.745,12.708,12.708,0,0,1,4.3,5.173,24.648,24.648,0,0,1,6.6,3.7c.834-.48,1.73-.948,2.665-1.409A27,27,0,0,1,13.841.448,8.24,8.24,0,0,1,17.028.092a3.323,3.323,0,0,1,2.025.951,4.664,4.664,0,0,1,1.1,2.081,14,14,0,0,1,.311,1.933c.093.85.17,1.867.219,2.94s.07,2.2.049,3.27a25.842,25.842,0,0,1-.2,2.923c-.189,1.377-.351,2.98-.48,4.664S19.826,22.3,19.769,24s-.077,3.337-.052,4.764a32.323,32.323,0,0,0,.209,3.508.964.964,0,0,1-.329.678,5.132,5.132,0,0,1-1.13.888,11.754,11.754,0,0,1-1.937.928,18.774,18.774,0,0,1-2.747.8,15.485,15.485,0,0,1-2.856.283,19.494,19.494,0,0,1-3.36-.227,9.565,9.565,0,0,1-2.914-.889,2.739,2.739,0,0,1-1.521-1.7l.4-16.7Z" transform="translate(0 11.061)" fill="#c7daf2"/>
      <path id="Path_194041" data-name="Path 194041" d="M6.536,2.145a1.5,1.5,0,0,1-.257.825,2.344,2.344,0,0,1-.7.672,3.707,3.707,0,0,1-1.039.451,4.809,4.809,0,0,1-1.272.162,4.818,4.818,0,0,1-1.272-.172A3.736,3.736,0,0,1,.956,3.624a2.369,2.369,0,0,1-.7-.677A1.507,1.507,0,0,1,0,2.121,1.5,1.5,0,0,1,.257,1.3a2.342,2.342,0,0,1,.7-.672A3.7,3.7,0,0,1,1.994.173,4.934,4.934,0,0,1,4.538.182,3.74,3.74,0,0,1,5.578.64a2.371,2.371,0,0,1,.7.677A1.507,1.507,0,0,1,6.536,2.145Z" transform="translate(9.212 12.275)" fill="#fcae6e"/>
      <path id="Rectangle_168852" data-name="Rectangle 168852" d="M0,0,5.809.016V5.554a.852.852,0,0,1-.065.328.841.841,0,0,1-.177.267.822.822,0,0,1-.263.18.808.808,0,0,1-.322.065l-3.4-.013A1.559,1.559,0,0,1,.97,6.25a1.6,1.6,0,0,1-.5-.349A1.638,1.638,0,0,1,0,4.754Z" transform="translate(9.715 8.934)" fill="#fcae6e"/>
      <path id="Path_194042" data-name="Path 194042" d="M0,0A6.828,6.828,0,0,0,.284,1.96,6.411,6.411,0,0,0,1.1,3.693a6.034,6.034,0,0,0,1.287,1.39,5.921,5.921,0,0,0,1.7.931h0a.8.8,0,0,0,.395.036A.813.813,0,0,0,4.832,5.9a.833.833,0,0,0,.249-.288.845.845,0,0,0,.095-.392V.014Z" transform="translate(10.349 8.936)" fill="#f29955"/>
      <path id="Path_194043" data-name="Path 194043" d="M7.964,6.183C7.9,7.166,7.807,8.1,7.671,8.936a12.165,12.165,0,0,1-.543,2.221,4.031,4.031,0,0,1-.866,1.482A1.726,1.726,0,0,1,5,13.176a3.956,3.956,0,0,1-2.019-.56A5.1,5.1,0,0,1,1.4,11.1,7.6,7.6,0,0,1,.369,8.849,10.2,10.2,0,0,1,0,6.082C0,5.1.01,4.226.072,3.472A6.735,6.735,0,0,1,.45,1.566,2.293,2.293,0,0,1,1.377.4,3.227,3.227,0,0,1,3.1,0,4.915,4.915,0,0,1,5.13.428,4.449,4.449,0,0,1,6.724,1.647a5.26,5.26,0,0,1,1,1.943A7.674,7.674,0,0,1,7.964,6.183Z" transform="translate(9.715 0.19)" fill="#fcae6e"/>
      <path id="Path_194044" data-name="Path 194044" d="M1.724,11.743s0-.123,0-.347.009-.551.033-.958.062-.9.125-1.444.152-1.157.275-1.805a9.471,9.471,0,0,1,.217-.948,2.288,2.288,0,0,1,.3-.654,1.393,1.393,0,0,1,.478-.428,2.843,2.843,0,0,1,.763-.269,2.388,2.388,0,0,1,.676.1c.334.074.751.18,1.179.285s.867.211,1.242.285a3.364,3.364,0,0,0,.866.094,1.352,1.352,0,0,0,.641-.308c.2-.154.378-.336.536-.473s.293-.231.4-.21.187.158.234.481a1,1,0,0,0,.071-.174,2.6,2.6,0,0,0,.107-.548,4.771,4.771,0,0,0-.013-.964,8.244,8.244,0,0,0-.29-1.42A2.815,2.815,0,0,0,7.994.677a7.273,7.273,0,0,0-3-.671A4.85,4.85,0,0,0,1.913.995,5.375,5.375,0,0,0,.094,4.615,8.674,8.674,0,0,0,.067,6.967,8.4,8.4,0,0,0,.533,8.811c.2.551.438,1.05.654,1.528A9.381,9.381,0,0,1,1.724,11.743Z" transform="translate(7.991 0)" fill="#111b33"/>
      <path id="Path_194045" data-name="Path 194045" d="M2.36,1.752c0,.241,0,.482,0,.708a3.391,3.391,0,0,1-.066.616.913.913,0,0,1-.2.435.546.546,0,0,1-.419.164,1.054,1.054,0,0,1-.571-.206,2.378,2.378,0,0,1-.538-.524,2.976,2.976,0,0,1-.4-.7A2.065,2.065,0,0,1,0,1.494,3.179,3.179,0,0,1,.056.854,1.364,1.364,0,0,1,.236.386.794.794,0,0,1,.554.1,1.047,1.047,0,0,1,1.025,0a1.069,1.069,0,0,1,.52.138,1.387,1.387,0,0,1,.424.375,1.854,1.854,0,0,1,.286.556A2.213,2.213,0,0,1,2.36,1.752Z" transform="translate(8.771 6.196)" fill="#fcae6e"/>
      <path id="Path_194046" data-name="Path 194046" d="M1.585,5.818H1.511a1.642,1.642,0,0,1-1.057-.4,1.358,1.358,0,0,1-.444-.835A1.229,1.229,0,0,1,.233,3.7a1.476,1.476,0,0,1,.942-.553c.183-.036.366-.067.548-.1s.363-.062.54-.1.351-.074.517-.12a3.646,3.646,0,0,0,.48-.167L4.2,1.206A2.658,2.658,0,0,1,4.484.866,5.571,5.571,0,0,1,4.941.44,2.613,2.613,0,0,1,5.417.114c.145-.071.268-.1.345-.041s.061.152.023.293a3.054,3.054,0,0,1-.2.493c-.086.178-.182.359-.264.514a3.785,3.785,0,0,0-.175.355s-.05.085-.109.2a2.4,2.4,0,0,0-.165.414c-.037.14-.043.264.022.324s.2.054.45-.066a3.652,3.652,0,0,0,.831-.764c.321-.356.667-.764.982-1.075s.6-.524.8-.49.311.313.282.989a3.5,3.5,0,0,1-.75,2A5.675,5.675,0,0,1,5.787,4.693a8.79,8.79,0,0,1-2.142.858A7.855,7.855,0,0,1,1.585,5.818Z" transform="translate(16.63 36.969)" fill="#fcae6e"/>
      <path id="Path_194047" data-name="Path 194047" d="M0,.063S.046.83.118,2,.289,4.74.4,6.348.617,9.6.72,10.921s.194,2.309.255,2.607a4.429,4.429,0,0,0,.947,1.63,9.862,9.862,0,0,0,2.817,2.271,15.052,15.052,0,0,0,5.2,1.664,27.171,27.171,0,0,0,8.111-.2s.028-.148.066-.395.087-.592.129-.987.077-.839.088-1.282a8.076,8.076,0,0,0-.057-1.281c-.637-.044-1.6-.081-2.724-.153s-2.391-.182-3.637-.372a16.873,16.873,0,0,1-3.485-.857A4.557,4.557,0,0,1,6.16,11.96a4.552,4.552,0,0,1-.373-1.427c-.1-.663-.181-1.458-.242-2.224s-.1-1.5-.131-2.048-.039-.9-.039-.9a4.841,4.841,0,0,0-.254-2.225,4.825,4.825,0,0,0-1.149-1.79A4.692,4.692,0,0,0,2.182.241,4.538,4.538,0,0,0,0,.063Z" transform="translate(0.05 24.381)" fill="#9ebbdb"/>
    </g>
    <path id="Path_194048" data-name="Path 194048" d="M0,.272s0,.15.007.385.008.555.011.895,0,.7,0,1.011S.012,3.143,0,3.3s.333.5.9.944a24.844,24.844,0,0,0,2.21,1.506,29.805,29.805,0,0,0,2.7,1.479,10.5,10.5,0,0,0,2.36.863,3.7,3.7,0,0,0,.956.06,2.778,2.778,0,0,0,.772-.167,2.531,2.531,0,0,0,.6-.325,2.664,2.664,0,0,0,.449-.415,1.132,1.132,0,0,0,.232-.43,1.229,1.229,0,0,0,.038-.477,1.308,1.308,0,0,0-.458-.852c-.8-.668-1.519-1.34-2.152-1.971s-1.176-1.223-1.62-1.73S6.2.852,5.964.555,5.609.088,5.609.088Z" transform="translate(11.961 81.416)" fill="#111b33"/>
    <path id="Path_194049" data-name="Path 194049" d="M.478.008S.442.2.391.488.27,1.177.206,1.6.079,2.46.041,2.842a4.307,4.307,0,0,0-.027.886c.027.181.075.6.193,1.136A7.933,7.933,0,0,0,.815,6.652,4.384,4.384,0,0,0,2.126,8.281a3.6,3.6,0,0,0,2.3.662,2.062,2.062,0,0,0,1.83-.831A2.617,2.617,0,0,0,6.5,6.356a8.561,8.561,0,0,0-.522-1.851c-.211-.54-.414-.958-.473-1.115a7.954,7.954,0,0,1-.217-.782c-.082-.34-.168-.734-.248-1.109s-.151-.73-.2-.991S4.757.079,4.757.079Z" transform="translate(3.862 86.398)" fill="#111b33"/>
    <path id="Path_194050" data-name="Path 194050" d="M.032,1.173A1.9,1.9,0,0,1,0,.967.949.949,0,0,1,.012.738.814.814,0,0,1,.1.49a1.067,1.067,0,0,1,.2-.259A.83.83,0,0,1,.5.086.755.755,0,0,1,.728.008.421.421,0,0,1,.944.027.286.286,0,0,1,1.1.172a.46.46,0,0,1,.025.269,1.3,1.3,0,0,1-.1.319,1.737,1.737,0,0,1-.162.289A.719.719,0,0,1,.7,1.227.532.532,0,0,1,.515,1.3.809.809,0,0,1,.3,1.315a.49.49,0,0,1-.181-.041A.148.148,0,0,1,.032,1.173Z" transform="translate(15.454 10.91)" fill="#fcae6e"/>
    <g id="Group_158372" data-name="Group 158372" transform="translate(21.779 31.046)">
      <path id="Path_194051" data-name="Path 194051" d="M0,6.462l3.582-.351L8.91.061,5.322.416Z" transform="translate(0.869 0.941)" fill="url(#linear-gradient-7)"/>
      <path id="Path_194052" data-name="Path 194052" d="M.869,7.06,0,6.082,5.32.036l.87.978Z" transform="translate(0 0.344)" fill="#1b2851"/>
      <path id="Path_194053" data-name="Path 194053" d="M4.459,1,3.587.024,0,.38l.87.978Z" transform="translate(5.32 0)" fill="#1b2851"/>
    </g>
    <path id="Path_194054" data-name="Path 194054" d="M5.253.946a1.821,1.821,0,0,1-.385.335,1.963,1.963,0,0,1-.451.21,3.835,3.835,0,0,1-.547.13c-.2.035-.425.064-.674.094s-.52.054-.765.078-.476.047-.68.082a2.021,2.021,0,0,0-.516.144.5.5,0,0,0-.274.263.268.268,0,0,0,.05.3.663.663,0,0,0,.3.155,1.887,1.887,0,0,0,.334.058c.094.008.158.009.158.009l.253,0c.151,0,.352.008.55.019s.394.025.535.046.228.05.208.088-.125.077-.28.116-.358.076-.575.109-.446.063-.653.085-.39.037-.515.042c-.225.009-.418.014-.582.023a2.353,2.353,0,0,0-.4.048A.473.473,0,0,0,.1,3.5a.4.4,0,0,0-.1.248c-.015.163.128.258.35.313a3.858,3.858,0,0,0,.827.072c.3,0,.606-.008.83,0s.371.024.36.086-.14.121-.331.176-.442.107-.7.154-.514.09-.719.128a1.7,1.7,0,0,0-.4.1.115.115,0,0,0-.059.1A.186.186,0,0,0,.248,5,.881.881,0,0,0,.5,5.131a2.735,2.735,0,0,0,.443.112,4.706,4.706,0,0,0,.683.059,7.633,7.633,0,0,0,.868-.03,5.663,5.663,0,0,0,.878-.146,2.471,2.471,0,0,0,.712-.288,5.755,5.755,0,0,0,1.1-.929,5.675,5.675,0,0,0,.784-1.072A3.851,3.851,0,0,0,6.38,1.795,1.577,1.577,0,0,0,6.369.953L6.049.042Z" transform="translate(25.188 32.371)" fill="#fcae6e"/>
    <path id="Path_194055" data-name="Path 194055" d="M1.232,5.119h0C1.124,4.744,1,4.311.881,3.855A10.118,10.118,0,0,1,.619,2.449,4.364,4.364,0,0,1,.664,1.1,2.149,2.149,0,0,1,1.232,0L0,0V3.859a1.27,1.27,0,0,0,.361.89,1.235,1.235,0,0,0,.392.27A1.207,1.207,0,0,0,1.232,5.119Z" transform="translate(10.349 4.994)" fill="#111b33"/>
  </g>
  <g id="Group_158374" data-name="Group 158374" transform="translate(143.935 118.586)">
    <path id="Path_194056" data-name="Path 194056" d="M7.245,7.132s-.01-.1-.028-.247-.042-.358-.071-.581-.061-.461-.095-.675-.068-.4-.1-.53-.074-.344-.126-.611-.116-.583-.192-.9a9.062,9.062,0,0,0-.266-.931,2.484,2.484,0,0,0-.349-.7c-.131-.163-.229-.185-.305-.119a.824.824,0,0,0-.172.409c-.042.189-.073.412-.1.616a3.6,3.6,0,0,1-.092.5.623.623,0,0,1-.2.291.691.691,0,0,1-.339.149A.75.75,0,0,1,4.4,3.748a1.107,1.107,0,0,1-.415-.335,3.677,3.677,0,0,1-.393-.668c-.131-.27-.26-.577-.388-.889s-.255-.631-.379-.925A8.13,8.13,0,0,0,2.458.158C2.339-.054,2.11-.03,1.838.151a3.747,3.747,0,0,0-.88.929A6.121,6.121,0,0,0,.219,2.461a2.712,2.712,0,0,0-.2,1.354A7.721,7.721,0,0,0,.3,4.928a6.127,6.127,0,0,0,.43.99,5.831,5.831,0,0,0,.6.888,6.759,6.759,0,0,0,.781.808,5.518,5.518,0,0,0,.874.623c.294.172.585.312.854.437s.517.234.724.344a1.684,1.684,0,0,1,.483.344Z" transform="translate(0 5.718)" fill="#fcae6e"/>
    <path id="Path_194057" data-name="Path 194057" d="M8.456.188a.163.163,0,0,1-.009.1.483.483,0,0,1-.223.228,2.379,2.379,0,0,1-.73.249A9.657,9.657,0,0,1,5.966.928c-.675.028-1.36.046-2.014.086a13.357,13.357,0,0,0-1.826.212,3.868,3.868,0,0,0-1.389.521,1.583,1.583,0,0,0-.7,1.012A2.056,2.056,0,0,0,.258,4.111,4.278,4.278,0,0,0,1.324,5.4,7.1,7.1,0,0,0,3.01,6.452a8.077,8.077,0,0,0,2.083.614,19.61,19.61,0,0,0,2.189.184c.806.028,1.669.025,2.53,0s1.721-.085,2.521-.162,1.539-.175,2.159-.289a1.756,1.756,0,0,0,.3-.08,1.049,1.049,0,0,0,.252-.133.7.7,0,0,0,.184-.2.684.684,0,0,0,.095-.272c.029-.217.056-.477.072-.77a9.651,9.651,0,0,0,0-.974,9.2,9.2,0,0,0-.123-1.125,8.532,8.532,0,0,0-.305-1.223,2.271,2.271,0,0,0-1.352-1.3,7.585,7.585,0,0,0-2.2-.518A15.987,15.987,0,0,0,9.361.138C8.813.153,8.456.188,8.456.188Z" transform="translate(28.88 89.436)" fill="#111b33"/>
    <path id="Path_194058" data-name="Path 194058" d="M8.44.129a.163.163,0,0,1-.009.1.481.481,0,0,1-.223.228A2.363,2.363,0,0,1,7.481.7,9.636,9.636,0,0,1,5.957.866C5.284.893,4.6.912,3.948.951a13.333,13.333,0,0,0-1.821.211,3.849,3.849,0,0,0-1.385.52,1.579,1.579,0,0,0-.7,1.011A1.892,1.892,0,0,0,.2,3.937,3.03,3.03,0,0,0,1.132,5a6.172,6.172,0,0,0,1.548.814A10.252,10.252,0,0,0,4.7,6.32c.632.1,1.423.188,2.285.273s1.8.164,2.713.235,1.82.132,2.618.184,1.494.092,2,.12a.814.814,0,0,0,.3-.037.762.762,0,0,0,.433-.357.813.813,0,0,0,.094-.285c.029-.216.06-.475.089-.768s.054-.619.073-.969.029-.725.028-1.116-.015-.8-.045-1.207A1.8,1.8,0,0,0,14.133.982,8,8,0,0,0,11.789.321,19.417,19.417,0,0,0,9.482.13C8.856.114,8.44.129,8.44.129Z" transform="translate(21.52 91.399)" fill="#111b33"/>
    <path id="Path_194059" data-name="Path 194059" d="M8.809.052s.018,1.357.049,3.435.073,4.875.122,7.755.1,5.843.159,8.251.11,4.261.159,4.922.123,2.157.205,4.031.175,4.124.261,6.291.165,4.253.224,5.8.1,2.544.1,2.544-.284.139-.766.322a14.416,14.416,0,0,1-1.949.588,11.011,11.011,0,0,1-2.608.285,6.9,6.9,0,0,1-2.745-.585L0,2.442Z" transform="translate(34.51 47.886)" fill="#033f75"/>
    <path id="Path_194060" data-name="Path 194060" d="M9.73.938V22.662c.049,1.588.108,3.821.169,6.277s.124,5.135.181,7.615.108,4.763.145,6.424.059,2.7.059,2.7a12.3,12.3,0,0,1-3.509-.151A12.172,12.172,0,0,1,4.109,44.7a11.309,11.309,0,0,1-1.7-.927,6.493,6.493,0,0,1-.594-.439c.073-.706.11-2.236.123-4.134s0-4.164-.014-6.341-.046-4.267-.069-5.811S1.82,24.5,1.82,24.5c-.265-2.078-.5-4.471-.713-6.929S.715,12.591.563,10.25.288,5.752.2,4.026.045,1.007.017.394q0-.1-.008-.17C.007.175.005.134,0,.1S0,.042,0,.025V0Z" transform="translate(27.223 48.33)" fill="#073669"/>
    <path id="Path_194061" data-name="Path 194061" d="M3.138,0s.208.647.51,1.7.7,2.524,1.068,4.162A52.562,52.562,0,0,1,5.65,11.06a19.936,19.936,0,0,1,.1,4.789s-.168.142-.467.378-.731.565-1.259.938-1.151.791-1.834,1.2A22.8,22.8,0,0,1,0,19.547Z" transform="translate(43.319 17.272)" fill="#9ebbdb"/>
    <path id="Path_194062" data-name="Path 194062" d="M0,7.237a8.633,8.633,0,0,0,.466,2.8A7.48,7.48,0,0,0,1.722,12.32a5.953,5.953,0,0,0,1.86,1.538,4.856,4.856,0,0,0,4.551-.011A5.967,5.967,0,0,0,9.989,12.3,7.507,7.507,0,0,0,11.239,10a8.774,8.774,0,0,0-.014-5.612A7.483,7.483,0,0,0,9.963,2.1,5.948,5.948,0,0,0,8.1.569,4.858,4.858,0,0,0,3.547.59,5.971,5.971,0,0,0,1.7,2.142,7.5,7.5,0,0,0,.451,4.435,8.638,8.638,0,0,0,0,7.237Z" transform="translate(28.373 0.481)" fill="#fcae6e"/>
    <path id="Path_194063" data-name="Path 194063" d="M13.982.012S13.718-.006,13.27,0a14.624,14.624,0,0,0-1.814.154A13.507,13.507,0,0,0,9.023.745,10.46,10.46,0,0,0,6.451,2.036s-.015.043-.049.116a2.555,2.555,0,0,1-.156.287,2.612,2.612,0,0,1-.28.37,2.283,2.283,0,0,1-.42.363A9.747,9.747,0,0,1,4.4,3.717c-.551.236-1.224.509-1.876.769s-1.283.5-1.751.686-.773.3-.773.3S.191,6.756.451,8.834s.59,4.948.868,8.11.5,6.617.558,9.866a47.97,47.97,0,0,1-.48,8.631,9.014,9.014,0,0,0,1.285.79,15.119,15.119,0,0,0,3.664,1.327,17.394,17.394,0,0,0,5.758.3,22.723,22.723,0,0,0,7.57-2.3s.1-1.6.267-4.094.391-5.88.64-9.452.521-7.331.776-10.568.492-5.951.672-7.436a3.8,3.8,0,0,0-.388-.386,10.179,10.179,0,0,0-1.318-.976,17.985,17.985,0,0,0-2.477-1.293A28.74,28.74,0,0,0,13.982.012Z" transform="translate(24.43 13.271)" fill="#c7daf2"/>
    <path id="Path_194064" data-name="Path 194064" d="M20.81,7.133l-8.279,1.9L3.713.007A5.173,5.173,0,0,0,3.22.2a7.326,7.326,0,0,0-1.13.62A5.721,5.721,0,0,0,.843,1.936,4.163,4.163,0,0,0,0,3.62L10.507,15.637l12.974-1.1a9.07,9.07,0,0,0,.4-1.027,8.655,8.655,0,0,0,.437-2.329,4.048,4.048,0,0,0-.648-2.5A4.069,4.069,0,0,0,20.81,7.133Z" transform="translate(3.62 11.606)" fill="#9ebbdb"/>
    <path id="Path_194065" data-name="Path 194065" d="M4.913.176s-.4.082-.969.259a11.036,11.036,0,0,0-2,.825A4.251,4.251,0,0,0,.283,2.72,2.124,2.124,0,0,0,.31,4.887,3.271,3.271,0,0,0,1.858,6.135a13.23,13.23,0,0,0,2.4.814c.827.206,1.623.35,2.211.443s.971.134.971.134-.2.111-.468.291a5.1,5.1,0,0,0-.851.7,1.169,1.169,0,0,0-.4.855c.032.282.278.547.875.753a2.509,2.509,0,0,0,.127.487,3.39,3.39,0,0,0,.6,1.051,3.532,3.532,0,0,0,1.417,1A5.889,5.889,0,0,0,11.311,13a13.134,13.134,0,0,0,.9-1.39,13.343,13.343,0,0,0,1.372-3.36,6.993,6.993,0,0,0-.123-4.114A6.826,6.826,0,0,0,9.865.488S9.725.438,9.473.37A10.072,10.072,0,0,0,8.408.148,11.084,11.084,0,0,0,6.833.017,10.2,10.2,0,0,0,4.913.176Z" transform="translate(27.181)" fill="#111b33"/>
  </g>
  <g id="Group_158375" data-name="Group 158375" transform="translate(81.986 15.163)">
    <path id="Path_194066" data-name="Path 194066" d="M6.8,2.673a6.016,6.016,0,0,1-.045,1.8,7.388,7.388,0,0,1-.546,1.781,6.967,6.967,0,0,1-.955,1.556A5.066,5.066,0,0,1,3.984,8.944a3.042,3.042,0,0,1-1.355.463,2.122,2.122,0,0,1-1.191-.256,2.436,2.436,0,0,1-.9-.9,3.922,3.922,0,0,1-.49-1.477A6.061,6.061,0,0,1,.1,4.978,7.425,7.425,0,0,1,.639,3.2a6.951,6.951,0,0,1,.949-1.55A5.027,5.027,0,0,1,2.854.528,3.081,3.081,0,0,1,4.215.058a2.135,2.135,0,0,1,1.2.248,2.407,2.407,0,0,1,.905.9A3.846,3.846,0,0,1,6.8,2.673ZM3.781,7.445a3.293,3.293,0,0,0,.825-.729,4.467,4.467,0,0,0,.617-1,4.774,4.774,0,0,0,.353-1.147A3.987,3.987,0,0,0,5.611,3.4a2.509,2.509,0,0,0-.318-.948,1.558,1.558,0,0,0-.585-.576,1.389,1.389,0,0,0-.772-.161,2.028,2.028,0,0,0-.882.3,3.328,3.328,0,0,0-.813.731,4.535,4.535,0,0,0-.612,1,4.752,4.752,0,0,0-.351,1.143,3.855,3.855,0,0,0-.029,1.159A2.524,2.524,0,0,0,1.56,7a1.551,1.551,0,0,0,.582.58,1.366,1.366,0,0,0,.768.161,1.973,1.973,0,0,0,.871-.3" transform="translate(0 0)" fill="url(#linear-gradient-2)"/>
  </g>
  <g id="Group_158377" data-name="Group 158377" transform="translate(26.623 65.997)">
    <g id="Group_158376" data-name="Group 158376">
      <path id="Path_194067" data-name="Path 194067" d="M6.671,2.647a6.009,6.009,0,0,1-.044,1.786,7.317,7.317,0,0,1-.535,1.759,6.832,6.832,0,0,1-.937,1.533A4.92,4.92,0,0,1,3.906,8.831a2.939,2.939,0,0,1-1.329.446,2.076,2.076,0,0,1-1.168-.264,2.431,2.431,0,0,1-.885-.9,3.942,3.942,0,0,1-.48-1.467,6.057,6.057,0,0,1,.05-1.777A7.353,7.353,0,0,1,.626,3.118a6.812,6.812,0,0,1,.93-1.527A4.879,4.879,0,0,1,2.8.488,2.976,2.976,0,0,1,4.133.034,2.087,2.087,0,0,1,5.307.291a2.4,2.4,0,0,1,.888.895A3.866,3.866,0,0,1,6.671,2.647Zm-2.963,4.7a3.2,3.2,0,0,0,.809-.715,4.374,4.374,0,0,0,.6-.985,4.729,4.729,0,0,0,.346-1.133A3.985,3.985,0,0,0,5.5,3.355a2.524,2.524,0,0,0-.312-.941,1.554,1.554,0,0,0-.573-.575,1.359,1.359,0,0,0-.757-.166,1.959,1.959,0,0,0-.865.286,3.228,3.228,0,0,0-.8.717,4.45,4.45,0,0,0-.6.986,4.71,4.71,0,0,0-.344,1.129,3.85,3.85,0,0,0-.029,1.147,2.535,2.535,0,0,0,.307.952,1.548,1.548,0,0,0,.571.58,1.337,1.337,0,0,0,.753.166,1.906,1.906,0,0,0,.854-.289" fill="#073669"/>
    </g>
  </g>
  <g id="Group_158378" data-name="Group 158378" transform="translate(174.288 4.403)">
    <path id="Path_194068" data-name="Path 194068" d="M9.087,4.816A6.016,6.016,0,0,1,9.04,6.65a7.437,7.437,0,0,1-.564,1.812,7.078,7.078,0,0,1-.988,1.584A5.22,5.22,0,0,1,6.172,11.2a3.184,3.184,0,0,1-1.4.473,2.222,2.222,0,0,1-1.232-.258,2.492,2.492,0,0,1-.934-.916,3.942,3.942,0,0,1-.506-1.5,6.063,6.063,0,0,1,.052-1.825,7.462,7.462,0,0,1,.562-1.8A7.069,7.069,0,0,1,3.7,3.787,5.18,5.18,0,0,1,5,2.641a3.226,3.226,0,0,1,1.407-.48,2.236,2.236,0,0,1,1.238.251,2.466,2.466,0,0,1,.936.909A3.865,3.865,0,0,1,9.087,4.816ZM5.963,9.672a3.394,3.394,0,0,0,.853-.742,4.535,4.535,0,0,0,.637-1.018,4.8,4.8,0,0,0,.365-1.167,3.989,3.989,0,0,0,.036-1.188,2.522,2.522,0,0,0-.329-.963,1.593,1.593,0,0,0-.6-.585,1.455,1.455,0,0,0-.8-.163,2.123,2.123,0,0,0-.912.3,3.424,3.424,0,0,0-.841.745,4.613,4.613,0,0,0-.633,1.018,4.788,4.788,0,0,0-.363,1.163,3.858,3.858,0,0,0-.03,1.178,2.536,2.536,0,0,0,.324.974,1.587,1.587,0,0,0,.6.589,1.43,1.43,0,0,0,.794.162,2.065,2.065,0,0,0,.9-.306" fill="none" stroke="#707070" stroke-width="4"/>
  </g>
  <g id="Group_158379" data-name="Group 158379" transform="translate(48.487 42.495)">
    <path id="Path_194069" data-name="Path 194069" d="M4.482,5.239a2.278,2.278,0,0,0-.315.229,2.411,2.411,0,0,0-.256.259A2.771,2.771,0,0,0,3.7,6c-.062.094-.117.188-.166.281s-.1.185-.142.273l-.128.256c-.042.082-.083.161-.126.236a2.423,2.423,0,0,1-.136.213c-.032.044-.065.087-.1.129a1.684,1.684,0,0,1-.116.123,1.59,1.59,0,0,1-.136.116,1.8,1.8,0,0,1-.162.11,1.5,1.5,0,0,1-.241.118.837.837,0,0,1-.2.049.7.7,0,0,1-.175,0,1.052,1.052,0,0,1-.166-.039c-.054-.018-.109-.042-.165-.067s-.114-.053-.176-.079a1.616,1.616,0,0,0-.2-.069,1.141,1.141,0,0,0-.225-.039.9.9,0,0,0-.166,0A1.129,1.129,0,0,0,.6,7.653a1.49,1.49,0,0,0-.2.074,1.992,1.992,0,0,0-.217.115A.313.313,0,0,0,.1,7.912a.449.449,0,0,0-.06.1.473.473,0,0,0-.035.112.378.378,0,0,0,0,.113.254.254,0,0,0,.031.1.156.156,0,0,0,.057.058.134.134,0,0,0,.075.017.187.187,0,0,0,.085-.028,1.49,1.49,0,0,1,.242-.118.819.819,0,0,1,.2-.049.691.691,0,0,1,.175,0,1.1,1.1,0,0,1,.165.04A1.746,1.746,0,0,1,1.2,8.32c.056.025.115.052.176.078a1.669,1.669,0,0,0,.2.069,1.16,1.16,0,0,0,.225.04,1.013,1.013,0,0,0,.164,0,1.146,1.146,0,0,0,.179-.034A1.4,1.4,0,0,0,2.331,8.4a1.809,1.809,0,0,0,.21-.109,2.411,2.411,0,0,0,.326-.235,2.456,2.456,0,0,0,.262-.263,2.782,2.782,0,0,0,.21-.278c.062-.094.118-.189.168-.282s.1-.184.14-.272.086-.174.128-.256.083-.161.126-.236a2.465,2.465,0,0,1,.134-.212c.033-.045.066-.088.1-.13A1.679,1.679,0,0,1,4.253,6a1.609,1.609,0,0,1,.137-.117,1.844,1.844,0,0,1,.164-.111,1.481,1.481,0,0,1,.241-.117.82.82,0,0,1,.2-.048.685.685,0,0,1,.174,0,1.1,1.1,0,0,1,.165.04A1.7,1.7,0,0,1,5.5,5.72c.056.025.114.053.176.078a1.689,1.689,0,0,0,.195.07,1.166,1.166,0,0,0,.223.041A1.029,1.029,0,0,0,6.257,5.9a1.156,1.156,0,0,0,.179-.034A1.4,1.4,0,0,0,6.63,5.8a1.812,1.812,0,0,0,.21-.109,2.448,2.448,0,0,0,.326-.236,2.491,2.491,0,0,0,.264-.263,2.758,2.758,0,0,0,.21-.278c.062-.094.117-.188.167-.281s.1-.185.142-.273L8.077,4.1c.041-.082.082-.161.125-.236a2.438,2.438,0,0,1,.134-.213c.033-.045.067-.088.1-.13s.075-.083.117-.123a1.618,1.618,0,0,1,.137-.117,1.791,1.791,0,0,1,.164-.111,1.479,1.479,0,0,1,.239-.116.828.828,0,0,1,.2-.048.677.677,0,0,1,.174,0,1.007,1.007,0,0,1,.164.041,1.629,1.629,0,0,1,.168.065c.057.025.115.052.177.078a1.7,1.7,0,0,0,.2.07,1.151,1.151,0,0,0,.224.04,1.02,1.02,0,0,0,.164,0,1.141,1.141,0,0,0,.179-.034,1.4,1.4,0,0,0,.194-.069,1.778,1.778,0,0,0,.21-.11,2.437,2.437,0,0,0,.327-.236,2.483,2.483,0,0,0,.264-.264,2.746,2.746,0,0,0,.211-.279c.062-.094.118-.189.167-.282s.1-.185.142-.273.086-.174.128-.256.083-.161.125-.236a2.463,2.463,0,0,1,.134-.213c.033-.045.067-.088.1-.13S12.82.836,12.862.8A1.64,1.64,0,0,1,13,.68a1.767,1.767,0,0,1,.162-.11A.319.319,0,0,0,13.241.5.443.443,0,0,0,13.3.4a.476.476,0,0,0,.035-.114.392.392,0,0,0,0-.116.236.236,0,0,0-.031-.092.153.153,0,0,0-.058-.056A.139.139,0,0,0,13.175,0a.2.2,0,0,0-.087.03,2.26,2.26,0,0,0-.314.228,2.4,2.4,0,0,0-.256.259A2.773,2.773,0,0,0,12.311.8c-.062.094-.117.189-.166.282s-.1.185-.142.274-.087.174-.128.257-.083.161-.126.237a2.423,2.423,0,0,1-.136.214c-.032.044-.065.087-.1.128a1.62,1.62,0,0,1-.252.239,1.857,1.857,0,0,1-.164.112,1.5,1.5,0,0,1-.241.117.829.829,0,0,1-.2.048.686.686,0,0,1-.175,0,1.084,1.084,0,0,1-.166-.039,1.711,1.711,0,0,1-.166-.067c-.056-.025-.115-.053-.176-.078a1.618,1.618,0,0,0-.2-.069,1.152,1.152,0,0,0-.226-.039.937.937,0,0,0-.167,0A1.16,1.16,0,0,0,9.2,2.45a1.481,1.481,0,0,0-.2.073,1.942,1.942,0,0,0-.216.114,2.291,2.291,0,0,0-.315.229,2.421,2.421,0,0,0-.257.259A2.762,2.762,0,0,0,8,3.4c-.062.094-.116.188-.166.282s-.1.185-.142.273-.086.174-.128.256-.083.161-.126.236a2.424,2.424,0,0,1-.136.214c-.032.044-.065.087-.1.129a1.638,1.638,0,0,1-.115.123,1.588,1.588,0,0,1-.136.117,1.789,1.789,0,0,1-.164.111,1.481,1.481,0,0,1-.241.118.826.826,0,0,1-.2.048.684.684,0,0,1-.174,0,1.079,1.079,0,0,1-.165-.04A1.75,1.75,0,0,1,5.845,5.2c-.056-.025-.115-.052-.176-.078a1.636,1.636,0,0,0-.2-.069,1.167,1.167,0,0,0-.226-.04.918.918,0,0,0-.166,0,1.163,1.163,0,0,0-.184.037,1.5,1.5,0,0,0-.2.073A1.958,1.958,0,0,0,4.482,5.239Z" transform="translate(0 0)" fill="url(#linear-gradient-7)"/>
  </g>
</svg>
