<svg xmlns="http://www.w3.org/2000/svg" xmlns:xlink="http://www.w3.org/1999/xlink" width="256.219" height="148.364" viewBox="0 0 256.219 148.364">
  <g id="Login_img" transform="translate(-409.525 -1256.007)">
    <path id="Path_208818" data-name="Path 208818" d="M665.744,3606.773c0,1.226-57.357,2.219-128.11,2.219-39.921,0-75.578-.316-99.073-.812-5.412-.115-10.177-.238-14.2-.37-2.651-.086-4.979-.177-6.959-.271-5.094-.238-7.876-.5-7.876-.767,0-.344,4.515-.67,12.575-.96,3.3-.12,7.195-.232,11.617-.338,23.268-.559,61.145-.922,103.918-.922,37.624,0,71.459.281,94.9.729C653.169,3605.676,665.744,3606.2,665.744,3606.773Z" transform="translate(0 -2204.622)" fill="#040c2b" opacity="0.15"/>
    <g id="Group_161626" data-name="Group 161626" transform="translate(468.876 1355.958)">
      <path id="Path_208819" data-name="Path 208819" d="M1412.054,3155.256v21.693a3.886,3.886,0,0,1-3.724,4.03h-26.605a3.886,3.886,0,0,1-3.724-4.03v-21.693a3.886,3.886,0,0,1,3.724-4.03h26.605A3.886,3.886,0,0,1,1412.054,3155.256Z" transform="translate(-1378 -3135.034)" fill="#bf2025"/>
      <path id="Path_208820" data-name="Path 208820" d="M1497.46,2890.436a10.411,10.411,0,0,0-7.665-3.436c-5.987,0-10.84,5.251-10.84,11.729v4.463h2.379v-4.463c0-5.047,3.8-9.154,8.46-9.154s8.46,4.107,8.46,9.154v4.463h2.38v-4.463A12.191,12.191,0,0,0,1497.46,2890.436Z" transform="translate(-1472.768 -2887)" fill="#bf2025"/>
      <path id="Path_208821" data-name="Path 208821" d="M1619.447,3237.041a2.52,2.52,0,1,0-5.023,0,2.768,2.768,0,0,0,1.216,2.328v4.514a.216.216,0,0,0,.207.224h.247a.189.189,0,0,1,.181.2v.524a.189.189,0,0,1-.181.2h-.362a.1.1,0,0,0-.092.1v.2a.1.1,0,0,0,.092.1h.151a.189.189,0,0,1,.181.2v.524a.189.189,0,0,1-.181.2h-.154a.092.092,0,0,0-.088.095v.211a.092.092,0,0,0,.088.1h.366a.189.189,0,0,1,.181.2v.524a.189.189,0,0,1-.181.2h-.247a.216.216,0,0,0-.207.224,1.27,1.27,0,0,0,1.149,1.32,1.237,1.237,0,0,0,1.23-1.286v-8.419A2.744,2.744,0,0,0,1619.447,3237.041Z" transform="translate(-1599.934 -3213.037)" fill="#e3e9f7"/>
    </g>
    <g id="Group_161640" data-name="Group 161640" transform="translate(500.215 1256.007)">
      <g id="Group_161629" data-name="Group 161629" transform="translate(0 0)">
        <g id="Group_161627" data-name="Group 161627" transform="translate(0.778 0.08)">
          <path id="Path_208822" data-name="Path 208822" d="M1909.8,1257.32h24.161a1.716,1.716,0,0,1,1.67,1.758v.185a3.181,3.181,0,0,0,3.1,3.258h0a3.181,3.181,0,0,0,3.1-3.258v-.185a1.716,1.716,0,0,1,1.67-1.758h24.161a7.922,7.922,0,0,1,7.713,8.115v129.506a7.922,7.922,0,0,1-7.713,8.115H1909.8a7.922,7.922,0,0,1-7.713-8.115V1265.435A7.922,7.922,0,0,1,1909.8,1257.32Z" transform="translate(-1902.092 -1257.32)" fill="#fff"/>
        </g>
        <path id="Path_208823" data-name="Path 208823" d="M1898.886,1256.007h55.847a9.319,9.319,0,0,1,9.5,9.109v127.678a9.319,9.319,0,0,1-9.5,9.109h-55.847a9.319,9.319,0,0,1-9.5-9.109V1265.116A9.319,9.319,0,0,1,1898.886,1256.007Zm-7.967,136.374a7.759,7.759,0,0,0,7.555,7.949h56.67a7.759,7.759,0,0,0,7.555-7.949V1265.53a7.759,7.759,0,0,0-7.555-7.949h-23.666a1.681,1.681,0,0,0-1.636,1.721v.181a3.115,3.115,0,0,1-3.033,3.192h0a3.116,3.116,0,0,1-3.033-3.192v-.181a1.681,1.681,0,0,0-1.636-1.721h-23.666a7.759,7.759,0,0,0-7.555,7.949Zm72.224,1.833q.037-.2.064-.406-.027.2-.064.406a7.833,7.833,0,0,1-.25.983A7.833,7.833,0,0,0,1963.144,1394.213Zm-.458,1.55q-.077.185-.162.366Q1962.61,1395.948,1962.686,1395.763Z" transform="translate(-1889.39 -1256.007)" fill="#bf2025"/>
        <g id="Group_161628" data-name="Group 161628" transform="translate(36.41 2.459)">
          <ellipse id="Ellipse_12383" data-name="Ellipse 12383" cx="1.01" cy="0.968" rx="1.01" ry="0.968" fill="#0f31ac"/>
          <image id="Rectangle_169717" data-name="Rectangle 169717" width="1.794" height="1.736" transform="translate(0.112 0.099)" xlink:href="Login_img-image.png"/>
        </g>
      </g>
      <g id="Group_161639" data-name="Group 161639" transform="translate(9.808 21.124)">
        <g id="Group_161631" data-name="Group 161631" transform="translate(14.572)">
          <ellipse id="Ellipse_12384" data-name="Ellipse 12384" cx="13.039" cy="12.69" rx="13.039" ry="12.69" fill="#fff7f7"/>
          <g id="Group_161630" data-name="Group 161630" transform="translate(3.996 2.623)">
            <path id="Path_208824" data-name="Path 208824" d="M2352.645,1729.529c-1.255-4.248,3.341-10.746,8.834-10.747s10.089,6.516,8.834,10.747c-1.025,3.455-5.742,4.7-8.555,4.771C2358.606,1734.376,2353.691,1733.071,2352.645,1729.529Z" transform="translate(-2352.436 -1714.169)" fill="#fff"/>
            <ellipse id="Ellipse_12385" data-name="Ellipse 12385" cx="4.277" cy="4.543" rx="4.277" ry="4.543" transform="translate(4.782)" fill="#fff7f7" stroke="#fff7f7" stroke-miterlimit="10" stroke-width="24.597"/>
          </g>
        </g>
        <g id="Group_161633" data-name="Group 161633" transform="translate(9.029 91.608)">
          <rect id="Rectangle_169718" data-name="Rectangle 169718" width="37.165" height="11.355" rx="5.678" transform="translate(0 0.686)" opacity="0.15"/>
          <rect id="Rectangle_169719" data-name="Rectangle 169719" width="36.417" height="11.127" rx="5.563" transform="translate(0.374)" fill="#ffe7e7"/>
          <text id="Login" transform="translate(11.583 6.963)" fill="#bf2025" font-size="5" font-family="Poppins-Medium, Poppins" font-weight="500"><tspan x="0" y="0">LOGIN</tspan></text>
        </g>
        <rect id="Rectangle_169720" data-name="Rectangle 169720" width="55.223" height="9.573" rx="4.787" transform="translate(0 55.167)" fill="#ffe7e7"/>
        <rect id="Rectangle_169721" data-name="Rectangle 169721" width="55.223" height="9.573" rx="4.787" transform="translate(0 74.042)" fill="#ffe7e7"/>
        <text id="Login-2" data-name="Login" transform="translate(17.611 35.57)" fill="#bf2025" font-size="7" font-family="Poppins-SemiBold, Poppins" font-weight="600"><tspan x="0" y="0">LOGIN</tspan></text>
        <text id="Mobile" transform="translate(-0.389 52.57)" fill="#bf2025" font-size="3" font-family="Poppins-SemiBold, Poppins" font-weight="600"><tspan x="0" y="0">MOBILE</tspan></text>
        <text id="otp" transform="translate(-0.389 71.57)" fill="#bf2025" font-size="3" font-family="Poppins-SemiBold, Poppins" font-weight="600"><tspan x="0" y="0">OTP</tspan></text>
        <text id="_12345899" data-name="12345899" transform="translate(7.611 60.57)" fill="#bf2025" font-size="3" font-family="Poppins-SemiBold, Poppins" font-weight="600"><tspan x="0" y="0">12345899</tspan></text>
      </g>
    </g>
    <g id="Group_161645" data-name="Group 161645" transform="translate(566.315 1313.796)">
      <path id="Path_208871" data-name="Path 208871" d="M2976.274,2561.821c-.907.158-1.987-1.477-3.025-3.262l-5.088-11.949a2.618,2.618,0,0,1,.04-1.9l2.966-7.151,3.55,2.85-3.306,5.588,2.848,8.947C2975.978,2556.067,2975.822,2558.79,2976.274,2561.821Z" transform="translate(-2968 -2516.807)" fill="#db965f"/>
      <g id="Group_161641" data-name="Group 161641" transform="translate(11.784 33.047)">
        <path id="Path_208872" data-name="Path 208872" d="M3198.89,2762.85l-.017-.13-7.385-19.914-.358-.965,9.724-3.576,3.918,17.187.991,5.2a1.022,1.022,0,0,1-.836,1.2Z" transform="translate(-3189.241 -2738.264)" fill="#040c2b"/>
        <path id="Path_208873" data-name="Path 208873" d="M3180.6,3406.094s-1.839,5.363-1.468,6.759l-4.934-.112,3.386-8.717Z" transform="translate(-3173.345 -3363.224)" fill="#db965f"/>
        <path id="Path_208874" data-name="Path 208874" d="M3165.163,3505.224a16.307,16.307,0,0,0,6.813,1.688.92.92,0,0,0,.853-.919c.006-.594-.337-1.386-1.868-2,0,0-3.853-2.87-4.706-4.672,0,0-2.742.757-3.993-.564a3.89,3.89,0,0,0-1.843,2.222,2.245,2.245,0,0,0,1.318,2.846A26.629,26.629,0,0,1,3165.163,3505.224Z" transform="translate(-3160.296 -3452.149)" fill="#040c2b"/>
        <path id="Path_208875" data-name="Path 208875" d="M3220.573,3090.032l-6.455,20.908.915.358,3.744,1.463,8.583-21.287Z" transform="translate(-3210.82 -3068.475)" fill="#040c2b"/>
        <path id="Path_208876" data-name="Path 208876" d="M3205.748,2796.7l-6.81,19.585-.915-.358,5.913-19.148L3196.972,2778l2.784-2.244,1.839,5.576Z" transform="translate(-3194.725 -2773.458)" opacity="0.15"/>
      </g>
      <path id="Path_208877" data-name="Path 208877" d="M3150.425,3452.7s-.021,5.67.777,6.872l-4.709,1.477.41-9.343Z" transform="translate(-3135.554 -3374.935)" fill="#db965f"/>
      <path id="Path_208878" data-name="Path 208878" d="M3139.984,3557.143a16.3,16.3,0,0,0,6.994-.587.919.919,0,0,0,.513-1.144c-.185-.565-.764-1.2-2.412-1.3,0,0-4.569-1.482-5.956-2.916,0,0-2.518,1.313-4.127.462a5.719,5.719,0,0,0-.869,2.98,2.245,2.245,0,0,0,2.162,2.273A26.559,26.559,0,0,1,3139.984,3557.143Z" transform="translate(-3123.946 -3468.333)" fill="#040c2b"/>
      <path id="Path_208879" data-name="Path 208879" d="M3077.915,2757.4l-1.423,18.916-5.2.266-1.294-21.949-1.846-11.029c-.181-.933-1.143-2.627-1.265-3.447-.453-3.03.279-4.487.329-6.081a13.261,13.261,0,0,1,.332-2.931l8.435-2.222,1.8,18.176A60.342,60.342,0,0,1,3077.915,2757.4Z" transform="translate(-3060.684 -2696.45)" fill="#040c2b"/>
      <path id="Path_208880" data-name="Path 208880" d="M3310.893,2546.626l-.215-.585-2.338-6.506,1.872-.285.848-.128,1.732-.264.832,3.453.207.861,8.965-2.786a8.01,8.01,0,0,1,1.885-2.85.5.5,0,0,1,.274.758l-.552.834s2.067-1.379,3.565-.816l-2.551,4.864-.647.109-12.5,4.009a1.124,1.124,0,0,1-1.38-.669h0" transform="translate(-3287.482 -2516.79)" fill="#db965f"/>
      <path id="Path_208881" data-name="Path 208881" d="M3147.3,2300.3l.021,3.975,5.815,1.078,3.378-1.751-1.461-1.925-.808-1.064a1,1,0,0,1-.189-.757l.705-4.563-5.666-2.582.478,3.626.078.6C3149.823,2298.868,3147.3,2300.3,3147.3,2300.3Z" transform="translate(-3136.311 -2286.972)" fill="#c9885b"/>
      <path id="Path_208882" data-name="Path 208882" d="M3176.607,2292.715l.534,4.109a9.762,9.762,0,0,0,5.424,4.857l-.808-1.064a1,1,0,0,1-.189-.757l.7-4.563Z" transform="translate(-3163.823 -2286.972)" opacity="0.15"/>
      <g id="Group_161642" data-name="Group 161642" transform="translate(11.511 0)">
        <path id="Path_208883" data-name="Path 208883" d="M3163.192,2266.011l.67,1.72a15.653,15.653,0,0,0,2.126,2.606,7.324,7.324,0,0,0,3.383,2.108c.633.105,1.148-.374,1.563-1.14,1.171-2.159,1.548-6.591,1.548-6.591l-7.3-.893Z" transform="translate(-3162.741 -2259.849)" fill="#db965f"/>
        <path id="Path_208884" data-name="Path 208884" d="M3156.249,2206.505c.083,2.8,1.425,2.614,1.425,2.614l-.116-1.342-.5-.827c-.778-1.966.6-1.743.6-1.743,1.124.313,1.081,1.743,1.081,1.743h.389a6.027,6.027,0,0,0,.346-1.787c2.737-3.266,5.932.138,5.932.138,2.566-1.885.471-3.194.471-3.194.367-2.723-2.3-2.2-2.3-2.2s-1.781-1.571-2.828-.576a2.247,2.247,0,0,0-2.2,1.571,1.664,1.664,0,0,0-1.937,1.2s-.041.05-.105.143a3.828,3.828,0,0,0-.456,3.462A3.044,3.044,0,0,1,3156.249,2206.505Z" transform="translate(-3155.832 -2199)"/>
        <path id="Path_208885" data-name="Path 208885" d="M3203.638,2325.184l.26,2.1a1.3,1.3,0,0,0,.422.809,6.92,6.92,0,0,0,3.018,1.768c.633.1,1.148-.375,1.563-1.141-2.616-.242-4.85-3.736-4.85-3.736Z" transform="translate(-3200.709 -2317.26)"/>
      </g>
      <path id="Path_208886" data-name="Path 208886" d="M3332.915,2470.982l1.188-.433,2.46-.9.542-.2c-1.352-7.463-2.666-8.981-3.266-9.262a.422.422,0,0,0-.34-.042l-.348,6.44Z" transform="translate(-3310.552 -2444.132)" fill="#bf2025"/>
      <path id="Path_208887" data-name="Path 208887" d="M3306.246,2472.634l2.338,6.373.485-2.775-.1-4-.16-6.142a.428.428,0,0,0-.34-.041l-.348,6.309Z" transform="translate(-3285.517 -2449.666)" opacity="0.15"/>
      <path id="Path_208888" data-name="Path 208888" d="M3082.534,2428.986a1.174,1.174,0,0,1-.86.905c-.612.147-1.9.459-2.936.65s-2.252.378-3.549.511h0c-3.21.33-6.945.329-9.906-.763a1.124,1.124,0,0,1-.415-.27,1.236,1.236,0,0,1-.346-.839l0-.195-.007-.354-.027-1.426-.051-2.669-.034-1.78-.052-2.669-.035-1.78-.03-1.62c0-.029,0-.058,0-.087l.048-.962.01-.205.079-1.574.222-4.449.023-.445,4.267-2.931.2-.137,1.2-.824s-.854,1.658,3.076,3.576a2.344,2.344,0,0,0,1,.239,2.158,2.158,0,0,0,.242-.01,2.219,2.219,0,0,0,.971-.328,1.873,1.873,0,0,0,.642-2.529l1.345.609.148.067,3.693,1.675a.538.538,0,0,1,.309.512l-.017.527-.057,1.779-.086,2.669-.058,1.78-.085,2.669-.058,1.78-.01.3a1.29,1.29,0,0,0,0,.157l.321,2.217.258,1.78.387,2.669.2,1.4A1.233,1.233,0,0,1,3082.534,2428.986Z" transform="translate(-3058.377 -2392.444)" fill="#d57679"/>
      <g id="Group_161643" data-name="Group 161643" transform="translate(5.931 16.966)">
        <path id="Path_208889" data-name="Path 208889" d="M3085.912,2475.852l-.057,1.779h-17.131l.089-1.779Z" transform="translate(-3068.483 -2475.852)" fill="#bf2025"/>
        <path id="Path_208890" data-name="Path 208890" d="M3082.361,2548.45l-.057,1.78h-17.209l.01-.205.079-1.574Z" transform="translate(-3065.075 -2544.001)" fill="#bf2025"/>
        <path id="Path_208891" data-name="Path 208891" d="M3081.927,2621.049l-.058,1.78h-17.051l-.034-1.78Z" transform="translate(-3064.784 -2612.151)" fill="#bf2025"/>
        <path id="Path_208892" data-name="Path 208892" d="M3083.761,2695.428h-17.54l-.034-1.78H3083.5Z" transform="translate(-3066.102 -2680.301)" fill="#bf2025"/>
        <path id="Path_208893" data-name="Path 208893" d="M3085.636,2768.027h-18.02l-.007-.354-.027-1.426h17.875l.2,1.4A1.28,1.28,0,0,1,3085.636,2768.027Z" transform="translate(-3067.41 -2748.451)" fill="#bf2025"/>
      </g>
      <path id="Path_208894" data-name="Path 208894" d="M3066.351,2545.376l-1.492,16.349a1.23,1.23,0,0,1-.345-.838l-.011-.548-.229-11.944c0-.029,0-.058,0-.087l.059-1.167Z" transform="translate(-3058.373 -2524.149)" opacity="0.15"/>
      <path id="Path_208895" data-name="Path 208895" d="M2991.493,2466.923s-2.488-.82-6.1,7.942l3.838,2.981S2995.588,2468.789,2991.493,2466.923Z" transform="translate(-2984.327 -2450.485)" fill="#bf2025"/>
      <path id="Path_208896" data-name="Path 208896" d="M3222.753,2468.051c.34-.082.4-.495.4-.526A.9.9,0,0,1,3222.753,2468.051Z" transform="translate(-3207.141 -2451.069)" opacity="0.15"/>
      <g id="Group_161644" data-name="Group 161644" transform="translate(35.094 17.299)">
        <path id="Path_208897" data-name="Path 208897" d="M3541.208,2491.524l2.194-.305,4.128-9.462a.134.134,0,0,0-.055-.159l-.088-.061a.2.2,0,0,0-.167-.03l-.212.066-5.9,9.714c-.018.029-.019.01-.027.044l-.012.05A.125.125,0,0,0,3541.208,2491.524Z" transform="translate(-3541.042 -2481.486)"/>
        <path id="Path_208898" data-name="Path 208898" d="M3546.876,2481.29l-2.06.72-4.152,9.181,2.117-.362Z" transform="translate(-3540.664 -2481.29)" fill="#fff"/>
      </g>
      <path id="Path_208899" data-name="Path 208899" d="M3571.763,2547.338l-.653-.653a3.543,3.543,0,0,1,.9-4.112,1.951,1.951,0,0,1,1.34-.594l.309-.011a.847.847,0,0,1,.876.852C3574.527,2544.248,3574.314,2545.559,3571.763,2547.338Z" transform="translate(-3533.828 -2520.95)" fill="#db965f"/>
    </g>
  </g>
</svg>
