<svg xmlns="http://www.w3.org/2000/svg" width="42.46" height="33.462" viewBox="0 0 42.46 33.462">
  <g id="Members" transform="translate(0 -54.251)">
    <g id="Group_130676" data-name="Group 130676" transform="translate(0 54.251)">
      <path id="Path_187873" data-name="Path 187873" d="M36.061,66.165a4.636,4.636,0,0,0,2.008-3.817V58.889a4.638,4.638,0,0,0-9.276,0v3.459A4.635,4.635,0,0,0,30.8,66.165a9.409,9.409,0,0,0-4.933,3.664V68.791a4.638,4.638,0,0,0-9.276,0V69.83a9.41,9.41,0,0,0-4.933-3.664,4.636,4.636,0,0,0,2.008-3.817V58.889a4.638,4.638,0,1,0-9.276,0v3.459A4.636,4.636,0,0,0,6.4,66.165,8.982,8.982,0,0,0,0,74.492v2.7a.619.619,0,0,0,.619.619h3.36a.619.619,0,0,0,0-1.237H1.237V74.492a7.241,7.241,0,0,1,2.349-5.259,8.292,8.292,0,0,1,3.085-1.846l.739,1.436L6.341,73.462a.618.618,0,0,0,.185.6l2.085,1.908a.618.618,0,0,0,.835,0l2.085-1.908a.619.619,0,0,0,.185-.6l-1.069-4.639.739-1.436a8.292,8.292,0,0,1,3.085,1.846,7.453,7.453,0,0,1,2.174,3.725c.02.129.046.255.076.38a6.827,6.827,0,0,1,.1,1.154v2.082H6.04a.619.619,0,0,0,0,1.237h9.371A8.634,8.634,0,0,0,12.2,84.394v2.7a.619.619,0,0,0,.619.619h3.36a.619.619,0,0,0,0-1.237H13.438V84.394a7.241,7.241,0,0,1,2.349-5.259,8.292,8.292,0,0,1,3.085-1.846l.739,1.436-1.069,4.639a.619.619,0,0,0,.185.6l2.085,1.908a.618.618,0,0,0,.835,0l2.085-1.908a.619.619,0,0,0,.185-.6l-1.069-4.639.739-1.436a8.291,8.291,0,0,1,3.085,1.846,7.241,7.241,0,0,1,2.349,5.259v2.082H18.241a.619.619,0,0,0,0,1.237h11.4a.619.619,0,0,0,.619-.619v-2.7a8.634,8.634,0,0,0-3.211-6.583h3.163a.619.619,0,0,0,0-1.237H25.639V74.492a6.835,6.835,0,0,1,.1-1.154c.03-.124.056-.25.076-.379a7.453,7.453,0,0,1,2.174-3.726,8.293,8.293,0,0,1,3.085-1.846l.739,1.436-1.069,4.639a.619.619,0,0,0,.185.6l2.085,1.908a.618.618,0,0,0,.835,0l2.085-1.908a.619.619,0,0,0,.185-.6L35.05,68.823l.739-1.436a8.292,8.292,0,0,1,3.085,1.846,7.241,7.241,0,0,1,2.349,5.259v2.082H32.274a.619.619,0,1,0,0,1.237h9.568a.619.619,0,0,0,.619-.619v-2.7A8.982,8.982,0,0,0,36.061,66.165ZM5.628,58.889a3.4,3.4,0,0,1,6.8,0v1.035a3.278,3.278,0,0,1-2.049-1.9.619.619,0,0,0-1.123-.075,4.6,4.6,0,0,1-3.63,2.019Zm3.4,15.781-1.4-1.282.928-4.028H9.5l.928,4.028ZM7.9,67.08q.181-.03.363-.051l.051-.006q.144-.016.289-.026l.08-.006c.079,0,.158-.007.237-.009l.1,0,.1,0c.079,0,.158,0,.237.009L9.45,67c.1.007.192.015.289.026l.052.006q.182.021.363.051l-.536,1.042H8.441Zm1.26-1.335-.127,0H9.021l-.127,0a3.4,3.4,0,0,1-3.266-3.4V61.213a6.134,6.134,0,0,0,4.087-1.845,4.089,4.089,0,0,0,2.715,1.819v1.161A3.4,3.4,0,0,1,9.164,65.745Zm8.665,3.046h0a3.4,3.4,0,1,1,6.8,0v1.035a3.277,3.277,0,0,1-2.049-1.9.619.619,0,0,0-1.123-.074,4.6,4.6,0,0,1-3.63,2.019V68.791Zm.229,7.466v-.628a4.67,4.67,0,0,0,.542.438Q18.326,76.154,18.058,76.257Zm3.172,8.315-1.4-1.282.928-4.028H21.7l.928,4.028Zm-1.125-7.59q.181-.03.363-.051l.052-.006q.144-.016.289-.026l.08-.006c.079,0,.158-.007.237-.009l.1,0,.1,0c.079,0,.158,0,.237.009l.08.006c.1.007.193.015.289.026l.052.006q.182.021.363.051l-.536,1.042H20.642Zm4.3-.725q-.267-.1-.542-.19a4.671,4.671,0,0,0,.542-.438Zm.229-4.007a3.418,3.418,0,0,1-.039.514c-.022.1-.041.2-.059.3a3.407,3.407,0,0,1-3.167,2.588l-.127,0h-.017l-.127,0a3.407,3.407,0,0,1-3.167-2.588c-.018-.1-.038-.2-.059-.3a3.414,3.414,0,0,1-.039-.513V71.115a6.134,6.134,0,0,0,4.087-1.845,4.09,4.09,0,0,0,2.715,1.819V72.25Zm5.4-13.361a3.4,3.4,0,0,1,6.8,0v1.035a3.278,3.278,0,0,1-2.049-1.9.619.619,0,0,0-1.123-.074,4.6,4.6,0,0,1-3.63,2.019V58.889Zm3.4,15.781-1.4-1.282.928-4.028H33.9l.928,4.028Zm-1.125-7.59q.181-.03.363-.051l.052-.006q.144-.016.289-.026l.08-.006c.079,0,.158-.007.237-.009l.1,0,.1,0c.079,0,.158,0,.237.009l.08.006c.1.007.193.015.289.026l.052.006q.182.021.363.051l-.536,1.042H32.843Zm1.26-1.335-.127,0h-.017l-.127,0a3.4,3.4,0,0,1-3.265-3.4V61.213a6.134,6.134,0,0,0,4.087-1.845,4.089,4.089,0,0,0,2.715,1.819v1.161A3.4,3.4,0,0,1,33.566,65.745Z" transform="translate(0 -54.251)" fill="#bf2025"/>
    </g>
  </g>
</svg>
