<svg xmlns="http://www.w3.org/2000/svg" width="14" height="14" viewBox="0 0 14 14">
  <g id="Profile" transform="translate(12692 13923.443)">
    <g id="Group_309" data-name="Group 309" transform="translate(-12692 -13923.133)">
      <rect id="Rectangle_167666" data-name="Rectangle 167666" width="14" height="14" transform="translate(0 -0.311)" fill="none"/>
      <g id="Group_315" data-name="Group 315" transform="translate(0 0)">
        <rect id="Rectangle_167462" data-name="Rectangle 167462" width="14" height="14" transform="translate(0 -0.311)" fill="none"/>
        <g id="user" transform="translate(0.719)">
          <g id="Group_215" data-name="Group 215" transform="translate(0)">
            <g id="Group_214" data-name="Group 214">
              <path id="Path_114063" data-name="Path 114063" d="M114.346,7.108a3.554,3.554,0,1,0-3.554-3.554A3.564,3.564,0,0,0,114.346,7.108Z" transform="translate(-108.219 0)" fill="#fb9902"/>
              <path id="Path_114064" data-name="Path 114064" d="M36.392,250.427a3.314,3.314,0,0,0-.357-.652,4.418,4.418,0,0,0-3.058-1.925.654.654,0,0,0-.45.109,3.789,3.789,0,0,1-4.47,0,.582.582,0,0,0-.45-.109,4.386,4.386,0,0,0-3.058,1.925,3.821,3.821,0,0,0-.357.652.33.33,0,0,0,.016.295,6.192,6.192,0,0,0,.419.621,5.9,5.9,0,0,0,.714.807,9.31,9.31,0,0,0,.714.621,7.078,7.078,0,0,0,8.443,0,6.824,6.824,0,0,0,.714-.621,7.171,7.171,0,0,0,.714-.807,5.444,5.444,0,0,0,.419-.621A.265.265,0,0,0,36.392,250.427Z" transform="translate(-24.165 -240.478)" fill="#fb9902"/>
            </g>
          </g>
        </g>
      </g>
    </g>
  </g>
</svg>
