<svg id="mission" xmlns="http://www.w3.org/2000/svg" width="24" height="24" viewBox="0 0 24 24">
  <rect id="Rectangle_169197" data-name="Rectangle 169197" width="24" height="24" fill="none"/>
  <g id="mission-2" data-name="mission" transform="translate(-4.145 -4)">
    <path id="Path_208902" data-name="Path 208902" d="M16.083,28A12,12,0,0,0,26.7,10.408a.429.429,0,1,0-.757.4A11.111,11.111,0,0,1,27.226,16C26.615,30.78,5.551,30.78,4.94,16A11.187,11.187,0,0,1,21.273,6.14a.429.429,0,0,0,.4-.757A11.97,11.97,0,0,0,16.083,4C.165,4.658.166,27.343,16.083,28Z" transform="translate(0 0)"/>
    <path id="Path_208903" data-name="Path 208903" d="M26.315,22.857a3.341,3.341,0,0,1,1.09.182.429.429,0,0,0,.545-.266c.188-.758-1.147-.728-1.635-.774A4.286,4.286,0,1,0,30.6,26.286c-.044-.5-.015-1.818-.77-1.631a.428.428,0,0,0-.266.545,3.326,3.326,0,0,1,.178,1.086,3.429,3.429,0,1,1-3.429-3.429Z" transform="translate(-10.232 -10.286)"/>
    <path id="Path_208904" data-name="Path 208904" d="M25.3,14.6a.428.428,0,0,0-.167-.583A8.139,8.139,0,0,0,21.2,13c-10.8.446-10.8,15.84,0,16.286a8.138,8.138,0,0,0,7.125-12.079.429.429,0,1,0-.75.416,7.285,7.285,0,1,1-2.854-2.854A.428.428,0,0,0,25.3,14.6Z" transform="translate(-5.116 -5.143)"/>
    <path id="Path_208905" data-name="Path 208905" d="M36.367,9.129l.157,2.056-5.4,5.4a.429.429,0,1,0,.606.606l5.4-5.4,2.056.157a.428.428,0,0,0,.336-.124l3.119-3.119a.431.431,0,0,0-.27-.73L40.485,7.83l-.144-1.885a.432.432,0,0,0-.73-.27L36.492,8.794A.428.428,0,0,0,36.367,9.129Zm3.19-2.19c.172,2-.166,1.645,1.819,1.818l-2.321,2.321-1.689-.129L37.237,9.26Z" transform="translate(-15.346 -0.887)" fill="#bf2025"/>
  </g>
</svg>
