<svg xmlns="http://www.w3.org/2000/svg" width="29" height="29" viewBox="0 0 29 29">
  <g id="newchat" transform="translate(-3.625 -3.62)">
    <path id="Path_187539" data-name="Path 187539" d="M32.625,18.121a14.5,14.5,0,1,0-29,0,14.352,14.352,0,0,0,2.236,7.738L3.715,31A1.17,1.17,0,0,0,4.8,32.62a1.271,1.271,0,0,0,.264-.029l6.56-1.512a14.5,14.5,0,0,0,21-12.958ZM18.131,30.279a12.144,12.144,0,0,1-5.791-1.466,1.169,1.169,0,0,0-.561-.143,1.263,1.263,0,0,0-.264.029L6.756,29.8l1.508-3.615a1.17,1.17,0,0,0-.122-1.123,12.025,12.025,0,0,1-2.174-6.938A12.156,12.156,0,1,1,18.131,30.279Z" transform="translate(0)" fill="#3e01a4"/>
    <path id="Path_187540" data-name="Path 187540" d="M21.72,15.764H18.147V12.191a1.191,1.191,0,1,0-2.382,0v3.573H12.191a1.191,1.191,0,1,0,0,2.382h3.573V21.72a1.191,1.191,0,1,0,2.382,0V18.147H21.72a1.191,1.191,0,1,0,0-2.382Z" transform="translate(1.169 1.165)" fill="#3e01a4"/>
  </g>
</svg>
