<svg xmlns="http://www.w3.org/2000/svg" width="35" height="35" viewBox="0 0 35 35">
  <g id="orderhistory" transform="translate(-37 -215)">
    <rect id="Rectangle_168418" data-name="Rectangle 168418" width="35" height="35" transform="translate(37 215)" fill="none"/>
    <g id="file_5_" data-name="file (5)" transform="translate(36.17 215)">
      <path id="Path_187557" data-name="Path 187557" d="M404.124,333.841h-2.049v-2.7a.683.683,0,1,0-1.366,0v3.383a.683.683,0,0,0,.683.683h2.731a.683.683,0,1,0,0-1.366Z" transform="translate(-372.573 -307.892)" fill="#f89902"/>
      <path id="Path_187558" data-name="Path 187558" d="M61.98,140.746H71.5a.683.683,0,0,0,0-1.366H61.98a.683.683,0,0,0,0,1.366Z" transform="translate(-56.338 -129.862)" fill="#f89902"/>
      <path id="Path_187559" data-name="Path 187559" d="M73.874,319.3H61.98a.683.683,0,0,0,0,1.366H73.875a.683.683,0,1,0,0-1.366Z" transform="translate(-56.338 -297.494)" fill="#f89902"/>
      <path id="Path_187560" data-name="Path 187560" d="M73.874,379.271H61.98a.683.683,0,0,0,0,1.366H73.875a.683.683,0,1,0,0-1.366Z" transform="translate(-56.338 -353.372)" fill="#f89902"/>
      <path id="Path_187561" data-name="Path 187561" d="M77.714,259.326H61.98a.683.683,0,0,0,0,1.366H77.714a.683.683,0,1,0,0-1.366Z" transform="translate(-56.338 -241.617)" fill="#f89902"/>
      <path id="Path_187562" data-name="Path 187562" d="M33.7,21.724a6.908,6.908,0,0,0-7.544-1.483V8.17a1.857,1.857,0,0,0-.548-1.322l-6.3-6.3a1.866,1.866,0,0,0-.5-.357l-.019-.01h0A.664.664,0,0,0,18.72.153,1.874,1.874,0,0,0,17.983,0H2.806A1.978,1.978,0,0,0,.83,1.976V33.024A1.978,1.978,0,0,0,2.806,35H24.177a1.979,1.979,0,0,0,1.973-1.857q0-.021,0-.041V32.96A6.9,6.9,0,0,0,33.7,21.724ZM23.822,7H19.309a.151.151,0,0,1-.152-.151V2.331Zm.964,26.082a.612.612,0,0,1-.608.557H2.806a.611.611,0,0,1-.61-.61V1.976a.611.611,0,0,1,.61-.61H17.792V6.844a1.519,1.519,0,0,0,1.517,1.517h5.478V21.005a6.9,6.9,0,0,0,0,11.19v.882Zm7.946-2.565a5.531,5.531,0,1,1,1.62-3.911A5.538,5.538,0,0,1,32.731,30.512Z" fill="#261f81"/>
      <path id="Path_187563" data-name="Path 187563" d="M60.98,201.366H73.3a.683.683,0,1,0,0-1.366H60.98a.683.683,0,0,0,0,1.366Z" transform="translate(-55.406 -186.343)" fill="#f89902"/>
      <circle id="Ellipse_10029" data-name="Ellipse 10029" cx="0.683" cy="0.683" r="0.683" transform="translate(20.609 13.657)" fill="#f89902"/>
    </g>
  </g>
</svg>
