<svg id="partner" xmlns="http://www.w3.org/2000/svg" width="24" height="24" viewBox="0 0 24 24">
  <rect id="Rectangle_169197" data-name="Rectangle 169197" width="24" height="24" fill="none"/>
  <g id="partnership_1_" data-name="partnership (1)" transform="translate(-7 -6.994)">
    <path id="Path_208906" data-name="Path 208906" d="M12.7,29.334a.479.479,0,0,1-.424-.254,1.426,1.426,0,0,1-.162-.525.48.48,0,1,1,.954-.1.492.492,0,0,0,.054.176.48.48,0,0,1-.423.706Z" transform="translate(-2.657 -10.937)"/>
    <path id="Path_208907" data-name="Path 208907" d="M50.145,29.333a.48.48,0,0,1-.423-.706.468.468,0,0,0,.054-.176.48.48,0,0,1,.954.1,1.426,1.426,0,0,1-.162.525A.479.479,0,0,1,50.145,29.333Z" transform="translate(-22.191 -10.937)"/>
    <path id="Path_208908" data-name="Path 208908" d="M45.13,21.015a.48.48,0,0,1-.461-.346,6.688,6.688,0,0,0-.649-1.512.48.48,0,0,1,.829-.484,7.7,7.7,0,0,1,.741,1.728.479.479,0,0,1-.327.595.493.493,0,0,1-.133.019Z" transform="translate(-19.221 -5.95)"/>
    <path id="Path_208909" data-name="Path 208909" d="M36.932,13.1a.475.475,0,0,1-.23-.06,6.726,6.726,0,0,0-1.528-.61.48.48,0,0,1,.244-.929,7.691,7.691,0,0,1,1.746.7.48.48,0,0,1-.232.9Z" transform="translate(-14.468 -2.337)"/>
    <path id="Path_208910" data-name="Path 208910" d="M23.921,13.245a.48.48,0,0,1-.242-.894,7.688,7.688,0,0,1,1.728-.741.48.48,0,0,1,.268.921,6.735,6.735,0,0,0-1.512.649A.479.479,0,0,1,23.921,13.245Z" transform="translate(-8.551 -2.39)"/>
    <path id="Path_208911" data-name="Path 208911" d="M17.076,21.188a.475.475,0,0,1-.133-.019.48.48,0,0,1-.327-.595,7.651,7.651,0,0,1,.645-1.558.48.48,0,1,1,.841.462,6.743,6.743,0,0,0-.564,1.362.48.48,0,0,1-.461.347Z" transform="translate(-4.991 -6.123)"/>
    <path id="Path_208912" data-name="Path 208912" d="M50.347,26.657l-.051,0a.48.48,0,0,1-.426-.528,8.677,8.677,0,0,0-.023-2.033.48.48,0,1,1,.952-.123,9.657,9.657,0,0,1,.024,2.258A.48.48,0,0,1,50.347,26.657Z" transform="translate(-22.283 -8.611)"/>
    <path id="Path_208913" data-name="Path 208913" d="M47.062,22.77H45.884a.48.48,0,1,1,0-.96h1.178a.48.48,0,1,1,0,.96Z" transform="translate(-19.975 -7.706)"/>
    <path id="Path_208914" data-name="Path 208914" d="M49.291,23.606a.479.479,0,0,1-.475-.418.482.482,0,0,0-.476-.418.48.48,0,1,1,0-.96,1.444,1.444,0,0,1,1.428,1.254.479.479,0,0,1-.414.538.472.472,0,0,1-.063,0Z" transform="translate(-21.252 -7.706)"/>
    <path id="Path_208915" data-name="Path 208915" d="M44.436,18.514a.48.48,0,0,1-.339-.819l.813-.813a.48.48,0,1,1,.679.679l-.813.813A.479.479,0,0,1,44.436,18.514Z" transform="translate(-19.222 -5.069)"/>
    <path id="Path_208916" data-name="Path 208916" d="M46.13,16.311a.48.48,0,0,1-.339-.819.479.479,0,0,0,.034-.641.48.48,0,1,1,.747-.6,1.436,1.436,0,0,1-.1,1.921A.475.475,0,0,1,46.13,16.311Z" transform="translate(-20.103 -3.68)"/>
    <path id="Path_208917" data-name="Path 208917" d="M44.612,13.4a.477.477,0,0,1-.374-.179A8.679,8.679,0,0,0,42.785,11.8a.48.48,0,1,1,.585-.76,9.572,9.572,0,0,1,1.614,1.579.48.48,0,0,1-.373.781Z" transform="translate(-18.515 -2.054)"/>
    <path id="Path_208918" data-name="Path 208918" d="M38.707,12.907a.48.48,0,0,1-.339-.82l.833-.833a.48.48,0,0,1,.679.679l-.833.833A.48.48,0,0,1,38.707,12.907Z" transform="translate(-16.242 -2.143)"/>
    <path id="Path_208919" data-name="Path 208919" d="M40.443,11.77a.48.48,0,0,1-.34-.819,1.443,1.443,0,0,1,1.9-.123.48.48,0,0,1-.585.761.479.479,0,0,0-.632.04.48.48,0,0,1-.34.141Z" transform="translate(-17.145 -1.839)"/>
    <path id="Path_208920" data-name="Path 208920" d="M35.295,11.2a.48.48,0,0,1-.48-.48V9.572a.48.48,0,0,1,.96,0v1.15A.48.48,0,0,1,35.295,11.2Z" transform="translate(-14.467 -1.091)"/>
    <path id="Path_208921" data-name="Path 208921" d="M34.366,9.016a.48.48,0,0,1-.48-.48.479.479,0,0,0-.429-.477.48.48,0,1,1,.1-.954,1.437,1.437,0,0,1,1.286,1.431A.48.48,0,0,1,34.366,9.016Z" transform="translate(-13.538 -0.056)"/>
    <path id="Path_208922" data-name="Path 208922" d="M29.039,8.03a.48.48,0,0,1-.061-.956,9.613,9.613,0,0,1,2.259-.024.48.48,0,1,1-.1.954,8.642,8.642,0,0,0-2.032.022A.46.46,0,0,1,29.039,8.03Z" transform="translate(-11.214)"/>
    <path id="Path_208923" data-name="Path 208923" d="M27.295,11.272a.48.48,0,0,1-.48-.48V9.615a.48.48,0,0,1,.96,0v1.178a.479.479,0,0,1-.48.48Z" transform="translate(-10.306 -1.113)"/>
    <path id="Path_208924" data-name="Path 208924" d="M27.295,9.063a.48.48,0,0,1-.48-.48A1.443,1.443,0,0,1,28.07,7.155a.48.48,0,1,1,.123.952.481.481,0,0,0-.418.476A.479.479,0,0,1,27.295,9.063Z" transform="translate(-10.306 -0.081)"/>
    <path id="Path_208925" data-name="Path 208925" d="M23.039,13.117a.479.479,0,0,1-.339-.141l-.813-.813a.48.48,0,1,1,.679-.679l.813.813a.48.48,0,0,1-.339.819Z" transform="translate(-7.67 -2.262)"/>
    <path id="Path_208926" data-name="Path 208926" d="M20.838,12a.48.48,0,0,1-.339-.14.478.478,0,0,0-.64-.035.48.48,0,1,1-.6-.747,1.438,1.438,0,0,1,1.921.1.48.48,0,0,1-.339.819Z" transform="translate(-6.282 -1.957)"/>
    <path id="Path_208927" data-name="Path 208927" d="M16.429,13.695a.48.48,0,0,1-.38-.773,9.562,9.562,0,0,1,1.58-1.614.48.48,0,0,1,.6.747,8.645,8.645,0,0,0-1.421,1.453.479.479,0,0,1-.381.187Z" transform="translate(-4.655 -2.188)"/>
    <path id="Path_208928" data-name="Path 208928" d="M17.432,18.825a.479.479,0,0,1-.339-.141l-.833-.833a.48.48,0,0,1,.679-.679l.833.833a.48.48,0,0,1-.339.819Z" transform="translate(-4.743 -5.221)"/>
    <path id="Path_208929" data-name="Path 208929" d="M16.3,16.621a.479.479,0,0,1-.339-.141,1.443,1.443,0,0,1-.122-1.9.48.48,0,0,1,.76.585.48.48,0,0,0,.041.632.48.48,0,0,1-.339.82Z" transform="translate(-4.44 -3.85)"/>
    <path id="Path_208930" data-name="Path 208930" d="M15.8,22.77H14.621a.48.48,0,1,1,0-.96H15.8a.48.48,0,1,1,0,.96Z" transform="translate(-3.714 -7.706)"/>
    <path id="Path_208931" data-name="Path 208931" d="M12.637,23.607a.458.458,0,0,1-.062,0,.479.479,0,0,1-.414-.538,1.443,1.443,0,0,1,1.428-1.254.48.48,0,1,1,0,.96.482.482,0,0,0-.476.418.48.48,0,0,1-.476.417Z" transform="translate(-2.682 -7.706)"/>
    <path id="Path_208932" data-name="Path 208932" d="M12.531,26.657a.48.48,0,0,1-.477-.429,9.657,9.657,0,0,1,.024-2.258.48.48,0,1,1,.952.123,8.677,8.677,0,0,0-.023,2.033.48.48,0,0,1-.426.528l-.051,0Z" transform="translate(-2.601 -8.612)"/>
    <path id="Path_208933" data-name="Path 208933" d="M23.511,23.272a.48.48,0,0,1-.476-.42,4.316,4.316,0,1,1,8.571,0,.48.48,0,1,1-.952-.119,3.4,3.4,0,0,0-3.265-3.778,3.314,3.314,0,0,0-2.547,1.12,3.353,3.353,0,0,0-.854,2.659.48.48,0,0,1-.417.536A.522.522,0,0,1,23.511,23.272Z" transform="translate(-8.324 -5.721)"/>
    <path id="Path_208934" data-name="Path 208934" d="M48.163,45.736a1.444,1.444,0,0,1-1.389-1.059.48.48,0,0,1,.925-.255.479.479,0,0,0,.59.336.48.48,0,1,1,.254.926,1.4,1.4,0,0,1-.38.052Z" transform="translate(-20.678 -19.283)" fill="#bf2025"/>
    <path id="Path_208935" data-name="Path 208935" d="M44.021,32.179a.481.481,0,0,1-.463-.353,1.44,1.44,0,0,1,1.007-1.769.48.48,0,1,1,.254.926.48.48,0,0,0-.335.59.48.48,0,0,1-.336.59A.5.5,0,0,1,44.021,32.179Z" transform="translate(-18.988 -11.986)" fill="#bf2025"/>
    <path id="Path_208936" data-name="Path 208936" d="M18.173,32.179a.51.51,0,0,1-.128-.017.48.48,0,0,1-.336-.59.48.48,0,0,0-.335-.59.48.48,0,0,1,.254-.926,1.44,1.44,0,0,1,1.007,1.769A.48.48,0,0,1,18.173,32.179Z" transform="translate(-5.212 -11.986)" fill="#bf2025"/>
    <path id="Path_208937" data-name="Path 208937" d="M13.518,45.736a1.446,1.446,0,0,1-.38-.051.48.48,0,0,1,.254-.926.48.48,0,0,0,.59-.336.48.48,0,0,1,.925.255A1.442,1.442,0,0,1,13.518,45.736Z" transform="translate(-3.009 -19.284)" fill="#bf2025"/>
    <path id="Path_208938" data-name="Path 208938" d="M18.963,32.685a.48.48,0,0,1-.054-.957l3.459-.393a.48.48,0,0,1,.108.954l-3.459.393A.418.418,0,0,1,18.963,32.685Z" transform="translate(-5.973 -12.658)" fill="#bf2025"/>
    <path id="Path_208939" data-name="Path 208939" d="M21.893,50.232a.477.477,0,0,1-.293-.1l-6.292-4.874a.48.48,0,0,1,.587-.759l6.292,4.873a.48.48,0,0,1-.294.86Z" transform="translate(-4.224 -19.455)" fill="#bf2025"/>
    <path id="Path_208940" data-name="Path 208940" d="M47.039,45.478a.48.48,0,0,1-.294-.859L46.9,44.5a.48.48,0,1,1,.587.759l-.154.119A.479.479,0,0,1,47.039,45.478Z" transform="translate(-20.575 -19.455)"/>
    <path id="Path_208941" data-name="Path 208941" d="M37.763,31.7a.51.51,0,0,1-.107-.012l-5.752-1.3a.48.48,0,1,1,.212-.936l5.752,1.3a.479.479,0,0,1-.105.947Z" transform="translate(-12.759 -11.673)" fill="#bf2025"/>
    <path id="Path_208942" data-name="Path 208942" d="M49.693,45.6a.48.48,0,0,1-.127-.942l2.777-.763a.48.48,0,0,1,.254.925l-2.777.763A.489.489,0,0,1,49.693,45.6Z" transform="translate(-21.956 -19.185)" fill="#bf2025"/>
    <path id="Path_208943" data-name="Path 208943" d="M45.583,39.011a.48.48,0,0,1-.462-.353L43.6,33.105a.48.48,0,1,1,.925-.254L46.046,38.4a.48.48,0,0,1-.335.59A.489.489,0,0,1,45.583,39.011Z" transform="translate(-19.026 -13.265)" fill="#bf2025"/>
    <path id="Path_208944" data-name="Path 208944" d="M45.458,30.174a.48.48,0,0,1-.127-.943l2.777-.763a.48.48,0,0,1,.254.926l-2.777.763A.5.5,0,0,1,45.458,30.174Z" transform="translate(-19.754 -11.16)" fill="#bf2025"/>
    <path id="Path_208945" data-name="Path 208945" d="M14.492,30.174a.489.489,0,0,1-.128-.017l-2.777-.763a.48.48,0,0,1,.254-.926l2.777.763a.48.48,0,0,1-.127.943Z" transform="translate(-2.203 -11.16)" fill="#bf2025"/>
    <path id="Path_208946" data-name="Path 208946" d="M15.724,39.011a.489.489,0,0,1-.128-.017.479.479,0,0,1-.335-.59l1.525-5.553a.48.48,0,1,1,.925.254l-1.525,5.553A.479.479,0,0,1,15.724,39.011Z" transform="translate(-4.288 -13.265)" fill="#bf2025"/>
    <path id="Path_208947" data-name="Path 208947" d="M10.257,45.6a.489.489,0,0,1-.128-.017l-2.777-.763a.48.48,0,0,1,.254-.925l2.777.763a.48.48,0,0,1-.127.942Z" transform="translate(0 -19.185)" fill="#bf2025"/>
    <path id="Path_208948" data-name="Path 208948" d="M7.48,36.815a.489.489,0,0,1-.128-.017.479.479,0,0,1-.335-.59l2.032-7.4a.48.48,0,1,1,.925.254l-2.032,7.4A.479.479,0,0,1,7.48,36.815Z" transform="translate(0 -11.159)" fill="#bf2025"/>
    <path id="Path_208949" data-name="Path 208949" d="M25.523,31.657a.48.48,0,0,1-.413-.725,3.35,3.35,0,0,1,3.632-1.561.48.48,0,1,1-.213.936,2.391,2.391,0,0,0-2.593,1.115.479.479,0,0,1-.413.235Z" transform="translate(-9.385 -11.594)" fill="#bf2025"/>
    <path id="Path_208950" data-name="Path 208950" d="M44.246,45.908a1.915,1.915,0,0,1-1.175-.4.48.48,0,0,1,.587-.759.959.959,0,0,0,1.175,0,.48.48,0,1,1,.587.758A1.913,1.913,0,0,1,44.246,45.908Z" transform="translate(-18.664 -19.584)" fill="#bf2025"/>
    <path id="Path_208951" data-name="Path 208951" d="M36.006,39.908a.477.477,0,0,1-.293-.1L28.923,34.55a.48.48,0,1,1,.587-.759L36.3,39.049a.48.48,0,0,1-.294.859Z" transform="translate(-11.306 -13.885)" fill="#bf2025"/>
    <path id="Path_208952" data-name="Path 208952" d="M29.447,36.712a.473.473,0,0,1-.293-.1.479.479,0,0,1-.085-.673l.648-.836a.48.48,0,0,1,.758.587l-.648.836a.477.477,0,0,1-.38.186Z" transform="translate(-11.426 -14.522)" fill="#bf2025"/>
    <path id="Path_208953" data-name="Path 208953" d="M24.05,38.492a2.754,2.754,0,0,1-1.845-.7.48.48,0,0,1,.644-.712,1.8,1.8,0,0,0,1.371.446,1.774,1.774,0,0,0,1.248-.675.48.48,0,0,1,.762.583,2.731,2.731,0,0,1-1.922,1.048C24.221,38.488,24.135,38.492,24.05,38.492Z" transform="translate(-7.826 -15.43)" fill="#bf2025"/>
    <path id="Path_208954" data-name="Path 208954" d="M37.061,46.039a.477.477,0,0,1-.293-.1l-3.012-2.333a.48.48,0,0,1,.587-.759l3.012,2.333a.48.48,0,0,1-.294.859Z" transform="translate(-13.819 -18.595)" fill="#bf2025"/>
    <path id="Path_208955" data-name="Path 208955" d="M33.918,48.918a.477.477,0,0,1-.293-.1l-3.176-2.46a.48.48,0,1,1,.587-.759l3.176,2.46a.48.48,0,0,1-.294.859Z" transform="translate(-12.099 -20.027)" fill="#bf2025"/>
    <path id="Path_208956" data-name="Path 208956" d="M30.35,51.469a.477.477,0,0,1-.293-.1L27.14,49.11a.48.48,0,1,1,.587-.759l2.917,2.259a.48.48,0,0,1-.294.859Z" transform="translate(-10.378 -21.458)" fill="#bf2025"/>
    <path id="Path_208957" data-name="Path 208957" d="M22.526,35.606a.474.474,0,0,1-.245-.068.48.48,0,0,1-.167-.657l1.438-2.422a.48.48,0,1,1,.825.49l-1.438,2.422A.478.478,0,0,1,22.526,35.606Z" transform="translate(-7.826 -13.122)" fill="#bf2025"/>
    <path id="Path_208958" data-name="Path 208958" d="M53.277,36.815a.48.48,0,0,1-.462-.353l-2.032-7.4a.48.48,0,1,1,.925-.254l2.032,7.4a.48.48,0,0,1-.335.59A.51.51,0,0,1,53.277,36.815Z" transform="translate(-22.763 -11.16)" fill="#bf2025"/>
    <path id="Path_208959" data-name="Path 208959" d="M40.917,47.059a1.435,1.435,0,0,1-.886-.321.48.48,0,0,1,.587-.759.529.529,0,0,0,.646-.835.48.48,0,0,1,.587-.758,1.427,1.427,0,0,1,.239,2.068A1.509,1.509,0,0,1,40.917,47.059Z" transform="translate(-17.083 -19.395)" fill="#bf2025"/>
    <path id="Path_208960" data-name="Path 208960" d="M37.955,50.073a1.45,1.45,0,0,1-.889-.318A.48.48,0,1,1,37.654,49a.44.44,0,0,0,.463.083.658.658,0,0,0,.38-.49.44.44,0,0,0-.2-.428.48.48,0,0,1,.587-.759,1.4,1.4,0,0,1,.559,1.316,1.6,1.6,0,0,1-.967,1.249A1.378,1.378,0,0,1,37.955,50.073Z" transform="translate(-15.541 -20.965)" fill="#bf2025"/>
    <path id="Path_208961" data-name="Path 208961" d="M34.108,52.407a1.454,1.454,0,0,1-.89-.317.48.48,0,0,1,.587-.759.455.455,0,0,0,.381.108.629.629,0,0,0,.465-.6.452.452,0,0,0-.2-.342.48.48,0,1,1,.587-.759,1.427,1.427,0,0,1,.239,2.067,1.537,1.537,0,0,1-.9.575,1.352,1.352,0,0,1-.271.027Z" transform="translate(-13.54 -22.179)" fill="#bf2025"/>
    <path id="Path_208962" data-name="Path 208962" d="M29.308,54a1.451,1.451,0,0,1-.889-.317.48.48,0,1,1,.587-.759.44.44,0,0,0,.464.083.659.659,0,0,0,.38-.49.44.44,0,0,0-.2-.428.48.48,0,1,1,.587-.759,1.4,1.4,0,0,1,.56,1.316,1.6,1.6,0,0,1-.967,1.249A1.38,1.38,0,0,1,29.308,54Z" transform="translate(-11.044 -23.01)" fill="#bf2025"/>
  </g>
</svg>
