<svg xmlns="http://www.w3.org/2000/svg" width="21" height="20.501" viewBox="0 0 21 20.501">
  <g id="Partners" transform="translate(12692.5 13923.134)">
    <g id="Group_309" data-name="Group 309" transform="translate(-12692 -13923.136)">
      <rect id="Rectangle_167666" data-name="Rectangle 167666" width="20" height="20" transform="translate(0 0.002)" fill="none"/>
      <g id="_52-Group" data-name="52-Group" transform="translate(-2 -1.576)">
        <circle id="Ellipse_117" data-name="Ellipse 117" cx="3" cy="3" r="3" transform="translate(14 3.104)" fill="none" stroke="#060709" stroke-width="1"/>
        <path id="Path_115666" data-name="Path 115666" d="M7.714,12.714A3.907,3.907,0,0,1,7.779,12H5.571A3.571,3.571,0,0,0,2,15.571v3.571a.714.714,0,0,0,.714.714H5.571a5,5,0,0,1,3-4.579A4.286,4.286,0,0,1,7.714,12.714Z" transform="translate(0 -2.564)" fill="none" stroke="#060709" stroke-width="1"/>
        <path id="Path_115667" data-name="Path 115667" d="M23.8,12H21.593a3.907,3.907,0,0,1,.064.714,4.286,4.286,0,0,1-.857,2.564,5,5,0,0,1,3,4.579h2.857a.714.714,0,0,0,.714-.714V15.571A3.571,3.571,0,0,0,23.8,12Z" transform="translate(-5.371 -2.564)" fill="none" stroke="#060709" stroke-width="1"/>
        <circle id="Ellipse_118" data-name="Ellipse 118" cx="3" cy="3" r="3" transform="translate(4 3.104)" fill="none" stroke="#060709" stroke-width="1"/>
        <circle id="Ellipse_119" data-name="Ellipse 119" cx="3" cy="3" r="3" transform="translate(9 7.104)" fill="none" stroke="#060709" stroke-width="1"/>
        <path id="Path_115668" data-name="Path 115668" d="M15.429,18H12.571A3.571,3.571,0,0,0,9,21.571v3.571a.714.714,0,0,0,.714.714h8.571A.714.714,0,0,0,19,25.143V21.571A3.571,3.571,0,0,0,15.429,18Z" transform="translate(-2 -4.278)" fill="none" stroke="#060709" stroke-width="1"/>
      </g>
    </g>
  </g>
</svg>
