<svg xmlns="http://www.w3.org/2000/svg" width="23.002" height="23.001" viewBox="0 0 23.002 23.001">
  <path id="Partners" d="M21.432,7.538a.356.356,0,0,0-.413-.289l-1.753.309a.356.356,0,0,0-.289.413l.076.431-1,.174-.6-.092V3.206A1.425,1.425,0,0,0,16.03,1.781H13.537V1.069A1.069,1.069,0,0,0,12.468,0H10.33A1.069,1.069,0,0,0,9.262,1.069v.712H6.768A1.425,1.425,0,0,0,5.343,3.206V8.485l-.6.092L3.746,8.4l.076-.432a.356.356,0,0,0-.289-.413L1.781,7.248a.356.356,0,0,0-.413.289L.005,15.255a.356.356,0,0,0,.289.413l1.754.309a.356.356,0,0,0,.413-.289l.032-.191.294.052a4.649,4.649,0,0,0,1.158,1.565,1.414,1.414,0,0,0,1.027,1.443,1.417,1.417,0,0,0,2.011,1.9,1.409,1.409,0,0,0,2.194.951,1.409,1.409,0,0,0,2.008,1.055v0l.142.095a1.425,1.425,0,0,0,1.975-.4,1.4,1.4,0,0,0,.229-.8,1.4,1.4,0,0,0,.354.049,1.422,1.422,0,0,0,1.427-1.435,1.41,1.41,0,0,0,.347.046,1.425,1.425,0,0,0,1.425-1.435,1.413,1.413,0,0,0,1.765-1.468,4.643,4.643,0,0,0,1.158-1.567l.3-.051.033.19a.356.356,0,0,0,.413.289l1.753-.309a.356.356,0,0,0,.289-.413ZM9.974,1.069A.356.356,0,0,1,10.33.712h2.137a.356.356,0,0,1,.356.356v.712H9.974ZM6.056,3.206a.712.712,0,0,1,.712-.712H16.03a.712.712,0,0,1,.712.712V4.275a1.069,1.069,0,0,1-1.069,1.069V4.987a.356.356,0,0,0-.356-.356H13.893a.356.356,0,0,0-.356.356v.356H9.262V4.987a.356.356,0,0,0-.356-.356H7.481a.356.356,0,0,0-.356.356v.356A1.069,1.069,0,0,1,6.056,4.275Zm8.906,2.137v.712h-.712V5.343Zm-6.412,0v.712H7.837V5.343ZM6.056,5.69a1.763,1.763,0,0,0,1.069.365v.356a.356.356,0,0,0,.356.356H8.906a.356.356,0,0,0,.356-.356V6.056h4.275v.356a.356.356,0,0,0,.356.356h1.425a.356.356,0,0,0,.356-.356V6.056a1.763,1.763,0,0,0,1.069-.365V8.375l-2.707-.414a3.219,3.219,0,0,0-1.738.221l-.9.383-.9-.382a3.206,3.206,0,0,0-1.742-.22l-2.707.414ZM1.821,15.214.769,15.028,2.006,8.01,3.058,8.2Zm3,2.431a.712.712,0,0,1,.088-1L6.272,15.5a.713.713,0,0,1,.916,1.091L5.823,17.733a.712.712,0,0,1-1-.089Zm1.832,2.183a.713.713,0,0,1-.916-1.092l1.639-1.374a.712.712,0,0,1,.915,1.091Zm2.193.95a.713.713,0,1,1-.916-1.092L9.02,18.77a.712.712,0,1,1,.916,1.092Zm2.192.952a.712.712,0,1,1-.916-1.092l1.092-.916a.712.712,0,0,1,1,.088h0a.712.712,0,0,1-.088,1Zm1.672.038a.705.705,0,0,1-.9.246l.78-.654a1.422,1.422,0,0,0,.2-.206.71.71,0,0,1-.079.612ZM18.03,17.6a.712.712,0,0,1-.987.2l-2.971-1.965a.356.356,0,1,0-.392.594L16.057,18a.713.713,0,0,1-.788,1.188l-2.377-1.573a.351.351,0,0,0-.131-.053.356.356,0,0,0-.262.648l1.781,1.18a.712.712,0,1,1-.787,1.188l-.406-.269a1.412,1.412,0,0,0-2.209-1.219,1.4,1.4,0,0,0-1.63-1.176,1.4,1.4,0,0,0-1.179-1.405,1.421,1.421,0,0,0-2.255-1.56L4.449,16.094a1.4,1.4,0,0,0-.249.281A3.919,3.919,0,0,1,3.372,15.1a.356.356,0,0,0-.27-.219l-.485-.085,1-5.691,1.052.186a.342.342,0,0,0,.116,0L8.87,8.667a2.487,2.487,0,0,1,1.354.171l.265.113-1.422.606a1.777,1.777,0,0,0-.784.654L6.942,12.232a1.075,1.075,0,0,0,.3,1.483,1.783,1.783,0,0,0,2.467-.5l.612-.921,1.3-.266a2.95,2.95,0,0,0,1.83,1.874,3.17,3.17,0,0,0,.466.127l3.906,2.586A.712.712,0,0,1,18.03,17.6ZM19.7,14.88a.356.356,0,0,0-.27.221,3.913,3.913,0,0,1-.83,1.282,1.4,1.4,0,0,0-.373-.366l-3.028-2a3.151,3.151,0,0,0,1.1-.451l.56-.367a.356.356,0,0,0-.392-.6l-.558.367a2.486,2.486,0,0,1-2.209.26,2.244,2.244,0,0,1-1.41-1.469c-.022-.071-.041-.147-.056-.222a.356.356,0,0,0-.42-.276l-1.774.363a.356.356,0,0,0-.225.152l-.691,1.043a1.071,1.071,0,0,1-1.48.3.361.361,0,0,1-.1-.5L8.88,10.6a1.069,1.069,0,0,1,.469-.392l3.228-1.375a2.508,2.508,0,0,1,1.354-.171l4.079.623a.378.378,0,0,0,.115,0L19.179,9.1l1,5.691Zm1.282.333L19.74,8.2l1.053-.186,1.237,7.018Z" transform="translate(0.101 0.1)" stroke="#060709" stroke-width="0.2"/>
</svg>
