<svg xmlns="http://www.w3.org/2000/svg" width="38" height="48.364" viewBox="0 0 38 48.364">
  <g id="pdf-file" transform="translate(-4 -2)">
    <path id="Path_114100" data-name="Path 114100" d="M8.811,14.68a3.687,3.687,0,0,0-.916.089v2.9a3.354,3.354,0,0,0,.743.057c1.179,0,1.905-.6,1.905-1.6,0-.9-.625-1.443-1.733-1.443Zm8.584.03a4.542,4.542,0,0,0-1,.089v6.425a4.02,4.02,0,0,0,.771.044c2.011.015,3.321-1.093,3.321-3.437A2.818,2.818,0,0,0,17.4,14.71Z" transform="translate(5.197 17.897)" fill="#fa5656"/>
    <path id="Path_114101" data-name="Path 114101" d="M27.75,2h-19A4.707,4.707,0,0,0,5.391,3.417,4.881,4.881,0,0,0,4,6.836V45.527a4.881,4.881,0,0,0,1.391,3.42A4.707,4.707,0,0,0,8.75,50.364h28.5a4.707,4.707,0,0,0,3.359-1.417A4.881,4.881,0,0,0,42,45.527V16.509ZM17.058,36.314A4.352,4.352,0,0,1,13.98,37.33a5.211,5.211,0,0,1-.731-.044v3.448H11.125V31.216a17.633,17.633,0,0,1,2.9-.2,4.492,4.492,0,0,1,2.9.771,2.848,2.848,0,0,1,1.012,2.232,3.131,3.131,0,0,1-.872,2.292ZM26.1,39.591a6.713,6.713,0,0,1-4.37,1.245,17.975,17.975,0,0,1-2.432-.145V31.219a18.533,18.533,0,0,1,2.9-.2,6.01,6.01,0,0,1,3.878,1.03,4.3,4.3,0,0,1,1.6,3.637A4.936,4.936,0,0,1,26.1,39.591Zm8.776-6.71H31.236v2.2h3.4v1.775h-3.4v3.879H29.085V31.091h5.79ZM27.75,18.927H25.375V6.836L37.25,18.927Z" fill="#fa5656"/>
  </g>
</svg>
