<svg xmlns="http://www.w3.org/2000/svg" xmlns:xlink="http://www.w3.org/1999/xlink" width="42" height="42" viewBox="0 0 42 42">
  <defs>
    <filter id="Rectangle_168415" x="0" y="0" width="42" height="42" filterUnits="userSpaceOnUse">
      <feOffset dy="3" input="SourceAlpha"/>
      <feGaussianBlur stdDeviation="3" result="blur"/>
      <feFlood flood-opacity="0.161"/>
      <feComposite operator="in" in2="blur"/>
      <feComposite in="SourceGraphic"/>
    </filter>
  </defs>
  <g id="plus" transform="translate(-80 -742)">
    <g transform="matrix(1, 0, 0, 1, 80, 742)" filter="url(#Rectangle_168415)">
      <rect id="Rectangle_168415-2" data-name="Rectangle 168415" width="24" height="24" rx="12" transform="translate(9 6)" fill="#fff"/>
    </g>
    <path id="add" d="M8.587,3.873H5.725A.168.168,0,0,1,5.556,3.7V.842a.842.842,0,1,0-1.684,0V3.7a.168.168,0,0,1-.168.168H.842a.842.842,0,1,0,0,1.684H3.7a.168.168,0,0,1,.168.168V8.587a.842.842,0,1,0,1.684,0V5.725a.168.168,0,0,1,.168-.168H8.587a.842.842,0,1,0,0-1.684Zm0,0" transform="translate(96.286 755.286)" fill="#f89902"/>
  </g>
</svg>
