<svg xmlns="http://www.w3.org/2000/svg" width="24" height="24" viewBox="0 0 24 24">
  <g id="Privacy_Policy" data-name="Privacy Policy" transform="translate(-3 -3)">
    <path id="Path_190283" data-name="Path 190283" d="M19.569,27H5.857A2.86,2.86,0,0,1,3,24.143V5.857A2.86,2.86,0,0,1,5.857,3h8.833a2.87,2.87,0,0,1,2.044.857l4.878,4.994a2.851,2.851,0,0,1,.814,2v4.257a.571.571,0,1,1-1.143,0V10.851a1.714,1.714,0,0,0-.489-1.2L15.915,4.657a1.717,1.717,0,0,0-1.226-.514H5.857A1.714,1.714,0,0,0,4.143,5.857V24.143a1.714,1.714,0,0,0,1.714,1.714H19.569a1.636,1.636,0,0,0,.628-.123.572.572,0,0,1,.435,1.057A2.781,2.781,0,0,1,19.569,27Z" fill="#060709"/>
    <path id="Path_190284" data-name="Path 190284" d="M30.628,10.567H26.859A2.863,2.863,0,0,1,24,7.708V3.882a.572.572,0,1,1,1.144,0V7.708a1.716,1.716,0,0,0,1.716,1.716h3.768a.572.572,0,0,1,0,1.144Z" transform="translate(-9.004 -0.133)" fill="#060709"/>
    <path id="Path_190285" data-name="Path 190285" d="M29.29,35.131a1.139,1.139,0,0,1-.634-.192L26.82,33.715A8.559,8.559,0,0,1,23,26.58V25.6a1.149,1.149,0,0,1,.881-1.112,17.112,17.112,0,0,0,4.79-2.161,1.144,1.144,0,0,1,1.239,0,17.1,17.1,0,0,0,4.79,2.161,1.149,1.149,0,0,1,.881,1.112v.979a8.559,8.559,0,0,1-3.82,7.137l-1.836,1.224a1.14,1.14,0,0,1-.634.19Zm0-11.843A18.242,18.242,0,0,1,24.157,25.6l-.014.98a7.419,7.419,0,0,0,3.31,6.186l1.836,1.222,1.836-1.224a7.419,7.419,0,0,0,3.31-6.183V25.6a18.3,18.3,0,0,1-5.147-2.312h0Z" transform="translate(-8.581 -8.215)" fill="#bf2025"/>
    <path id="Path_190286" data-name="Path 190286" d="M31.716,33.431a.572.572,0,0,1-.4-.167L30.168,32.12a.572.572,0,1,1,.809-.809l.739.739L33.6,30.168a.572.572,0,1,1,.809.809L32.12,33.264A.572.572,0,0,1,31.716,33.431Z" transform="translate(-11.574 -11.573)" fill="#060709"/>
    <path id="Path_190287" data-name="Path 190287" d="M14.147,12.144H9.572a.572.572,0,0,1,0-1.144h4.575a.572.572,0,0,1,0,1.144Z" transform="translate(-2.569 -3.429)" fill="#bf2025"/>
    <path id="Path_190288" data-name="Path 190288" d="M17.578,18.144H9.572a.572.572,0,1,1,0-1.144h8.006a.572.572,0,0,1,0,1.144Z" transform="translate(-2.569 -6)" fill="#bf2025"/>
    <path id="Path_190289" data-name="Path 190289" d="M18.721,24.144H9.572a.572.572,0,1,1,0-1.144h9.15a.572.572,0,0,1,0,1.144Z" transform="translate(-2.569 -8.572)" fill="#bf2025"/>
    <path id="Path_190290" data-name="Path 190290" d="M15.29,30.144H9.572a.572.572,0,0,1,0-1.144H15.29a.572.572,0,0,1,0,1.144Z" transform="translate(-2.569 -11.143)" fill="#bf2025"/>
    <path id="Path_190291" data-name="Path 190291" d="M15.29,36.144H9.572a.572.572,0,1,1,0-1.144H15.29a.572.572,0,1,1,0,1.144Z" transform="translate(-2.569 -13.715)" fill="#bf2025"/>
  </g>
</svg>
