<svg xmlns="http://www.w3.org/2000/svg" width="20" height="21" viewBox="0 0 20 21">
  <g id="Profile" transform="translate(12692 13923.633)">
    <g id="Group_309" data-name="Group 309" transform="translate(-12692 -13923.133)">
      <rect id="Rectangle_167666" data-name="Rectangle 167666" width="20" height="20" transform="translate(0 0.001)" fill="none"/>
      <g id="Group_315" data-name="Group 315" transform="translate(0.001 0)">
        <rect id="Rectangle_167462" data-name="Rectangle 167462" width="20" height="20" transform="translate(-0.001 0.001)" fill="none"/>
        <g id="user" transform="translate(1.05)">
          <g id="Group_215" data-name="Group 215" transform="translate(0)">
            <g id="Group_214" data-name="Group 214">
              <path id="Path_114063" data-name="Path 114063" d="M115.985,10.385a5.193,5.193,0,1,0-5.193-5.193A5.206,5.206,0,0,0,115.985,10.385Z" transform="translate(-107.032 0)" fill="none" stroke="#003c5e" stroke-width="1"/>
              <path id="Path_114064" data-name="Path 114064" d="M42.028,251.619a4.841,4.841,0,0,0-.522-.952,6.454,6.454,0,0,0-4.467-2.812.956.956,0,0,0-.658.159,5.535,5.535,0,0,1-6.53,0,.851.851,0,0,0-.658-.159,6.408,6.408,0,0,0-4.467,2.812,5.582,5.582,0,0,0-.522.952.482.482,0,0,0,.023.431,9.048,9.048,0,0,0,.612.907,8.62,8.62,0,0,0,1.043,1.179,13.6,13.6,0,0,0,1.043.907,10.34,10.34,0,0,0,12.335,0,9.973,9.973,0,0,0,1.043-.907,10.476,10.476,0,0,0,1.043-1.179,7.953,7.953,0,0,0,.612-.907A.387.387,0,0,0,42.028,251.619Z" transform="translate(-24.165 -237.084)" fill="none" stroke="#003c5e" stroke-width="1"/>
            </g>
          </g>
        </g>
      </g>
    </g>
  </g>
</svg>
