<svg id="rateus" xmlns="http://www.w3.org/2000/svg" width="24" height="24" viewBox="0 0 24 24">
  <rect id="Rectangle_169197" data-name="Rectangle 169197" width="24" height="24" fill="none"/>
  <g id="outline" transform="translate(-15.284 -69.404)">
    <path id="Path_208315" data-name="Path 208315" d="M198.366,74.3a.708.708,0,0,0-.675-.49h-1.383l-.427-1.315a.71.71,0,0,0-1.35,0l-.427,1.315h-1.383a.71.71,0,0,0-.417,1.284l1.119.813L193,77.218a.709.709,0,0,0,1.092.793l1.119-.813,1.119.813a.71.71,0,0,0,1.092-.793L196.99,75.9l1.119-.813A.708.708,0,0,0,198.366,74.3Zm-2.081,1.13a.4.4,0,0,0-.145.447l.432,1.33-1.131-.822a.4.4,0,0,0-.469,0l-1.131.822.432-1.33a.4.4,0,0,0-.145-.447L193,74.605h1.4a.4.4,0,0,0,.38-.276l.432-1.33.432,1.33a.4.4,0,0,0,.38.276h1.4Z" transform="translate(-167.904 0)" fill="#bf2025"/>
    <path id="Path_208316" data-name="Path 208316" d="M83.834,136.168a.646.646,0,0,0,.613-.845l-.32-.985.838-.609a.645.645,0,0,0-.379-1.167H83.551l-.32-.985a.645.645,0,0,0-1.227,0l-.32.985H80.649a.645.645,0,0,0-.379,1.167l.838.608-.32.985a.645.645,0,0,0,.993.721l.838-.609.838.609A.644.644,0,0,0,83.834,136.168Zm-1.452-1.549-.689.5.263-.811a.4.4,0,0,0-.145-.447l-.689-.5h.852a.4.4,0,0,0,.38-.276l.263-.811.263.811a.4.4,0,0,0,.38.276h.852l-.689.5a.4.4,0,0,0-.145.447l.263.811-.69-.5a.4.4,0,0,0-.47,0Z" transform="translate(-61.488 -56.18)" fill="#bf2025"/>
    <path id="Path_208317" data-name="Path 208317" d="M19.867,236.563H18.832l-.32-.985a.645.645,0,0,0-1.227,0l-.32.985H15.929a.645.645,0,0,0-.379,1.167l.838.608-.32.985a.645.645,0,0,0,.993.721l.838-.609.838.609a.645.645,0,0,0,.993-.721l-.32-.985.838-.608a.645.645,0,0,0-.379-1.167Zm-1.163,1.3a.4.4,0,0,0-.145.447l.263.811-.69-.5a.4.4,0,0,0-.469,0l-.69.5.263-.811a.4.4,0,0,0-.145-.447l-.689-.5h.852a.4.4,0,0,0,.38-.276l.263-.811.263.811a.4.4,0,0,0,.38.276h.852Z" transform="translate(0 -154.987)" fill="#bf2025"/>
    <path id="Path_208318" data-name="Path 208318" d="M395.862,236.563h-1.035l-.32-.985a.645.645,0,0,0-1.227,0l-.32.985h-1.035a.645.645,0,0,0-.379,1.167l.838.608-.32.985a.645.645,0,0,0,.993.721l.838-.609.838.609a.645.645,0,0,0,.993-.721l-.32-.985.838-.609a.645.645,0,0,0-.379-1.167Zm-1.163,1.3a.4.4,0,0,0-.145.447l.263.811-.69-.5a.4.4,0,0,0-.469,0l-.69.5.263-.811a.4.4,0,0,0-.145-.447l-.689-.5h.852a.4.4,0,0,0,.38-.276l.263-.811.263.811a.4.4,0,0,0,.38.276h.852Z" transform="translate(-357.223 -154.987)" fill="#bf2025"/>
    <path id="Path_208319" data-name="Path 208319" d="M331.11,136.168a.646.646,0,0,0,.614-.845l-.32-.985.838-.608a.645.645,0,0,0-.379-1.167h-1.035l-.32-.985a.645.645,0,0,0-1.227,0l-.32.985h-1.035a.645.645,0,0,0-.379,1.167l.838.608-.32.985a.645.645,0,0,0,.993.721l.838-.609.838.609A.644.644,0,0,0,331.11,136.168Zm-1.451-1.549-.689.5.263-.811a.4.4,0,0,0-.145-.447l-.689-.5h.852a.4.4,0,0,0,.38-.276l.263-.811.263.811a.4.4,0,0,0,.38.276h.852l-.689.5a.4.4,0,0,0-.145.447l.263.811-.69-.5a.4.4,0,0,0-.469,0Z" transform="translate(-296.418 -56.179)" fill="#bf2025"/>
    <path id="Path_208320" data-name="Path 208320" d="M146.784,236.295h-2.8v-2a1.6,1.6,0,0,0-1.6-1.6h-.8a.4.4,0,0,0-.4.343l-.147,1.028a3.009,3.009,0,0,1-1.555,2.224H136.4a.4.4,0,0,0-.4.4v5.592a.4.4,0,0,0,.4.4h3.074l.261.174a3.706,3.706,0,0,0,2.063.624h4.587a4.539,4.539,0,0,0,.892-3.595,5.67,5.67,0,0,1,.657-2.732A1.2,1.2,0,0,0,146.784,236.295Zm-9.985.8h2.4v4.793h-2.4Zm9.985.8h-.4a.4.4,0,0,0,0,.8.4.4,0,1,1,0,.8.4.4,0,1,0,0,.8.4.4,0,0,1,0,.8.4.4,0,1,0,0,.8.4.4,0,0,1,0,.8H141.8a2.91,2.91,0,0,1-1.619-.49l-.184-.123v-5.141a3.809,3.809,0,0,0,1.846-2.748l.1-.685h.452a.8.8,0,0,1,.8.8v2.4a.4.4,0,0,0,.4.4h3.2a.4.4,0,1,1,0,.8Z" transform="translate(-114.689 -152.676)" fill="#060709"/>
  </g>
</svg>
