<svg xmlns="http://www.w3.org/2000/svg" width="36.592" height="43.109" viewBox="0 0 36.592 43.109">
  <g id="Registration" transform="translate(-48.506 -11.549)">
    <g id="Group_161363" data-name="Group 161363" transform="translate(48.506 11.549)">
      <path id="Path_208658" data-name="Path 208658" d="M158.979,40.508h8.06a.509.509,0,0,0,0-1.018h-8.06a.509.509,0,0,0,0,1.018Z" transform="translate(-147.104 -37.058)" fill="#060709"/>
      <path id="Path_208660" data-name="Path 208660" d="M135.762,278.331H116.95a.509.509,0,1,0,0,1.018h18.812a.509.509,0,1,0,0-1.018Z" transform="translate(-110.451 -254.807)" fill="#060709"/>
      <path id="Path_208661" data-name="Path 208661" d="M135.762,331.278H116.95a.509.509,0,1,0,0,1.018h18.812a.509.509,0,1,0,0-1.018Z" transform="translate(-110.451 -303.086)" fill="#060709"/>
      <path id="Path_208662" data-name="Path 208662" d="M180.053,384.233h-9.329a.509.509,0,1,0,0,1.018h9.329a.509.509,0,1,0,0-1.018Z" transform="translate(-159.483 -351.371)" fill="#060709"/>
      <path id="Path_208666" data-name="Path 208666" d="M180.053,384.233h-9.329a.509.509,0,1,0,0,1.018h9.329a.509.509,0,1,0,0-1.018Z" transform="translate(-159.4 -346.702)" fill="#060709"/>
      <path id="Path_208663" data-name="Path 208663" d="M80.319,16.865V14.774a3.228,3.228,0,0,0-3.225-3.225H51.731a3.228,3.228,0,0,0-3.225,3.225v36.66a3.228,3.228,0,0,0,3.225,3.225H77.094a3.228,3.228,0,0,0,3.225-3.225V27.394a5.289,5.289,0,0,0,0-10.53ZM79.3,51.434a2.211,2.211,0,0,1-2.206,2.206H51.731a2.211,2.211,0,0,1-2.206-2.206V14.774a2.211,2.211,0,0,1,2.206-2.206H77.094A2.211,2.211,0,0,1,79.3,14.774v2.091a5.289,5.289,0,0,0,0,10.53v24.04Zm2.654-30.211-2.525,2.525a.5.5,0,0,1-.72,0L77.664,22.7a.509.509,0,1,1,.72-.72l.686.686L81.235,20.5a.509.509,0,1,1,.72.72Z" transform="translate(-48.506 -11.549)" fill="#bf2025"/>
      <path id="Path_208664" data-name="Path 208664" d="M198.634,92.082a2.926,2.926,0,1,0,2.933,2.933A2.931,2.931,0,0,0,198.634,92.082Z" transform="translate(-182.735 -84.981)" fill="#bf2025"/>
      <path id="Path_208665" data-name="Path 208665" d="M171.154,171.371a.508.508,0,0,0,.509.509h9.179a.508.508,0,0,0,.509-.509.749.749,0,0,0-.014-.122c-.054-3.415-2.322-6.178-5.1-6.178C173.435,165.071,171.154,167.9,171.154,171.371Z" transform="translate(-160.339 -151.534)" fill="#bf2025"/>
    </g>
  </g>
</svg>
