<svg xmlns="http://www.w3.org/2000/svg" xmlns:xlink="http://www.w3.org/1999/xlink" width="16" height="16" viewBox="0 0 16 16">
  <defs>
    <clipPath id="clip-path">
      <path id="path2511" d="M0-682.665H16v16H0Z" transform="translate(0 682.665)"/>
    </clipPath>
  </defs>
  <g id="state" transform="translate(0 682.665)">
    <g id="g2507" transform="translate(0 -682.665)">
      <g id="g2509" clip-path="url(#clip-path)">
        <g id="g2515" transform="translate(2.375 0)">
          <path id="path2517" d="M-234.374-646.665a.469.469,0,0,1-.39-.209c-.357-.535-.765-1.107-1.2-1.713-1.892-2.65-4.037-5.654-4.037-8.453a5.631,5.631,0,0,1,5.625-5.625,5.631,5.631,0,0,1,5.625,5.625c0,2.8-2.145,5.8-4.037,8.453-.432.606-.841,1.178-1.2,1.713A.469.469,0,0,1-234.374-646.665Zm0-15.062a4.693,4.693,0,0,0-4.687,4.688c0,2.5,2.142,5.5,3.863,7.908.288.4.565.791.825,1.166.26-.375.537-.763.825-1.166,1.721-2.41,3.863-5.409,3.863-7.908A4.693,4.693,0,0,0-234.374-661.728Z" transform="translate(239.999 662.665)" fill="#bf2025"/>
        </g>
        <g id="g2519" transform="translate(5.188 2.813)">
          <path id="path2521" d="M-117.187-214.374A2.816,2.816,0,0,1-120-217.187,2.816,2.816,0,0,1-117.187-220a2.816,2.816,0,0,1,2.813,2.813A2.816,2.816,0,0,1-117.187-214.374Zm0-4.687a1.877,1.877,0,0,0-1.875,1.875,1.877,1.877,0,0,0,1.875,1.875,1.877,1.877,0,0,0,1.875-1.875A1.877,1.877,0,0,0-117.187-219.062Z" transform="translate(120 219.999)" fill="#060709"/>
        </g>
      </g>
    </g>
  </g>
</svg>
