<svg xmlns="http://www.w3.org/2000/svg" width="30" height="30" viewBox="0 0 30 30">
  <g id="Subsidies" transform="translate(15072 370)">
    <g id="OUTLINE" transform="translate(-15086.594 -386)">
      <path id="Path_193943" data-name="Path 193943" d="M42.4,43.3l-1.235-.926a.5.5,0,0,1-.2-.364l-.8-11.154a5.474,5.474,0,0,0-2.355-4.13l-1.142-.791A1.5,1.5,0,0,0,36.617,24a1.5,1.5,0,0,0,0-2A1.5,1.5,0,0,0,35.5,19.5h-.473l.947-2.842A.5.5,0,0,0,35.5,16h-9a.5.5,0,0,0-.474.658l.947,2.842H25.914a1.49,1.49,0,0,0-1.061.439l-1.121,1.121a1.49,1.49,0,0,1-1.061.439H16v1h2.5V27H16v1h6.672a1.512,1.512,0,0,1,.193.013,5.48,5.48,0,0,0-1.034,2.842l-.8,11.155a.5.5,0,0,1-.2.364L19.6,43.3a1.5,1.5,0,0,0,.9,2.7h21a1.5,1.5,0,0,0,.9-2.7ZM22,27H19.5V22.5H22Zm13.5-6.5a.5.5,0,1,1,0,1H33.266a2.906,2.906,0,0,0-.569-1Zm0,5h-3a1.5,1.5,0,0,0-.4.056l.586-1.056H35.5a.5.5,0,1,1,0,1ZM36,27a.5.5,0,0,1-.5.5h-3a.5.5,0,0,1,0-1h3A.5.5,0,0,1,36,27Zm-.5-3.5H33.211a2.913,2.913,0,0,0,.2-1H35.5a.5.5,0,1,1,0,1ZM34.806,17l-.833,2.5H32.5a1.5,1.5,0,0,0-.824.248A2.912,2.912,0,0,0,30.5,19.5h-2.47L27.194,17ZM23,22.478a2.48,2.48,0,0,0,1.439-.71l1.121-1.121a.5.5,0,0,1,.354-.146H30.5a1.908,1.908,0,0,1,1.358.563,1.929,1.929,0,0,1,.321,2.291l-1.452,2.614a1.151,1.151,0,0,1-.779-1.569,1.362,1.362,0,0,0-1.252-1.9H26.5v1h2.192a.362.362,0,0,1,.122.021l-4.628,3.2a5.567,5.567,0,0,0-.576.459,2.477,2.477,0,0,0-.61-.161ZM41.5,45h-21a.5.5,0,0,1-.3-.9l1.235-.926a1.5,1.5,0,0,0,.6-1.093l.8-11.154a4.479,4.479,0,0,1,1.927-3.379l4.1-2.84A2.148,2.148,0,0,0,31,27a1.5,1.5,0,0,0,1.5,1.5h3a1.5,1.5,0,0,0,1.459-1.151l.286.2a4.479,4.479,0,0,1,1.927,3.379l.8,11.154a1.5,1.5,0,0,0,.6,1.093L41.8,44.1a.5.5,0,0,1-.3.9Z" fill="#e6492d"/>
      <path id="Path_193944" data-name="Path 193944" d="M164.692,239.038,161,237.5V236a2.5,2.5,0,0,0-2-2.45V232h-1v1.55a2.5,2.5,0,0,0-2,2.45v1.5l-3.692,1.538a.5.5,0,0,0-.308.462v1a.5.5,0,0,0,.5.5h.5v4h-1v1h13v-1h-1v-4h.5a.5.5,0,0,0,.5-.5v-1a.5.5,0,0,0-.308-.462ZM157,236a1.5,1.5,0,0,1,3,0v1.083l-1.308-.545a.5.5,0,0,0-.385,0l-1.308.545Zm-1.5,9H154v-4h1.5Zm2.5,0h-1.5v-4H158Zm2.5,0H159v-4h1.5Zm2.5,0h-1.5v-4H163Zm1-5H153v-.167l5.5-2.292,5.5,2.292Z" transform="translate(-127.5 -202.5)" fill="#e6492d"/>
      <path id="Path_193945" data-name="Path 193945" d="M388.505,166.092l.662-.749a5.537,5.537,0,0,0-.511-.4l-.641-.443-.569.822.641.443a4.505,4.505,0,0,1,.418.328Z" transform="translate(-348.231 -139.218)" fill="#e6492d"/>
      <path id="Path_193946" data-name="Path 193946" d="M418.1,203.915l1-.071-.4-5.609a5.512,5.512,0,0,0-.89-2.63l-.836.549a4.511,4.511,0,0,1,.728,2.152Z" transform="translate(-375.906 -168.38)" fill="#e6492d"/>
      <rect id="Rectangle_168823" data-name="Rectangle 168823" width="6.517" height="1" transform="matrix(0.071, -0.997, 0.997, 0.071, 18.501, 40.464)" fill="#e6492d"/>
      <rect id="Rectangle_168824" data-name="Rectangle 168824" width="1.504" height="1" transform="matrix(0.071, -0.997, 0.997, 0.071, 19.037, 32.964)" fill="#e6492d"/>
    </g>
    <rect id="Rectangle_168826" data-name="Rectangle 168826" width="30" height="30" transform="translate(-15072 -370)" fill="none"/>
  </g>
</svg>
