<svg id="team" xmlns="http://www.w3.org/2000/svg" width="24" height="24" viewBox="0 0 24 24">
  <rect id="Rectangle_169197" data-name="Rectangle 169197" width="24" height="24" fill="none"/>
  <g id="group" transform="translate(-7.468)">
    <g id="Group_161650" data-name="Group 161650" transform="translate(7.987)">
      <g id="Group_161649" data-name="Group 161649" transform="translate(0)">
        <path id="Path_208965" data-name="Path 208965" d="M137.421,125.242a3.079,3.079,0,1,0,3.079-3.079A3.083,3.083,0,0,0,137.421,125.242Zm3.079-1.948a1.948,1.948,0,1,1-1.948,1.948A1.948,1.948,0,0,1,140.5,123.295Z" transform="translate(-129.005 -114.22)" fill="#bf2025"/>
        <path id="Path_208966" data-name="Path 208966" d="M98.178,230.771l-4.125-.013h0a4.1,4.1,0,0,0-4.092,4.092V238.7a1.049,1.049,0,0,0,1.049,1.049h10.2a1.032,1.032,0,0,0,1.049-1.039V234.86A4.09,4.09,0,0,0,98.178,230.771Zm2.95,7.85H99.872v-3.745a.466.466,0,1,0-.932,0v3.745H93.277v-3.745a.466.466,0,1,0-.932,0v3.745H91.09v-3.775a2.961,2.961,0,0,1,2.96-2.956l4.122.013h0a2.957,2.957,0,0,1,2.953,2.956v3.762Z" transform="translate(-84.628 -215.753)" fill="#bf2025"/>
        <path id="Path_208967" data-name="Path 208967" d="M58.324,6.159a3.079,3.079,0,1,0-3.079-3.079A3.083,3.083,0,0,0,58.324,6.159Zm0-5.027a1.948,1.948,0,1,1-1.948,1.948A1.948,1.948,0,0,1,58.324,1.132Z" transform="translate(-52.172)"/>
        <path id="Path_208968" data-name="Path 208968" d="M13.926,115.586a.565.565,0,0,0-.566-.566H11.306v-3.742a.466.466,0,0,0-.932,0v3.745H9.119v-3.772a2.964,2.964,0,0,1,2.96-2.96h4.128a2.93,2.93,0,0,1,.636.07.515.515,0,0,0,.123.013.566.566,0,0,0,.123-1.119,3.937,3.937,0,0,0-.882-.1H12.079a4.1,4.1,0,0,0-4.092,4.092v3.855a1.049,1.049,0,0,0,1.049,1.049H13.36A.57.57,0,0,0,13.926,115.586Z" transform="translate(-7.987 -100.192)"/>
        <path id="Path_208969" data-name="Path 208969" d="M222.471,6.159a3.079,3.079,0,1,0-3.079-3.079A3.083,3.083,0,0,0,222.471,6.159Zm0-5.027a1.948,1.948,0,1,1-1.948,1.948A1.948,1.948,0,0,1,222.471,1.132Z" transform="translate(-205.646)"/>
        <path id="Path_208970" data-name="Path 208970" d="M222.909,108.309a4.065,4.065,0,0,0-2.89-1.2l-4.125,0a3.849,3.849,0,0,0-.872.1.566.566,0,0,0,.123,1.119.516.516,0,0,0,.123-.013,2.817,2.817,0,0,1,.626-.07l4.125,0a2.967,2.967,0,0,1,2.96,2.96v3.772h-1.255v-3.742a.466.466,0,0,0-.932,0v3.745h-2.054a.566.566,0,1,0,0,1.132h4.321a1.049,1.049,0,0,0,1.049-1.049V111.2A4.074,4.074,0,0,0,222.909,108.309Z" transform="translate(-201.146 -100.145)"/>
      </g>
    </g>
  </g>
</svg>
