<svg xmlns="http://www.w3.org/2000/svg" width="24" height="24" viewBox="0 0 24 24">
  <g id="Terms_conditions" data-name="Terms &amp; conditions" transform="translate(0 0)">
    <rect id="Rectangle_167666" data-name="Rectangle 167666" width="24" height="24" fill="none"/>
    <g id="terms-and-conditions_1_" data-name="terms-and-conditions (1)" transform="translate(-66.318 0)">
      <g id="Page-1_99_" transform="translate(68.267)">
        <g id="_x31_00---Terms-And-Conditions" transform="translate(0)">
          <path id="Shape_373_" d="M82.31.117a.446.446,0,0,0-.3-.117H69.555a1.246,1.246,0,0,0-1.288,1.2V22.8A1.246,1.246,0,0,0,69.555,24H85.87a1.246,1.246,0,0,0,1.288-1.2V4.8a.387.387,0,0,0-.126-.283Zm.126,1.248L85.692,4.4H82.865a.415.415,0,0,1-.429-.4ZM85.87,23.2H69.555a.415.415,0,0,1-.429-.4V1.2a.415.415,0,0,1,.429-.4H81.577V4a1.246,1.246,0,0,0,1.288,1.2H86.3V22.8A.415.415,0,0,1,85.87,23.2Z" transform="translate(-68.267)" fill="#060709"/>
          <path id="Shape_372_" d="M139.5,409.6h-9.728a1.615,1.615,0,1,0,0,3.214H139.5a1.615,1.615,0,1,0,0-3.214Zm0,2.411h-9.728a.807.807,0,1,1,0-1.607H139.5a.807.807,0,1,1,0,1.607Z" transform="translate(-125.187 -390.422)" fill="#bf2025"/>
          <path id="Shape_371_" d="M132.591,290.218a.4.4,0,0,0-.565.063l-.217.271a1.172,1.172,0,0,0-.193-.02h-2.411A1.205,1.205,0,0,0,128,291.737v2.009a1.205,1.205,0,0,0,1.205,1.205h2.411a1.205,1.205,0,0,0,1.205-1.205v-2.009a1.2,1.2,0,0,0-.3-.788l.133-.166a.4.4,0,0,0-.063-.565Zm-.573,1.519v2.009a.4.4,0,0,1-.4.4h-2.411a.4.4,0,0,1-.4-.4v-2.009a.4.4,0,0,1,.4-.4h1.976l-.8,1-.084-.084a.4.4,0,0,0-.568.568l.4.4a.4.4,0,0,0,.283.119h.023a.4.4,0,0,0,.291-.15l1.268-1.584A.4.4,0,0,1,132.018,291.737Z" transform="translate(-124.922 -276.545)" fill="#bf2025"/>
          <g id="Group_160245" data-name="Group 160245" transform="translate(2.411 2.813)">
            <path id="Path_363_" d="M247.869,316.538h1.607a.4.4,0,1,0,0-.8h-1.607a.4.4,0,1,0,0,.8Z" transform="translate(-240.741 -303.68)" fill="#bf2025" fill-rule="evenodd"/>
            <path id="Path_362_" d="M119.869,60.538h3.215a.4.4,0,0,0,0-.8h-3.215a.4.4,0,0,0,0,.8Z" transform="translate(-119.467 -59.734)" fill="#060709" fill-rule="evenodd"/>
            <path id="Path_361_" d="M254.379,349.867H247.9a.4.4,0,1,0,0,.8h6.48a.4.4,0,1,0,0-.8Z" transform="translate(-240.741 -336.205)" fill="#bf2025" fill-rule="evenodd"/>
            <path id="Path_360_" d="M133.1,256h-13.19a.4.4,0,1,0,0,.8H133.1a.4.4,0,1,0,0-.8Z" transform="translate(-119.467 -246.758)" fill="#060709" fill-rule="evenodd"/>
            <path id="Path_359_" d="M133.1,213.333h-13.19a.4.4,0,1,0,0,.8H133.1a.4.4,0,1,0,0-.8Z" transform="translate(-119.467 -206.1)" fill="#060709" fill-rule="evenodd"/>
            <path id="Path_358_" d="M133.1,170.667h-13.19a.4.4,0,1,0,0,.8H133.1a.4.4,0,1,0,0-.8Z" transform="translate(-119.467 -165.443)" fill="#060709" fill-rule="evenodd"/>
            <path id="Path_357_" d="M133.1,128h-13.19a.4.4,0,1,0,0,.8H133.1a.4.4,0,1,0,0-.8Z" transform="translate(-119.467 -124.786)" fill="#060709" fill-rule="evenodd"/>
          </g>
        </g>
      </g>
    </g>
  </g>
</svg>
