<svg xmlns="http://www.w3.org/2000/svg" width="28.924" height="30" viewBox="0 0 28.924 30">
  <g id="Visa_Recommendation" data-name="Visa Recommendation" transform="translate(-34 -3)">
    <path id="Path_115757" data-name="Path 115757" d="M52.388,19.606H49.812a8.1,8.1,0,0,1-1.235,2.506A7.713,7.713,0,0,0,52.388,19.606ZM56.447,33H36.471A2.467,2.467,0,0,1,34,30.529V5.471A2.478,2.478,0,0,1,36.471,3H60.453a2.478,2.478,0,0,1,2.471,2.471V30.529A2.467,2.467,0,0,1,60.453,33ZM36.471,3.953a1.533,1.533,0,0,0-1.535,1.518V30.529a1.536,1.536,0,0,0,1.535,1.535H56.447a1.536,1.536,0,0,0,1.535-1.535V5.471a1.521,1.521,0,0,0-1.535-1.518ZM58.388,32.065h2.065a1.521,1.521,0,0,0,1.518-1.535V5.471a1.518,1.518,0,0,0-1.518-1.518H58.388a2.44,2.44,0,0,1,.529,1.518V30.529A2.452,2.452,0,0,1,58.388,32.065ZM44.341,22.112a8.1,8.1,0,0,1-1.235-2.506H40.529A7.713,7.713,0,0,0,44.341,22.112Zm-5.1-2.665a.442.442,0,0,1-.071-.124,8.52,8.52,0,0,1-1.341-4.588,8.63,8.63,0,1,1,1.412,4.712Zm.618-.794h2.982a17.173,17.173,0,0,1-.424-3.459H38.782A7.731,7.731,0,0,0,39.859,18.653Zm-1.076-4.412h3.635a17.173,17.173,0,0,1,.424-3.459H39.859A7.731,7.731,0,0,0,38.782,14.241Zm1.747-4.412h2.576a8.1,8.1,0,0,1,1.235-2.506A7.713,7.713,0,0,0,40.529,9.829Zm8.047-2.506a8.518,8.518,0,0,1,1.253,2.506h2.559A7.713,7.713,0,0,0,48.576,7.324Zm4.482,3.459H50.076a15.993,15.993,0,0,1,.424,3.459h3.635A7.517,7.517,0,0,0,53.059,10.782Zm1.076,4.412H50.5a15.993,15.993,0,0,1-.424,3.459h2.982A7.517,7.517,0,0,0,54.135,15.194Zm-5.312,4.412H44.094C45.4,23.329,47.518,23.329,48.824,19.606Zm-5.012-.953h5.294a15.345,15.345,0,0,0,.459-3.459H43.353A16.424,16.424,0,0,0,43.812,18.653ZM46.459,7.024c-.847,0-1.747,1.059-2.365,2.806h4.729C48.206,8.082,47.306,7.024,46.459,7.024Zm-2.647,3.759a16.424,16.424,0,0,0-.459,3.459h6.212a15.345,15.345,0,0,0-.459-3.459ZM54.576,26.594H38.341a.468.468,0,0,1,0-.935H54.576A.468.468,0,0,1,54.576,26.594Zm-1.747,3.335H40.088a.477.477,0,0,1,0-.953H52.829A.477.477,0,0,1,52.829,29.929Z" fill="#1665d8" fill-rule="evenodd"/>
  </g>
</svg>
